<svg width="500" height="400" version="1.1" xmlns="http://www.w3.org/2000/svg" desc="Created with imagetracer.js version 1.2.6" ><path fill="rgb(179,180,181)" stroke="rgb(179,180,181)" stroke-width="1" opacity="0.5686274509803921" d="M 244.5 5 L 246 5.5 L 212.5 22 L 212.5 21 L 244.5 5 Z " /><path fill="rgb(179,180,181)" stroke="rgb(179,180,181)" stroke-width="1" opacity="0.5686274509803921" d="M 255.5 5 L 281 17.5 L 279.5 18 L 255.5 6 L 255.5 5 Z " /><path fill="rgb(179,180,181)" stroke="rgb(179,180,181)" stroke-width="1" opacity="0.5686274509803921" d="M 284.5 19 L 310 31.5 L 308.5 32 L 284.5 20 L 284.5 19 Z " /><path fill="rgb(179,180,181)" stroke="rgb(179,180,181)" stroke-width="1" opacity="0.5686274509803921" d="M 207.5 23 L 209 23.5 L 175.5 40 L 175.5 39 L 207.5 23 Z " /><path fill="rgb(179,180,181)" stroke="rgb(179,180,181)" stroke-width="1" opacity="0.5686274509803921" d="M 311.5 32 L 328 40.5 L 326.5 40 L 311.5 33 L 311.5 32 Z " /><path fill="rgb(179,180,181)" stroke="rgb(179,180,181)" stroke-width="1" opacity="0.5686274509803921" d="M 173.5 40 L 173 41.5 L 174.5 45 L 193 54.5 L 191.5 54 L 172 45 Q 171 41.2 173.5 40 Z " /><path fill="rgb(179,180,181)" stroke="rgb(179,180,181)" stroke-width="1" opacity="0.5686274509803921" d="M 326.5 44 L 328 44.5 L 287.5 65 L 288.5 63 L 326.5 44 Z " /><path fill="rgb(179,180,181)" stroke="rgb(179,180,181)" stroke-width="1" opacity="0.5686274509803921" d="M 161.5 46 L 167.5 46 L 203 64.5 L 201.5 64 L 167.5 47 L 161.5 47 L 157.5 49 L 157.5 48 L 161.5 46 Z " /><path fill="rgb(179,180,181)" stroke="rgb(179,180,181)" stroke-width="1" opacity="0.5686274509803921" d="M 332.5 46 L 339.5 46 L 356 54.5 L 354.5 55 L 339.5 47 L 332.5 47 L 327.5 50 L 328.5 48 L 332.5 46 Z " /><path fill="rgb(179,180,181)" stroke="rgb(179,180,181)" stroke-width="1" opacity="0.5686274509803921" d="M 154.5 49 L 156 49.5 L 138.5 58 L 138.5 57 L 154.5 49 Z " /><path fill="rgb(179,180,181)" stroke="rgb(179,180,181)" stroke-width="1" opacity="0.5686274509803921" d="M 357.5 55 L 383 67.5 L 381.5 68 L 357.5 56 L 357.5 55 Z " /><path fill="rgb(179,180,181)" stroke="rgb(179,180,181)" stroke-width="1" opacity="0.5686274509803921" d="M 198.5 57 L 247.5 82 L 252.5 82 L 285.5 65 L 284.5 67 L 252.5 83 L 247.5 83 L 199.5 59 L 198.5 57 Z " /><path fill="rgb(179,180,181)" stroke="rgb(179,180,181)" stroke-width="1" opacity="0.5686274509803921" d="M 309.5 58 L 308.5 60 L 258.5 85 L 259.5 83 L 309.5 58 Z " /><path fill="rgb(179,180,181)" stroke="rgb(179,180,181)" stroke-width="1" opacity="0.5686274509803921" d="M 133.5 59 L 135 59.5 L 115.5 69 L 115.5 68 L 133.5 59 Z " /><path fill="rgb(179,180,181)" stroke="rgb(179,180,181)" stroke-width="1" opacity="0.5686274509803921" d="M 206.5 66 L 242 84.5 Q 243 89 240.5 90 L 218.5 101 L 219.5 99 L 241 89 L 241 84 L 239.5 84 L 207.5 68 L 206.5 66 Z " /><path fill="rgb(179,180,181)" stroke="rgb(179,180,181)" stroke-width="1" opacity="0.5686274509803921" d="M 112.5 69 L 114 69.5 L 96.5 78 L 96.5 77 L 112.5 69 Z " /><path fill="rgb(179,180,181)" stroke="rgb(179,180,181)" stroke-width="1" opacity="0.5686274509803921" d="M 386.5 69 L 412 81.5 L 410.5 82 L 386.5 70 L 386.5 69 Z " /><path fill="rgb(179,180,181)" stroke="rgb(179,180,181)" stroke-width="1" opacity="0.5686274509803921" d="M 93.5 78 L 95 78.5 Q 87 80.5 82.5 86 L 82 84.5 L 93.5 78 Z " /><path fill="rgb(179,180,181)" stroke="rgb(179,180,181)" stroke-width="1" opacity="0.5686274509803921" d="M 413.5 82 L 417 83 L 419 88.5 L 418 88.5 L 414.5 83 L 413.5 82 Z " /><path fill="rgb(179,180,181)" stroke="rgb(179,180,181)" stroke-width="1" opacity="0.5686274509803921" d="M 258.5 88 L 274 96.5 L 272.5 96 L 259.5 90 L 258.5 88 Z " /><path fill="rgb(179,180,181)" stroke="rgb(179,180,181)" stroke-width="1" opacity="0.5686274509803921" d="M 275.5 97 L 307 113.5 L 305.5 113 L 276.5 99 L 275.5 97 Z " /><path fill="rgb(179,180,181)" stroke="rgb(179,180,181)" stroke-width="1" opacity="0.5686274509803921" d="M 216.5 101 L 215.5 103 L 191.5 115 L 192.5 113 L 216.5 101 Z " /><path fill="rgb(179,180,181)" stroke="rgb(179,180,181)" stroke-width="1" opacity="0.5686274509803921" d="M 189.5 115 L 188.5 117 L 165 128 L 162.5 134 L 162 132.5 L 165.5 127 L 189.5 115 Z " /><path fill="rgb(179,180,181)" stroke="rgb(179,180,181)" stroke-width="1" opacity="0.5686274509803921" d="M 310.5 115 L 336 128.5 L 334.5 128 L 311.5 117 L 310.5 115 Z " /><path fill="rgb(179,180,181)" stroke="rgb(179,180,181)" stroke-width="1" opacity="0.5686274509803921" d="M 336.5 130 L 338 132.5 L 338 223.5 L 339.5 225 L 343.5 224 L 342.5 226 Q 337.8 226.8 337 223.5 L 337 132.5 L 336.5 130 Z " /><path fill="rgb(179,180,181)" stroke="rgb(179,180,181)" stroke-width="1" opacity="0.5686274509803921" d="M 418.5 177 L 419 178.5 L 416.5 182 L 417 180.5 L 418.5 177 Z " /><path fill="rgb(179,180,181)" stroke="rgb(179,180,181)" stroke-width="1" opacity="0.5686274509803921" d="M 415.5 183 L 413.5 186 L 415.5 183 Z " /><path fill="rgb(179,180,181)" stroke="rgb(179,180,181)" stroke-width="1" opacity="0.5686274509803921" d="M 411.5 186 L 410.5 188 L 406.5 190 L 407.5 188 L 411.5 186 Z " /><path fill="rgb(179,180,181)" stroke="rgb(179,180,181)" stroke-width="1" opacity="0.5686274509803921" d="M 402.5 191 L 401.5 193 L 397.5 195 L 398.5 193 L 402.5 191 Z " /><path fill="rgb(179,180,181)" stroke="rgb(179,180,181)" stroke-width="1" opacity="0.5686274509803921" d="M 393.5 196 L 392.5 198 L 388.5 200 L 389.5 198 L 393.5 196 Z " /><path fill="rgb(179,180,181)" stroke="rgb(179,180,181)" stroke-width="1" opacity="0.5686274509803921" d="M 386.5 200 L 385.5 202 L 379.5 205 L 380.5 203 L 386.5 200 Z " /><path fill="rgb(179,180,181)" stroke="rgb(179,180,181)" stroke-width="1" opacity="0.5686274509803921" d="M 377.5 205 L 376.5 207 L 372.5 209 L 373.5 207 L 377.5 205 Z " /><path fill="rgb(179,180,181)" stroke="rgb(179,180,181)" stroke-width="1" opacity="0.5686274509803921" d="M 368.5 210 L 367.5 212 L 363.5 214 L 364.5 212 L 368.5 210 Z " /><path fill="rgb(179,180,181)" stroke="rgb(179,180,181)" stroke-width="1" opacity="0.5686274509803921" d="M 359.5 215 L 358.5 217 L 354.5 219 L 355.5 217 L 359.5 215 Z " /><path fill="rgb(179,180,181)" stroke="rgb(179,180,181)" stroke-width="1" opacity="0.5686274509803921" d="M 352.5 219 L 351.5 221 L 345.5 224 L 346.5 222 L 352.5 219 Z " /><path fill="rgb(178,179,181)" stroke="rgb(178,179,181)" stroke-width="1" opacity="0.996078431372549" d="M 326.5 40 L 328 43.5 L 327 43.5 L 326.5 40 Z " /><path fill="rgb(178,179,181)" stroke="rgb(178,179,181)" stroke-width="1" opacity="0.996078431372549" d="M 85.5 83 L 85 84.5 L 84.5 86 L 84 84.5 L 85.5 83 Z " /><path fill="rgb(178,179,181)" stroke="rgb(178,179,181)" stroke-width="1" opacity="0.996078431372549" d="M 414.5 83 L 416 85.5 L 415 85.5 L 414.5 83 Z " /><path fill="rgb(178,179,181)" stroke="rgb(178,179,181)" stroke-width="1" opacity="0.996078431372549" d="M 259.5 84 L 259 85.5 L 260 88.5 L 258 87.5 L 259.5 84 Z " /><path fill="rgb(178,179,181)" stroke="rgb(178,179,181)" stroke-width="1" opacity="0.996078431372549" d="M 86.5 86 L 90 87 L 89.5 89 L 86.5 86 Z " /><path fill="rgb(178,179,181)" stroke="rgb(178,179,181)" stroke-width="1" opacity="0.996078431372549" d="M 409.5 87 L 410 89 L 406.5 91 L 406 89 L 409.5 87 Z " /><path fill="rgb(178,179,181)" stroke="rgb(178,179,181)" stroke-width="1" opacity="0.996078431372549" d="M 97.5 91 L 101 93 L 100.5 95 L 97 93 L 97.5 91 Z " /><path fill="rgb(178,179,181)" stroke="rgb(178,179,181)" stroke-width="1" opacity="0.996078431372549" d="M 398.5 93 L 399 95 L 397 94.5 L 398.5 93 Z " /><path fill="rgb(178,179,181)" stroke="rgb(178,179,181)" stroke-width="1" opacity="0.996078431372549" d="M 407.5 94 L 406.5 96 L 407.5 94 Z " /><path fill="rgb(178,179,181)" stroke="rgb(178,179,181)" stroke-width="1" opacity="0.996078431372549" d="M 110.5 98 L 114 100 L 113.5 102 L 110 100 L 110.5 98 Z " /><path fill="rgb(178,179,181)" stroke="rgb(178,179,181)" stroke-width="1" opacity="0.996078431372549" d="M 387.5 99 L 388 101 L 384.5 103 L 384 101 L 387.5 99 Z " /><path fill="rgb(178,179,181)" stroke="rgb(178,179,181)" stroke-width="1" opacity="0.996078431372549" d="M 398.5 99 L 397.5 101 L 398.5 99 Z " /><path fill="rgb(178,179,181)" stroke="rgb(178,179,181)" stroke-width="1" opacity="0.996078431372549" d="M 376.5 105 L 377 107 L 373.5 109 L 373 107 L 376.5 105 Z " /><path fill="rgb(178,179,181)" stroke="rgb(178,179,181)" stroke-width="1" opacity="0.996078431372549" d="M 387.5 105 L 386.5 107 L 387.5 105 Z " /><path fill="rgb(178,179,181)" stroke="rgb(178,179,181)" stroke-width="1" opacity="0.996078431372549" d="M 123.5 106 L 127 107 L 126.5 109 L 123.5 106 Z " /><path fill="rgb(178,179,181)" stroke="rgb(178,179,181)" stroke-width="1" opacity="0.996078431372549" d="M 134.5 111 L 138 113 L 137.5 115 L 134 113 L 134.5 111 Z " /><path fill="rgb(178,179,181)" stroke="rgb(178,179,181)" stroke-width="1" opacity="0.996078431372549" d="M 365.5 111 L 366 113 L 362.5 115 L 362 113 L 365.5 111 Z " /><path fill="rgb(178,179,181)" stroke="rgb(178,179,181)" stroke-width="1" opacity="0.996078431372549" d="M 376.5 111 L 375.5 113 L 376.5 111 Z " /><path fill="rgb(178,179,181)" stroke="rgb(178,179,181)" stroke-width="1" opacity="0.996078431372549" d="M 367.5 116 L 366.5 118 L 367.5 116 Z " /><path fill="rgb(178,179,181)" stroke="rgb(178,179,181)" stroke-width="1" opacity="0.996078431372549" d="M 354.5 117 L 355 119 L 351.5 121 L 351 119 L 354.5 117 Z " /><path fill="rgb(178,179,181)" stroke="rgb(178,179,181)" stroke-width="1" opacity="0.996078431372549" d="M 147.5 118 L 151 120 L 150.5 122 L 147 120 L 147.5 118 Z " /><path fill="rgb(178,179,181)" stroke="rgb(178,179,181)" stroke-width="1" opacity="0.996078431372549" d="M 356.5 122 L 355.5 124 L 356.5 122 Z " /><path fill="rgb(178,179,181)" stroke="rgb(178,179,181)" stroke-width="1" opacity="0.996078431372549" d="M 343.5 123 L 344 125 L 340.5 127 L 340 125 L 343.5 123 Z " /><path fill="rgb(178,179,181)" stroke="rgb(178,179,181)" stroke-width="1" opacity="0.996078431372549" d="M 160.5 126 L 164 127 L 163.5 129 L 160.5 126 Z " /><path fill="rgb(178,179,181)" stroke="rgb(178,179,181)" stroke-width="1" opacity="1" d="M 247.5 5 L 253.5 5 L 327 41.5 Q 328.1 44.8 325.5 44 L 251.5 82 L 248.5 82 L 173 44 Q 171.5 40.3 174.5 41 L 247.5 5 Z " /><path fill="rgb(178,179,181)" stroke="rgb(178,179,181)" stroke-width="1" opacity="1" d="M 161.5 47 L 166.5 47 L 241 85.5 L 239.5 89 L 164.5 128 L 162.5 127 L 163 128.5 L 161.5 132 L 82 88.5 L 83.5 85 L 85.5 86 L 86.5 83 L 161.5 47 Z M 89 87 L 90 89 L 98 93 L 99 93 L 89 87 Z M 100 93 L 101 95 L 111 100 L 112 100 L 100 93 Z M 113 100 L 114 102 L 122 106 L 123 106 L 113 100 Z M 126 107 L 127 109 L 135 113 L 136 113 L 126 107 Z M 137 113 L 138 115 L 148 120 L 149 120 L 137 113 Z M 150 120 L 151 122 L 159 126 L 160 126 L 150 120 Z " /><path fill="rgb(178,179,181)" stroke="rgb(178,179,181)" stroke-width="1" opacity="1" d="M 333.5 47 L 338.5 47 L 349.5 52 L 415 84.5 L 408 88.5 L 409.5 89 L 416.5 85 L 418 88.5 L 338.5 132 L 337 128 L 342 125.5 L 340.5 125 Q 339.1 127.6 334.5 127 L 259 87.5 L 260.5 84 L 333.5 47 Z M 407 89 L 399 93 L 398 95 L 408 90 L 407 89 Z M 396 95 L 388 99 L 387 101 L 397 96 L 396 95 Z M 385 101 L 377 105 L 376 107 L 386 102 L 385 101 Z M 374 107 L 366 111 L 365 113 L 375 108 L 374 107 Z M 363 113 L 355 117 L 354 119 L 364 114 L 363 113 Z M 352 119 L 344 123 L 343 125 L 353 120 L 352 119 Z " /><path fill="rgb(218,218,218)" stroke="rgb(218,218,218)" stroke-width="1" opacity="0.9725490196078431" d="M 81 89 L 162 132 L 163 134.5 L 163 223.5 Q 162.3 226.8 157.5 226 L 134.5 212 L 128.5 210 L 125.5 207 L 114.5 201 L 112 201 Q 113.1 198.3 110.5 199 L 96.5 192 L 84 183.5 L 81 178.5 L 81 89 Z " /><path fill="rgb(212,0,4)" stroke="rgb(212,0,4)" stroke-width="1" opacity="0.9333333333333333" d="M 168 131 L 250.5 175 L 330.5 131 L 333 135.5 L 254.5 178 L 252 180.5 L 252 275.5 L 248.5 276 L 247 274.5 L 247 180.5 L 244.5 178 L 167 137 L 168 131 Z " /><path fill="rgb(212,0,4)" stroke="rgb(212,0,4)" stroke-width="1" opacity="0.9333333333333333" d="M 168.5 228 L 169.5 230 L 168.5 228 Z " /><path fill="rgb(212,0,4)" stroke="rgb(212,0,4)" stroke-width="1" opacity="0.9333333333333333" d="M 173.5 233 L 174.5 235 L 173.5 233 Z " /><path fill="rgb(212,0,4)" stroke="rgb(212,0,4)" stroke-width="1" opacity="0.9333333333333333" d="M 189.5 242 L 190.5 244 L 189.5 242 Z " /><path fill="rgb(212,0,4)" stroke="rgb(212,0,4)" stroke-width="1" opacity="0.9333333333333333" d="M 205.5 251 L 206.5 253 L 205.5 251 Z " /><path fill="rgb(212,0,4)" stroke="rgb(212,0,4)" stroke-width="1" opacity="0.9333333333333333" d="M 221.5 260 L 222.5 262 L 221.5 260 Z " /><path fill="rgb(192,1,1)" stroke="rgb(192,1,1)" stroke-width="1" opacity="0.9803921568627451" d="M 247.5 90 L 253.5 90 L 331 130.5 L 250.5 175 L 169 130.5 L 247.5 90 Z " /><path fill="rgb(192,1,1)" stroke="rgb(192,1,1)" stroke-width="1" opacity="0.9803921568627451" d="M 252.5 180 L 253 274.5 L 252 274.5 L 252.5 180 Z " /><path fill="rgb(156,157,158)" stroke="rgb(156,157,158)" stroke-width="1" opacity="0.9803921568627451" d="M 418.5 89 L 419 176.5 L 412.5 186 L 344.5 224 L 339.5 225 L 338 223.5 L 338 133 L 418.5 89 Z " /><path fill="rgb(0,0,0)" stroke="rgb(0,0,0)" stroke-width="1" opacity="0" d="M 0 0 L 500 0 L 500 400 L 0 400 L 0 0 Z M 245 5 L 175 40 L 172 40 L 172 45 L 248 83 L 253 83 L 327 45 Q 330 46 328 41 L 257 5 L 245 5 Z M 162 46 L 84 83 L 81 87 L 81 179 L 84 184 L 90 188 L 154 224 L 161 226 L 163 224 L 163 133 L 165 128 L 241 90 Q 243 89 242 85 L 168 46 L 162 46 Z M 333 46 L 260 83 Q 257 84 258 89 L 335 128 L 337 133 L 337 224 L 340 226 L 343 226 L 414 186 L 419 179 L 419 88 L 418 85 L 340 46 L 333 46 Z M 248 90 L 170 130 L 167 135 L 167 227 L 169 231 L 173 234 L 249 276 L 252 276 L 260 272 L 328 234 L 333 227 L 333 135 L 331 130 L 254 90 L 248 90 Z M 336 318 L 335 319 L 327 319 L 317 322 L 309 327 L 304 339 L 305 350 L 308 355 L 318 361 L 336 367 L 339 371 L 338 377 L 330 380 L 317 379 L 306 375 L 304 382 L 304 392 L 315 394 L 323 394 L 324 395 Q 344 396 355 388 L 358 385 L 362 374 L 361 363 L 358 358 L 349 351 L 330 345 Q 326 344 327 338 L 333 334 Q 348 332 357 337 L 358 337 L 358 321 L 350 319 L 336 318 Z M 470 318 L 469 319 L 456 320 L 446 325 Q 440 329 438 337 Q 437 348 441 354 Q 446 359 454 362 L 460 363 L 471 368 Q 474 369 473 375 L 470 378 L 463 380 L 450 379 L 440 375 L 438 376 L 438 392 L 448 394 L 457 394 L 458 395 L 476 394 L 487 389 Q 493 385 495 378 Q 497 366 493 360 L 485 352 L 464 345 Q 459 344 460 339 L 466 334 Q 482 332 491 337 L 492 335 L 492 321 L 484 319 L 470 318 Z M 38 319 Q 26 321 19 327 Q 8 334 5 349 Q 2 370 11 380 L 24 390 L 32 393 L 43 395 L 53 395 L 65 392 L 66 392 L 66 376 L 55 379 L 47 379 L 38 376 Q 30 371 28 362 Q 27 348 33 342 L 44 335 Q 49 337 51 334 L 52 335 L 60 335 L 65 337 L 66 337 L 66 322 L 61 319 L 38 319 Z M 99 319 L 85 325 L 75 336 L 72 343 L 70 353 L 71 368 L 77 382 L 89 391 L 105 395 L 120 394 L 134 388 Q 144 381 147 366 L 147 349 L 144 338 L 141 333 Q 130 316 99 319 Z M 157 320 L 157 394 L 198 393 Q 209 391 216 385 Q 222 379 226 370 L 228 359 L 226 342 L 221 333 L 213 325 L 198 320 L 157 320 Z M 237 320 L 237 393 L 239 394 L 293 394 L 294 393 L 294 380 L 293 378 L 259 378 L 259 364 L 291 364 L 291 349 L 259 349 L 259 335 L 293 335 L 293 321 L 293 320 L 237 320 Z M 362 320 L 388 368 L 388 394 L 411 394 L 411 368 L 438 321 L 414 320 L 401 351 L 386 322 L 386 320 L 362 320 Z " /><path fill="rgb(0,0,0)" stroke="rgb(0,0,0)" stroke-width="1" opacity="0" d="M 104.5 334 Q 117.1 331.9 120 339.5 L 124 351.5 L 124 360.5 L 122 370.5 L 115.5 378 L 107.5 380 L 98 374.5 Q 92.1 365.9 94 349.5 L 97 340.5 L 102.5 335 L 104.5 334 Z " /><path fill="rgb(0,0,0)" stroke="rgb(0,0,0)" stroke-width="1" opacity="0" d="M 179 335 Q 196.5 332.8 202 343.5 Q 205.5 350 204 361.5 L 202 368.5 L 196.5 375 Q 190.8 380 179 378 L 179 335 Z " /><path fill="rgb(228,0,7)" stroke="rgb(228,0,7)" stroke-width="1" opacity="0.996078431372549" d="M 167 137 L 222.5 166 L 247 180.5 L 247 274.5 L 245.5 275 L 221.5 260 L 213.5 257 L 205.5 251 L 199 249 Q 200.3 246 196.5 247 L 189.5 242 L 188.5 243 L 185.5 240 L 183 240 Q 184.3 237 180.5 238 L 173.5 233 Q 172.3 235.2 171 232.5 Q 171.8 230.3 169.5 231 Q 171.2 228.7 167 226.5 L 167 137 Z " /><path fill="rgb(166,3,0)" stroke="rgb(166,3,0)" stroke-width="1" opacity="0.9921568627450981" d="M 332.5 136 L 333 226.5 L 327.5 234 L 253.5 275 L 253 179 L 332.5 136 Z " /><path fill="rgb(99,99,98)" stroke="rgb(99,99,98)" stroke-width="1" opacity="0.9372549019607843" d="M 336.5 318 Q 341.3 320.3 349.5 319 L 358 321 L 358 336.5 L 356.5 337 Q 347.8 331.7 331.5 334 L 327 337.5 Q 325.8 343.8 329.5 345 L 348.5 351 L 358 357.5 L 361 362.5 L 362 373.5 Q 360.4 382.9 354.5 388 Q 343.6 396.1 323.5 395 L 322.5 394 L 314.5 394 L 304 392 L 304 381.5 L 305.5 375 L 315.5 379 L 329.5 380 L 339 375.5 Q 340.3 368.3 335.5 367 L 313.5 359 L 307 352.5 L 304 344.5 L 304 338.5 Q 306 328.5 313.5 324 L 322.5 320 L 335.5 319 L 336.5 318 Z " /><path fill="rgb(99,99,98)" stroke="rgb(99,99,98)" stroke-width="1" opacity="0.9372549019607843" d="M 469.5 318 Q 474.6 320.4 483.5 319 L 492 321 L 492 333.5 L 490.5 337 Q 481.8 331.7 465.5 334 L 460 338.5 Q 459.3 344.3 463.5 345 L 479.5 350 Q 488.2 352.8 493 359.5 Q 496.9 365.6 495 377.5 Q 492.4 384.9 486.5 389 L 474.5 394 L 457.5 395 L 456.5 394 L 448.5 394 L 438 392 L 438 375.5 L 439.5 375 L 449.5 379 L 463.5 380 Q 470.1 379.1 473 374.5 Q 473.6 369.4 470.5 368 L 451.5 361 Q 444.8 358.8 441 353.5 Q 436.5 348 438 336.5 Q 440.1 329.1 445.5 325 L 455.5 320 L 468.5 319 L 469.5 318 Z " /><path fill="rgb(99,99,98)" stroke="rgb(99,99,98)" stroke-width="1" opacity="0.9372549019607843" d="M 37.5 319 L 60.5 319 L 66 321.5 L 66 336.5 L 64.5 337 L 59.5 335 L 51.5 335 L 50.5 334 L 38.5 337 L 33 341.5 Q 26.8 347.8 28 361.5 Q 30 371.5 37.5 376 L 46.5 379 L 54.5 379 L 66 376 L 66 391.5 L 64.5 392 L 52.5 395 L 42.5 395 L 31.5 393 L 23.5 390 L 11 379.5 Q 2.5 369.5 5 348.5 Q 8.4 335.4 17.5 328 Q 25.4 321.4 37.5 319 Z " /><path fill="rgb(99,99,98)" stroke="rgb(99,99,98)" stroke-width="1" opacity="0.9372549019607843" d="M 99.5 319 Q 130.2 315.8 141 332.5 L 144 337.5 L 147 348.5 L 147 365.5 Q 144.3 380.8 133.5 388 L 119.5 394 L 104.5 395 L 88.5 391 L 77 381.5 L 71 367.5 L 70 352.5 L 72 342.5 L 75 335.5 L 84.5 325 Q 90.5 320.5 99.5 319 Z M 105 334 L 103 335 L 97 341 L 94 350 Q 92 366 98 375 Q 101 379 108 380 L 116 378 L 122 371 L 124 362 L 124 352 L 120 340 Q 117 332 105 334 Z " /><path fill="rgb(99,99,98)" stroke="rgb(99,99,98)" stroke-width="1" opacity="0.9372549019607843" d="M 157 320 L 196.5 320 L 212.5 325 L 221 332.5 L 226 341.5 L 228 357.5 L 225 371.5 Q 221.8 379.8 215.5 385 Q 208.5 391 197.5 393 L 157 394 L 157 320 Z M 179 335 L 179 378 Q 191 380 197 375 L 202 369 L 204 362 L 204 350 L 199 339 Q 193 333 179 335 Z " /><path fill="rgb(99,99,98)" stroke="rgb(99,99,98)" stroke-width="1" opacity="0.9372549019607843" d="M 237 320 L 292.5 320 L 293 320.5 L 293 335 L 259 335 L 259 349 L 291 349 L 291 364 L 259 364 L 259 378 L 292.5 378 L 294 379.5 L 294 392.5 L 292.5 394 L 238.5 394 L 237 392.5 L 237 320 Z " /><path fill="rgb(99,99,98)" stroke="rgb(99,99,98)" stroke-width="1" opacity="0.9372549019607843" d="M 361.5 320 L 385.5 320 L 386 321.5 L 400.5 351 L 414 320 L 438 320.5 L 411 367.5 L 411 392.5 L 409.5 394 L 388 394 L 388 367.5 L 361.5 320 Z " /></svg>