<?xml version="1.0" encoding="UTF-8"?>
<svg version="1.1" xmlns="http://www.w3.org/2000/svg" width="3840" height="1171">
<path d="M0 0 C3.17440814 2.92629249 5.2534503 5.84345489 7.36328125 9.6015625 C7.99500244 10.71805176 8.62672363 11.83454102 9.27758789 12.98486328 C9.95590002 14.19823766 10.63420384 15.41161669 11.3125 16.625 C12.02454459 17.88698773 12.73736621 19.14853733 13.45092773 20.40966797 C14.55093263 22.35403665 15.65044428 24.29866659 16.74757385 26.24465942 C20.30991389 32.56279056 23.93064676 38.84659427 27.5625 45.125 C28.80344225 47.27340467 30.04432762 49.4218422 31.28515625 51.5703125 C31.89762207 52.63024414 32.51008789 53.69017578 33.14111328 54.78222656 C36.26324605 60.18670645 39.38141204 65.59347412 42.5 71 C43.74998122 73.1666775 44.99998121 75.33334417 46.25 77.5 C173.74999999 298.49999998 173.74999999 298.49999998 175.62597656 301.75170898 C176.87270256 303.91268988 178.11944727 306.07365998 179.36621094 308.23461914 C182.54145883 313.73818851 185.71635495 319.24196032 188.890625 324.74609375 C189.53128906 325.85637939 190.17195312 326.96666504 190.83203125 328.1105957 C192.09692032 330.30466946 193.35998319 332.49979718 194.62109375 334.69604492 C197.50903242 339.71953419 200.42140089 344.72245821 203.421875 349.6796875 C203.94426758 350.55181885 204.46666016 351.4239502 205.00488281 352.32250977 C205.97125255 353.9319162 206.94904222 355.53454467 207.94042969 357.12866211 C208.57319824 358.18839233 208.57319824 358.18839233 209.21875 359.26953125 C209.58935547 359.87385986 209.95996094 360.47818848 210.34179688 361.10083008 C211.26224191 363.75666908 210.80624127 365.32813324 210 368 C208.85522461 370.32641602 208.85522461 370.32641602 207.40234375 372.75390625 C206.5834668 374.13739258 206.5834668 374.13739258 205.74804688 375.54882812 C205.15056641 376.54333984 204.55308594 377.53785156 203.9375 378.5625 C202.65366966 380.72971204 201.37117043 382.89771303 200.08984375 385.06640625 C199.08219971 386.76821045 199.08219971 386.76821045 198.05419922 388.50439453 C194.98204525 393.71490322 191.99540439 398.97422492 189.00540161 404.23214722 C183.72356086 413.51949743 178.39876758 422.77996177 173 432 C167.9681021 440.5951729 162.99610876 449.22312222 158.0625 457.875 C151.03396493 470.20025196 143.95759566 482.49722067 136.85888672 494.78222656 C133.73675395 500.18670645 130.61858796 505.59347412 127.5 511 C126.25001878 513.1666775 125.00001879 515.33334417 123.75 517.5 C123.13125 518.5725 122.5125 519.645 121.875 520.75 C41.25 660.5 41.25 660.5 39.37426758 663.7512207 C38.1266526 665.91378583 36.87909384 668.07638339 35.6315918 670.23901367 C32.47056551 675.71870371 29.30850691 681.19779358 26.14453125 686.67578125 C25.50257813 687.78759766 24.860625 688.89941406 24.19921875 690.04492188 C23.00819246 692.10764131 21.81683131 694.17016747 20.625 696.23242188 C16.64902613 703.11953983 12.69892167 710.0212065 8.75463867 716.92651367 C8.20000694 717.89732628 7.64537521 718.86813889 7.07393646 719.86837006 C5.71586715 722.24552836 4.35789067 724.62273965 3 727 C3.88143755 726.99717961 4.76287511 726.99435921 5.67102289 726.99145335 C57.89522872 726.82599708 110.11918724 726.72816662 162.34366634 726.71833299 C168.6122491 726.71709406 174.88083156 726.71528928 181.14941406 726.71313477 C182.39739255 726.71271534 183.64537104 726.71229592 184.93116707 726.71186379 C205.1467583 726.70371984 225.36198078 726.64972107 245.57743818 726.57881906 C266.31554948 726.507103 287.0532923 726.48456442 307.79151678 726.50781661 C320.59168768 726.52061425 333.39059846 726.49491053 346.19056255 726.42018137 C354.9642858 726.37263042 363.73719442 726.37278564 372.51096171 726.41065188 C377.57596811 726.43109656 382.63866052 726.43032007 387.70343399 726.37295341 C392.3411698 726.32088768 396.97480813 726.32874707 401.61246842 726.38424657 C403.28961012 726.39374608 404.96705068 726.38126236 406.64381772 726.3445638 C411.72148959 726.2406016 416.16703048 726.33701607 421 728 C424.81155984 731.94514502 426.76337938 735.98324844 429 741 C430.22992145 743.17240078 431.4785626 745.33441877 432.75390625 747.48046875 C434.02545846 749.71499702 435.29492382 751.95071386 436.5625 754.1875 C437.96765477 756.65817597 439.37451273 759.12788106 440.78125 761.59765625 C441.13417618 762.21775574 441.48710236 762.83785522 441.85072327 763.47674561 C445.39784056 769.70638085 448.97679664 775.9175022 452.5625 782.125 C453.17681885 783.18871826 453.7911377 784.25243652 454.42407227 785.34838867 C455.66292223 787.49309587 456.90193541 789.6377088 458.14111328 791.78222656 C461.26324605 797.18670645 464.38141204 802.59347412 467.5 808 C468.74998122 810.1666775 469.99998121 812.33334417 471.25 814.5 C598.75000001 1035.50000001 598.75000001 1035.50000001 600.62719727 1038.75390625 C601.86976019 1040.9076172 603.11243489 1043.06126367 604.35522461 1045.21484375 C607.25314623 1050.23684262 610.15003349 1055.25942807 613.04275513 1060.28442383 C614.05947198 1062.05045522 615.07655658 1063.81627431 616.09375 1065.58203125 C617.36400873 1067.78734155 618.63359018 1069.99304216 619.90234375 1072.19921875 C620.48242188 1073.20597656 621.0625 1074.21273438 621.66015625 1075.25 C622.21461426 1076.21292969 622.76907227 1077.17585938 623.34033203 1078.16796875 C625.46964934 1081.80140222 627.68759761 1085.37766114 629.93139648 1088.94140625 C631 1091 631 1091 631 1094 C492.07 1094 353.14 1094 210 1094 C178.75 1039.83333333 147.5 985.66666667 116.25 931.5 C115.63133057 930.42766113 115.01266113 929.35532227 114.37524414 928.25048828 C113.1243552 926.08223736 111.87354148 923.91394303 110.62280273 921.74560547 C107.51201665 916.35282085 104.39995762 910.96077907 101.28515625 905.5703125 C94.46497363 893.76370516 87.6767674 881.93973 80.92263794 870.09527588 C75.76664555 861.05670572 70.54679327 852.05722862 65.28881836 843.07763672 C60.46127164 834.82076358 55.71451329 826.51905969 50.97949219 818.20898438 C45.80683347 809.13327446 40.57071199 800.09658641 35.29125977 791.08251953 C30.78563826 783.37736468 26.35380139 775.63149875 21.9375 767.875 C15.0854319 755.84078606 8.09337332 743.8935667 1 732 C-3.09587814 736.65440698 -5.89029366 741.91781598 -8.875 747.3125 C-13.44339103 755.48454879 -18.07542157 763.61204423 -22.8125 771.6875 C-27.93267528 780.42592292 -32.98661179 789.20006844 -38 798 C-43.51246859 807.67490784 -49.08424699 817.31282363 -54.7109375 826.921875 C-59.19166146 834.5857377 -63.60506752 842.28678835 -68 850 C-72.95378823 858.69401686 -77.94378369 867.36497229 -83 876 C-88.0318979 884.5951729 -93.00389124 893.22312222 -97.9375 901.875 C-104.96603507 914.20025196 -112.04240434 926.49722067 -119.14111328 938.78222656 C-122.26324605 944.18670645 -125.38141204 949.59347412 -128.5 955 C-129.74998122 957.1666775 -130.99998121 959.33334417 -132.25 961.5 C-132.86875 962.5725 -133.4875 963.645 -134.125 964.75 C-151.9375 995.625 -151.9375 995.625 -169.75 1026.5 C-170.36891113 1027.57282227 -170.98782227 1028.64564453 -171.62548828 1029.75097656 C-172.87371034 1031.91447476 -174.12208239 1034.07788643 -175.37060547 1036.24121094 C-178.52405256 1041.70565017 -181.67476096 1047.17163645 -184.8203125 1052.640625 C-185.45775391 1053.74792969 -186.09519531 1054.85523438 -186.75195312 1055.99609375 C-187.9313578 1058.04498654 -189.10987081 1060.09439311 -190.28710938 1062.14453125 C-191.4280256 1064.12563666 -192.61013437 1066.08350067 -193.82899189 1068.01762962 C-195.62393598 1071.05065706 -196.72352071 1074.05682042 -197.82288647 1077.40065956 C-200.34155576 1084.05690873 -203.21828349 1089.65051387 -209 1094 C-220.72347228 1098.01605682 -233.97116808 1096.83621485 -246.18599474 1096.55344367 C-251.35484631 1096.45805049 -256.523127 1096.49061318 -261.69261169 1096.5072937 C-270.63894184 1096.51880683 -279.58173098 1096.45004361 -288.52717018 1096.32606125 C-301.4599777 1096.14693169 -314.39108051 1096.08993803 -327.32499405 1096.06232543 C-348.3104873 1096.01422557 -369.29409468 1095.86795956 -390.27856445 1095.65966797 C-410.65770051 1095.45759579 -431.03632357 1095.30193832 -451.41625977 1095.20849609 C-452.67335649 1095.20271618 -453.93045322 1095.19693626 -455.22564379 1095.19098119 C-461.53240039 1095.16226948 -467.83916061 1095.13446811 -474.14592326 1095.10711932 C-526.4319186 1094.87920814 -578.71586713 1094.49186066 -631 1094 C-630.22179133 1090.6205323 -629.04033492 1088.01676083 -627.33203125 1084.984375 C-626.4978064 1083.49756226 -626.4978064 1083.49756226 -625.64672852 1081.98071289 C-625.04143311 1080.91457764 -624.4361377 1079.84844238 -623.8125 1078.75 C-623.184646 1077.63681396 -622.55679199 1076.52362793 -621.90991211 1075.37670898 C-616.54697604 1065.89739329 -611.0700557 1056.48571542 -605.5625 1047.08984375 C-601.8678669 1040.78429581 -598.21147319 1034.45705564 -594.5625 1028.125 C-593.93996338 1027.04484619 -593.31742676 1025.96469238 -592.67602539 1024.85180664 C-591.41423174 1022.66203666 -590.15259466 1020.47217645 -588.89111328 1018.28222656 C-585.76319852 1012.85340058 -582.63141552 1007.42680719 -579.5 1002 C-578.24998121 999.83334417 -576.99998122 997.6666775 -575.75 995.5 C-508.25 878.5 -508.25 878.5 -506.37524414 875.25048828 C-505.1243552 873.08223736 -503.87354148 870.91394303 -502.62280273 868.74560547 C-499.51201665 863.35282085 -496.39995762 857.96077907 -493.28515625 852.5703125 C-486.46497363 840.76370516 -479.6767674 828.93973 -472.92263794 817.09527588 C-467.76664555 808.05670572 -462.54679327 799.05722862 -457.28881836 790.07763672 C-452.80810273 782.41397178 -448.39518883 774.71286027 -444 767 C-438.72626598 757.74803445 -433.42192553 748.51516124 -428.0625 739.3125 C-427.46501953 738.28447266 -426.86753906 737.25644531 -426.25195312 736.19726562 C-425.70603516 735.26205078 -425.16011719 734.32683594 -424.59765625 733.36328125 C-424.11820557 732.54126221 -423.63875488 731.71924316 -423.14477539 730.87231445 C-422 729 -422 729 -421 728 C-418.77967304 727.89682864 -416.55599172 727.8659779 -414.33327389 727.8613348 C-413.62469147 727.85849258 -412.91610905 727.85565036 -412.18605444 727.85272202 C-409.78165327 727.84431653 -407.37729991 727.84310226 -404.97288513 727.84178162 C-403.24372955 727.83722024 -401.51457507 727.83222085 -399.78542191 727.82681805 C-395.01042426 727.81317916 -390.23543376 727.80580204 -385.46042168 727.79939139 C-380.31996003 727.79141258 -375.17951339 727.7777062 -370.0390625 727.76467896 C-361.12510585 727.74288032 -352.21114771 727.72474828 -343.29717827 727.70907402 C-330.4089154 727.68640615 -317.52066913 727.65825911 -304.63242031 727.62875474 C-283.72443661 727.58104093 -262.81644614 727.53778706 -241.90844727 727.49731445 C-221.59268669 727.45797877 -201.27693215 727.4165572 -180.96118164 727.37231445 C-179.70989322 727.36959018 -178.45860479 727.36686591 -177.16939854 727.36405908 C-170.89234324 727.35037992 -164.61528804 727.33665959 -158.33823287 727.32291877 C-106.22550114 727.2088945 -54.11275637 727.10209835 -2 727 C-4.04343701 723.31088012 -6.08817049 719.62248261 -8.1340332 715.93470764 C-8.82773676 714.68386086 -9.52110484 713.43282796 -10.21411133 712.18159485 C-14.81688556 703.87188417 -19.50813187 695.62608373 -24.36328125 687.4609375 C-27.68875802 681.85754155 -30.93494253 676.20842533 -34.1875 670.5625 C-34.82558594 669.45511475 -35.46367188 668.34772949 -36.12109375 667.20678711 C-37.42906691 664.93630921 -38.73684513 662.665719 -40.04443359 660.39501953 C-43.19332054 654.9283002 -46.34683264 649.46425113 -49.5 644 C-50.7500235 641.83334689 -52.00002347 639.66668021 -53.25 637.5 C-54.178125 635.89125 -54.178125 635.89125 -55.125 634.25 C-57 631 -58.875 627.75 -60.75 624.5 C-61.36866943 623.42766113 -61.98733887 622.35532227 -62.62475586 621.25048828 C-63.8756448 619.08223736 -65.12645852 616.91394303 -66.37719727 614.74560547 C-69.48798335 609.35282085 -72.60004238 603.96077907 -75.71484375 598.5703125 C-82.53502637 586.76370516 -89.3232326 574.93973 -96.07736206 563.09527588 C-101.23335445 554.05670572 -106.45320673 545.05722862 -111.71118164 536.07763672 C-116.53872836 527.82076358 -121.28548671 519.51905969 -126.02050781 511.20898438 C-130.63502852 503.11255782 -135.29103794 495.04198543 -140 487 C-145.0318979 478.4048271 -150.00389124 469.77687778 -154.9375 461.125 C-161.96603507 448.79974804 -169.04240434 436.50277933 -176.14111328 424.21777344 C-178.63787804 419.89581921 -181.13203673 415.57236408 -183.62597656 411.2487793 C-184.86600529 409.09908384 -186.10623657 406.9495052 -187.34667969 404.80004883 C-190.28222377 399.71313934 -193.21634732 394.62542411 -196.14590454 389.5350647 C-197.53328095 387.12456252 -198.92139624 384.71448624 -200.30957031 382.30444336 C-201.29173815 380.59856032 -202.27283385 378.89206014 -203.25390625 377.18554688 C-204.14335938 375.64157227 -204.14335938 375.64157227 -205.05078125 374.06640625 C-205.57325439 373.15834229 -206.09572754 372.25027832 -206.6340332 371.31469727 C-207.69977966 369.50873799 -208.83680752 367.74478871 -210 366 C-209.63270474 362.37965601 -207.72256317 359.43448786 -205.97265625 356.30078125 C-205.35068359 355.1830835 -204.72871094 354.06538574 -204.08789062 352.91381836 C-203.41302431 351.71323053 -202.73788811 350.51279437 -202.0625 349.3125 C-201.37027728 348.0750437 -200.67822106 346.83749424 -199.98632812 345.59985352 C-195.63305245 337.82899392 -191.18779536 330.1175416 -186.63671875 322.4609375 C-183.31124198 316.85754155 -180.06505747 311.20842533 -176.8125 305.5625 C-176.17441406 304.45511475 -175.53632813 303.34772949 -174.87890625 302.20678711 C-173.57093309 299.93630921 -172.26315487 297.665719 -170.95556641 295.39501953 C-167.80667946 289.9283002 -164.65316736 284.46425113 -161.5 279 C-160.2499765 276.83334689 -158.99997653 274.66668021 -157.75 272.5 C-94 162 -94 162 -30.25 51.5 C-29.63036377 50.42588867 -29.01072754 49.35177734 -28.37231445 48.24511719 C-27.13152967 46.09457457 -25.89048465 43.94418208 -24.64916992 41.79394531 C-21.72980526 36.73622187 -18.81303791 31.67705507 -15.90567017 26.61242676 C-14.53825234 24.23076498 -13.16932961 21.8499698 -11.80029297 19.46923828 C-10.83935447 17.79673979 -9.88058328 16.12299664 -8.921875 14.44921875 C-6.08870892 9.52386849 -3.2430177 4.66737039 0 0 Z " fill="#FF0000" transform="translate(665,34)"/>
<path d="M0 0 C33.99 0 67.98 0 103 0 C104.87820679 4.38248252 106.4735543 8.21428166 107.77978516 12.70385742 C108.10030853 13.79706299 108.42083191 14.89026855 108.75106812 16.01660156 C109.09360626 17.20092773 109.43614441 18.38525391 109.7890625 19.60546875 C110.16352051 20.88757686 110.5384219 22.16955555 110.91372681 23.45141602 C111.72544616 26.22640994 112.53464632 29.00212112 113.34191895 31.77841187 C115.34332383 38.6599105 117.35932528 45.53714059 119.37432861 52.41466713 C119.8518552 54.0447081 120.32922955 55.67479368 120.80645752 57.3049221 C126.301859 76.07534146 131.87982291 94.82094359 137.46785736 113.56395721 C139.82855124 121.48243792 142.18778721 129.40135318 144.546875 137.3203125 C144.8086491 138.19895588 145.0704232 139.07759926 145.34012985 139.98286819 C149.53546876 154.06580429 153.7171427 168.15275943 157.890625 182.2421875 C158.17095833 183.18856142 158.45129166 184.13493534 158.74011993 185.10998726 C161.45507432 194.27601015 164.16871855 203.44242038 166.88105392 212.6092186 C167.86662999 215.93986885 168.85256513 219.27041275 169.83855438 222.6009407 C170.51469891 224.88548378 171.19025587 227.17020004 171.86578369 229.45492554 C172.2705191 230.82225398 172.67528217 232.18957424 173.08007812 233.55688477 C173.42880981 234.73581802 173.7775415 235.91475128 174.13684082 237.12940979 C174.72802624 239.09550264 175.35076805 241.05230414 176 243 C180.99969993 228.60349369 185.3056093 214.01710796 189.56906128 199.38900757 C191.76368717 191.8595946 193.97243435 184.33431244 196.1796875 176.80859375 C196.52907411 175.61679095 196.52907411 175.61679095 196.88551903 174.40091133 C202.67775548 154.64572483 208.55599015 134.9162546 214.4375 115.1875 C216.54083115 108.13164941 218.64383143 101.07570037 220.74609375 94.01953125 C221.00501467 93.15052563 221.26393559 92.28152 221.53070259 91.38618088 C225.44527699 78.24560785 229.34054526 65.09941702 233.22265625 51.94921875 C233.72025008 50.26411427 234.21784427 48.5790099 234.71543884 46.89390564 C236.8311071 39.72806581 238.94540956 32.56182961 241.05535793 25.39430332 C241.90092299 22.52312778 242.74793259 19.6523798 243.59528923 16.78173256 C243.98617978 15.45615119 244.37638793 14.13036837 244.76587105 12.80437279 C245.29404878 11.00629214 245.82468726 9.20893485 246.35546875 7.41162109 C246.65090576 6.40811615 246.94634277 5.40461121 247.25073242 4.37069702 C248 2 248 2 249 0 C282.99 0 316.98 0 352 0 C352 116.49 352 232.98 352 353 C329.89 353 307.78 353 285 353 C284.505 227.27 284.505 227.27 284 99 C263.55611241 170.50548055 263.55611241 170.50548055 243.26049423 242.05253983 C240.45163742 251.99687815 237.6372993 261.93966838 234.82421875 271.8828125 C234.2233122 274.00698339 233.62240582 276.13115433 233.02149963 278.25532532 C223.77178359 310.95069795 223.77178359 310.95069795 219.20758057 326.97817993 C218.5354728 329.33980648 217.86450554 331.70175795 217.19476318 334.0640564 C216.31397316 337.16991187 215.42916646 340.27459024 214.54296875 343.37890625 C214.29352005 344.26170258 214.04407135 345.1444989 213.7870636 346.05404663 C212.11457948 351.88542052 212.11457948 351.88542052 211 353 C208.82194281 353.09429342 206.6407872 353.11742538 204.46069336 353.11352539 C203.77779739 353.11367142 203.09490143 353.11381744 202.39131165 353.1139679 C200.12412386 353.11326876 197.85701726 353.1054764 195.58984375 353.09765625 C194.02185613 353.09579207 192.45386793 353.09436817 190.88587952 353.09336853 C186.75123497 353.08954334 182.61662534 353.07971306 178.48199463 353.06866455 C174.26599602 353.05845044 170.04999178 353.05387091 165.83398438 353.04882812 C157.55597353 353.03809079 149.2779911 353.02101436 141 353 C135.21614834 334.47695439 129.94537684 315.81985396 124.70089722 297.13891602 C122.0625875 287.74174359 119.41424509 278.34739566 116.765625 268.953125 C116.49083754 267.97828156 116.21605007 267.00343811 115.93293571 265.99905396 C108.75657357 240.54530791 101.48423128 215.11902252 94.20242882 189.69527435 C85.74096151 160.14692935 77.37020907 130.5747387 69 101 C68.67 184.16 68.34 267.32 68 353 C45.56 353 23.12 353 0 353 C0 236.51 0 120.02 0 0 Z " fill="#000000" transform="translate(1413,363)"/>
<path d="M0 0 C185.27602924 0 185.27602924 0 201.375 4.3125 C202.21168213 4.5305127 203.04836426 4.74852539 203.91040039 4.97314453 C210.54626915 6.75940354 216.81896881 8.97450227 223 12 C224.05316406 12.50144531 225.10632812 13.00289063 226.19140625 13.51953125 C244.64097286 22.82055243 258.8243485 38.12935835 265.35546875 57.86328125 C272.6633449 82.84724774 270.57193767 109.30969532 258.05566406 132.19189453 C255.49993628 136.56925807 252.45056164 140.30706989 249 144 C248.25105469 144.83917969 247.50210938 145.67835938 246.73046875 146.54296875 C238.79485088 155.01702919 229.70019492 160.59878775 219 165 C221.79633634 166.86422423 224.64321543 168.32516857 227.64819336 169.81591797 C250.77018825 181.46183887 268.39954887 201.42430102 276.72363281 226.14941406 C284.80679633 251.86459327 283.75900314 279.90675123 271.33862305 304.14770508 C259.47004466 326.11170539 239.93682523 340.7063397 216.23828125 348.1875 C201.75369946 352.23663283 187.85901857 353.28994971 172.89916992 353.22705078 C170.97522394 353.22643696 169.05127751 353.22670705 167.12733173 353.2277813 C162.01055115 353.22822978 156.89386556 353.21670244 151.77710724 353.20256042 C146.96228257 353.191106 142.14748012 353.19063069 137.3326416 353.18920898 C123.28424866 353.17874611 109.2358731 353.15082359 95.1875 353.125 C63.775625 353.08375 32.36375 353.0425 0 353 C0 236.51 0 120.02 0 0 Z M71 57 C71 85.05 71 113.1 71 142 C87.28514076 142.08733368 87.28514076 142.08733368 103.5703125 142.14648438 C110.21752148 142.16438119 116.86460586 142.18549792 123.51171875 142.22631836 C128.87392666 142.25904006 134.23600084 142.27688001 139.59830093 142.28463173 C141.63871489 142.29015229 143.67912196 142.30093236 145.71947861 142.31719017 C148.5890225 142.33913479 151.45802172 142.34195984 154.32763672 142.34057617 C155.16130264 142.351362 155.99496857 142.36214783 156.85389709 142.3732605 C169.03077198 142.31019422 179.55089684 137.49208444 188.3125 129.125 C191.82885274 125.38887521 194.67298154 121.57470675 197 117 C197.47953125 116.07380859 197.47953125 116.07380859 197.96875 115.12890625 C201.66466018 106.35111957 201.72012793 93.49298813 198.5 84.5625 C192.69020938 72.71789166 184.29384772 63.90861433 172 59 C166.39027867 57.08526413 161.4797668 56.72323239 155.57641602 56.77294922 C154.19962929 56.77251114 154.19962929 56.77251114 152.79502869 56.77206421 C149.78122282 56.77345017 146.76766858 56.78897676 143.75390625 56.8046875 C141.65640905 56.80842024 139.5589101 56.81126598 137.46141052 56.81326294 C131.95573058 56.82087885 126.45015709 56.84050979 120.94451904 56.8626709 C114.33066253 56.88678162 107.71677032 56.89592003 101.10288239 56.90757751 C91.06851435 56.92693535 81.03437963 56.96527229 71 57 Z M71 198 C71 231.33 71 264.66 71 299 C93.15125 299.0928125 93.15125 299.0928125 115.75 299.1875 C122.7123877 299.22846802 122.7123877 299.22846802 129.81542969 299.27026367 C134.02114537 299.28030459 134.02114537 299.28030459 138.22686768 299.28633118 C140.0821957 299.29090069 141.93751552 299.30137358 143.79278564 299.31672668 C162.83371919 299.46625179 179.37428164 297.29081909 193.74609375 283.47265625 C204.0686721 272.14823321 207.91774125 259.14777274 207.31640625 244.08203125 C206.49241145 231.36179615 201.79119425 219.57849584 192.3046875 210.84375 C176.67019114 198.33615291 159.67366665 197.3958036 140.53125 197.609375 C138.74056499 197.61527478 136.94987302 197.61934397 135.15917969 197.62158203 C128.60601285 197.64233765 122.05299483 197.69818136 115.5 197.75 C100.815 197.8325 86.13 197.915 71 198 Z " fill="#000000" transform="translate(2733,363)"/>
<path d="M0 0 C44.055 -0.12375 44.055 -0.12375 89 -0.25 C98.23097656 -0.28641602 107.46195313 -0.32283203 116.97265625 -0.36035156 C128.35351562 -0.37841797 128.35351562 -0.37841797 133.70239258 -0.3817749 C137.39227162 -0.38546131 141.08191418 -0.40028739 144.77172852 -0.42230225 C184.4161494 -0.64832652 222.166262 1.77117496 252.6875 30.1875 C270.7286386 48.94897444 277.42043616 74.96889054 277.30029297 100.39599609 C276.82978637 122.76413416 269.58057399 144.44050332 254.109375 161.01171875 C244.11381467 170.43345987 231.0320312 181.00696678 217 183 C217 183.66 217 184.32 217 185 C218.07701172 185.16822266 218.07701172 185.16822266 219.17578125 185.33984375 C233.29415057 188.63998817 245.97354109 201.26951627 253.94140625 212.8125 C260.11457245 222.83889521 263.76602493 233.19077686 265.52734375 244.76171875 C265.65501633 245.58673889 265.7826889 246.41175903 265.91423035 247.26177979 C267.12953343 255.39102432 267.88817351 263.54333649 268.59280396 271.72982788 C269.92078375 286.96331854 271.70829989 302.07845997 274.0625 317.1875 C274.18638092 317.98957886 274.31026184 318.79165771 274.43789673 319.61804199 C275.82669294 328.54438884 277.41598395 337.36760295 279.44702148 346.1730957 C280 349 280 349 280 353 C255.91 353 231.82 353 207 353 C203.5537639 338.06631022 203.5537639 338.06631022 202.9375 331.4375 C202.86116333 330.69092133 202.78482666 329.94434265 202.70617676 329.17514038 C202.5457859 327.5957076 202.38912434 326.01589193 202.23608398 324.43572998 C201.99420096 321.94017006 201.74147159 319.44589713 201.48632812 316.95166016 C200.7000049 309.2284467 199.95062661 301.50197827 199.21875 293.7734375 C196.85434802 258.89991923 196.85434802 258.89991923 179 230 C150.20759962 206.33430401 106.2177903 214.48849692 73 214 C73 259.87 73 305.74 73 353 C48.91 353 24.82 353 0 353 C0 236.51 0 120.02 0 0 Z M74 62 C74 93.35 74 124.7 74 157 C95.90375 157.0928125 95.90375 157.0928125 118.25 157.1875 C125.13407715 157.22846802 125.13407715 157.22846802 132.15722656 157.27026367 C136.31637238 157.28030472 136.31637238 157.28030472 140.4755249 157.28633118 C142.31001985 157.29090008 144.1445065 157.30137167 145.97894287 157.31672668 C163.7821054 157.45813453 178.30142275 155.90810065 191.86328125 143.29296875 C201.37183638 133.08908966 206.38257215 119.89679748 206.21484375 106.03125 C205.32531532 93.48081257 200.30926535 82.45688191 191.73046875 73.33203125 C182.37093875 65.33826958 170.73895676 61.67063421 158.57641602 61.77294922 C157.17753222 61.77258761 157.17753222 61.77258761 155.75038815 61.7722187 C152.75146154 61.77370358 149.75278799 61.78889839 146.75390625 61.8046875 C144.89449178 61.80763049 143.03507564 61.80966936 141.17565918 61.81079102 C134.30458074 61.82124863 127.43353785 61.84917118 120.5625 61.875 C105.196875 61.91625 89.83125 61.9575 74 62 Z " fill="#000000" transform="translate(2791,774)"/>
<path d="M0 0 C86.46 0 172.92 0 262 0 C262 20.46 262 40.92 262 62 C199.3 62 136.6 62 72 62 C72 86.42 72 110.84 72 136 C127.77 136 183.54 136 241 136 C241 156.46 241 176.92 241 198 C185.23 198 129.46 198 72 198 C72 228.69 72 259.38 72 291 C136.35 291 200.7 291 267 291 C267 311.79 267 332.58 267 354 C178.89 354 90.78 354 0 354 C0 237.18 0 120.36 0 0 Z " fill="#000000" transform="translate(1413,774)"/>
<path d="M0 0 C86.13 0 172.26 0 261 0 C261 20.46 261 40.92 261 62 C198.63 62 136.26 62 72 62 C72 86.42 72 110.84 72 136 C127.44 136 182.88 136 240 136 C240 156.46 240 176.92 240 198 C184.56 198 129.12 198 72 198 C72 228.69 72 259.38 72 291 C92.98916016 290.98259766 92.98916016 290.98259766 114.40234375 290.96484375 C123.23893247 290.95973744 132.07552014 290.95488245 140.91210938 290.95117188 C154.9543494 290.94522821 168.99658344 290.93822467 183.03881836 290.92456055 C193.26371835 290.91461568 203.48861351 290.90814705 213.7135182 290.90591151 C219.13110519 290.90460406 224.54867834 290.90151609 229.96626091 290.89426994 C235.05918322 290.88751284 240.15208592 290.8853824 245.24501228 290.88689232 C247.11999747 290.88661585 248.99498327 290.8846089 250.8699646 290.88079453 C253.41825272 290.87586211 255.9664656 290.87700003 258.51475525 290.87974548 C259.26668638 290.87683264 260.0186175 290.8739198 260.79333442 290.87091869 C265.88587879 290.88587879 265.88587879 290.88587879 267 292 C267.09915795 293.89698849 267.12799314 295.79768787 267.12939453 297.69726562 C267.13254669 298.91522827 267.13569885 300.13319092 267.13894653 301.38806152 C267.13715675 302.72745805 267.1351058 304.06685424 267.1328125 305.40625 C267.1334856 306.7700604 267.13445567 308.13387068 267.13571167 309.49768066 C267.13718838 312.35930521 267.13503497 315.2208986 267.13037109 318.08251953 C267.12467381 321.75818614 267.12795296 325.43377974 267.13394356 329.10944366 C267.13754991 331.92662104 267.13641025 334.74378098 267.13381577 337.56095886 C267.1331467 338.91660063 267.13397421 340.27224396 267.13629532 341.62788391 C267.13882301 343.51950044 267.13429014 345.41112249 267.12939453 347.30273438 C267.12820114 348.92036682 267.12820114 348.92036682 267.12698364 350.57067871 C267 353 267 353 266 354 C264.57692835 354.09659172 263.14907742 354.12371842 261.72273159 354.12304783 C260.7938645 354.1250387 259.86499741 354.12702957 258.90798283 354.12908077 C257.87619624 354.12616811 256.84440966 354.12325544 255.78135681 354.12025452 C254.69691284 354.12111053 253.61246887 354.12196655 252.49516296 354.12284851 C248.81959432 354.12451464 245.1440704 354.11896242 241.46850586 354.11352539 C238.80510896 354.11321932 236.14171479 354.11330761 233.47831821 354.11389065 C227.04580396 354.11442359 220.61330361 354.1097938 214.18079293 354.10338932 C206.74459136 354.09620628 199.3083982 354.0953955 191.87219238 354.09460449 C172.22729271 354.08934816 152.58239615 354.07538713 132.9375 354.0625 C89.068125 354.041875 45.19875 354.02125 0 354 C0 237.18 0 120.36 0 0 Z " fill="#000000" transform="translate(1960,774)"/>
<path d="M0 0 C7.62174513 6.94342738 14.70458299 14.08789957 20 23 C20.3501416 23.58168945 20.7002832 24.16337891 21.06103516 24.76269531 C31.49388815 42.35674395 37 61.46265378 37 82 C13.9 82 -9.2 82 -33 82 C-34.32 75.4 -35.64 68.8 -37 62 C-43.45937642 47.74062186 -51.47815252 39.51892191 -66.20703125 33.7421875 C-90.30835299 25.87355767 -117.24150018 27.02939639 -139.95703125 38.4921875 C-148.76985929 43.53153377 -155.86525882 51.46447336 -158.59765625 61.4296875 C-160.36176791 72.69944939 -159.58390764 82.97204091 -153.29296875 92.6171875 C-134.62677003 116.10162107 -92.04553137 117.61479491 -64.73828125 122.8125 C-35.7309955 128.35419041 -8.14813653 135.84292149 15 155 C15.69867187 155.53625 16.39734375 156.0725 17.1171875 156.625 C35.36063882 171.27837455 44.9106283 194.36900214 47.48266602 217.12060547 C50.17412007 244.28368855 44.02794793 272.41991769 27.1875 294.3125 C25.82086708 295.90060308 24.42257611 297.46180816 23 299 C22.56848633 299.47244141 22.13697266 299.94488281 21.69238281 300.43164062 C-3.05613549 327.26406339 -39.48427876 339.50431456 -75.38183594 341.10629272 C-77.77969929 341.16259251 -80.17573426 341.19020406 -82.57421875 341.203125 C-83.45269974 341.21013931 -84.33118073 341.21715363 -85.23628235 341.22438049 C-88.05340774 341.24177275 -90.87032291 341.24823192 -93.6875 341.25 C-94.64986572 341.25067474 -95.61223145 341.25134949 -96.60375977 341.25204468 C-134.15929466 341.21018242 -171.21006811 334.27965547 -201 310 C-201.78890625 309.37609375 -202.5778125 308.7521875 -203.390625 308.109375 C-224.11233454 290.86543489 -234.19278699 264.7965681 -237.58984375 238.7109375 C-238.04423604 233.49191743 -238 228.23876348 -238 223 C-215.23 223 -192.46 223 -169 223 C-168.01 228.94 -167.02 234.88 -166 241 C-159.444958 256.7321008 -149.81714575 267.8904191 -134.0625 274.75 C-109.56037055 284.32409686 -80.75547541 283.91773461 -56.3125 274.1875 C-44.70007749 268.74928805 -34.74969248 260.155127 -30 248 C-26.9582455 238.46644729 -28.51852465 227.75483266 -33 219 C-38.00565716 210.70532316 -44.93062785 204.99007694 -53.6875 201 C-54.42387695 200.66242676 -55.16025391 200.32485352 -55.91894531 199.97705078 C-74.77546134 191.61703853 -95.20282036 188.29913709 -115.31884766 184.34814453 C-135.00178316 180.46371372 -153.89229699 175.81204345 -172 167 C-172.63776367 166.69336426 -173.27552734 166.38672852 -173.93261719 166.07080078 C-199.01750348 153.85758885 -218.50981407 134.51759348 -228 108 C-236.07799504 81.23174192 -233.37354975 53.15456061 -220.75 28.375 C-212.0621965 12.79686959 -198.97536219 0.44894797 -184 -9 C-182.41638672 -10.01707031 -182.41638672 -10.01707031 -180.80078125 -11.0546875 C-129.21694461 -42.43231121 -46.21078402 -41.37780944 0 0 Z " fill="#000000" transform="translate(3357,384)"/>
<path d="M0 0 C16.99625276 15.81832228 27.3377562 36.7503728 31.5625 59.4375 C31.6867334 60.09814453 31.8109668 60.75878906 31.93896484 61.43945312 C32.92731296 67.36662204 32.75 72.46196196 32.75 78.6875 C9.65 78.6875 -13.45 78.6875 -37.25 78.6875 C-38.24 72.7475 -39.23 66.8075 -40.25 60.6875 C-46.51285013 46.30614044 -53.5562407 37.08748041 -68.3125 30.9375 C-90.16403041 23.16635714 -115.99720262 23.15042115 -137.45703125 32.31640625 C-147.85439181 37.42056507 -156.66566302 44.722738 -160.5625 55.9609375 C-163.19843852 66.41483006 -162.79528745 76.42702315 -158.02734375 86.19140625 C-148.20449486 102.36216863 -128.62976401 106.56754714 -111.51113892 110.90963745 C-99.77484137 113.70903562 -87.84411467 115.6980359 -75.97875977 117.86474609 C-38.15994939 124.80539848 4.14102013 135.03730812 27.42773438 168.70263672 C43.0037253 192.51567276 47.64352448 220.89329925 42.15869141 248.80493164 C36.33495927 275.3284442 21.82585691 298.63244417 -1.03076172 313.65258789 C-16.43736426 323.39603287 -32.86158829 330.02745928 -50.6875 333.875 C-51.40131836 334.0299292 -52.11513672 334.1848584 -52.85058594 334.34448242 C-67.67390587 337.35536684 -82.23530367 338.06162701 -97.3125 338 C-98.26120972 337.99784485 -99.20991943 337.9956897 -100.18737793 337.99346924 C-114.37638247 337.94176309 -128.31676535 337.62846153 -142.25 334.6875 C-143.66949951 334.38948486 -143.66949951 334.38948486 -145.11767578 334.08544922 C-166.70739826 329.36280797 -187.22017391 321.07424902 -204.25 306.6875 C-205.48556641 305.65302734 -205.48556641 305.65302734 -206.74609375 304.59765625 C-216.99572104 295.72088619 -223.95396878 285.57397273 -230.25 273.6875 C-230.9615625 272.36492187 -230.9615625 272.36492187 -231.6875 271.015625 C-239.72083946 254.84852934 -241.25 237.49705881 -241.25 219.6875 C-218.81 219.6875 -196.37 219.6875 -173.25 219.6875 C-171.93 226.2875 -170.61 232.8875 -169.25 239.6875 C-162.13599131 255.42040383 -152.09322854 265.81941566 -136 272.5 C-111.1001864 281.19144437 -81.42312472 280.48326444 -57.25 269.6875 C-47.2180561 264.5163949 -37.8767585 256.73777981 -34.25 245.6875 C-31.07458853 232.96931551 -32.60299084 222.91583239 -39.25 211.6875 C-49.0821267 196.02892785 -73.5486436 190.88565235 -90.25 186.6875 C-99.43761138 184.58869504 -108.70581147 182.86042381 -117.9597168 181.08300781 C-148.77131191 175.13199294 -180.52248467 166.40481736 -204.25 144.6875 C-205.17425781 143.85605469 -206.09851562 143.02460937 -207.05078125 142.16796875 C-225.19908859 125.02371714 -234.47730266 101.46897119 -235.4375 76.671875 C-236.1122158 47.71503056 -225.88199479 22.97643593 -206.125 2.0625 C-153.22810992 -49.04884105 -54.01622636 -48.25704745 0 0 Z " fill="#000000" transform="translate(2367.25,387.3125)"/>
<path d="M0 0 C23.43 0 46.86 0 71 0 C71 45.21 71 90.42 71 137 C117.2 137 163.4 137 211 137 C211 91.79 211 46.58 211 0 C234.1 0 257.2 0 281 0 C281 116.49 281 232.98 281 353 C257.9 353 234.8 353 211 353 C211 302.18 211 251.36 211 199 C164.8 199 118.6 199 71 199 C71 249.82 71 300.64 71 353 C47.57 353 24.14 353 0 353 C0 236.51 0 120.02 0 0 Z " fill="#000000" transform="translate(3423,363)"/>
<path d="M0 0 C23.1 0 46.2 0 70 0 C70.01458252 7.75798096 70.02916504 15.51596191 70.04418945 23.5090332 C70.09298355 48.3531634 70.15640282 73.1972357 70.22898628 98.04130711 C70.24025397 101.90261913 70.2513925 105.76393152 70.26245117 109.62524414 C70.26465486 110.39393734 70.26685854 111.16263053 70.269129 111.95461746 C70.30446738 124.38877265 70.32935102 136.82292778 70.35034702 149.25711451 C70.37213666 162.0229578 70.40521705 174.78873612 70.44870156 187.55452412 C70.47516387 195.4268765 70.49289911 203.29914798 70.49934604 211.17154261 C70.50524109 217.21584743 70.52687189 223.2599933 70.55427551 229.30424309 C70.56305211 231.77811024 70.56677911 234.2520014 70.56500816 236.72588348 C70.56335005 240.11164085 70.58010139 243.49684175 70.60127258 246.88252258 C70.59642501 247.85434599 70.59157743 248.82616939 70.58658296 249.82744199 C70.72443431 263.24761147 75.27090413 276.25844605 84.375 286.25 C99.88233002 300.77496522 122.15489602 304.23034433 142.64794922 303.96582031 C162.44220007 303.06274862 181.19045562 297.16955015 195.06640625 282.3515625 C204.45338008 270.93548524 207.14370329 259.0624418 207.15821838 244.59768677 C207.16315636 243.55125437 207.16809434 242.50482197 207.17318195 241.42667949 C207.18853637 237.92133608 207.19691204 234.41601097 207.20532227 230.91064453 C207.2149024 228.39747456 207.22491256 225.8843062 207.23532104 223.37113953 C207.25675968 217.96098494 207.27520678 212.55083332 207.29092598 207.14065933 C207.31365836 199.3185009 207.34179647 191.49636923 207.37124526 183.67423354 C207.41887993 170.98270398 207.46215526 158.29116346 207.50268555 145.59960938 C207.54206148 133.27245227 207.58349272 120.94530488 207.62768555 108.61816406 C207.63177196 107.47800277 207.63177196 107.47800277 207.63594092 106.31480791 C207.64962074 102.50149342 207.66334095 98.68817908 207.67708123 94.87486482 C207.79098119 63.24992899 207.89700108 31.62497367 208 0 C231.76 0 255.52 0 280 0 C280.04416292 32.06873149 280.08106346 64.13743326 280.10213066 96.20618605 C280.10463181 99.99968073 280.10722048 103.79317534 280.10986328 107.58666992 C280.11065021 108.71940523 280.11065021 108.71940523 280.11145304 109.87502409 C280.12013502 122.07235151 280.13589273 134.26965992 280.15430559 146.4669761 C280.17306626 159.00002454 280.18412971 171.53306307 280.18817699 184.06612498 C280.19090931 191.78799411 280.19951156 199.50980947 280.21583293 207.23166204 C280.22774157 213.17151388 280.22889589 219.11133871 280.22621536 225.05120277 C280.22676208 227.47418929 280.23069317 229.89717799 280.23841095 232.32015228 C280.28794214 248.68366931 280.17450351 264.93582238 275.6875 280.8125 C275.46876221 281.60744873 275.25002441 282.40239746 275.0246582 283.22143555 C269.87991854 301.38205298 261.34585845 315.83969398 248 329 C246.90751953 330.10794922 246.90751953 330.10794922 245.79296875 331.23828125 C214.36154122 361.22734882 166.82337671 364.10147734 125.85908508 363.23306274 C93.12450035 362.34813523 57.79225951 354.66612394 33 332 C32.14792969 331.24074219 31.29585937 330.48148438 30.41796875 329.69921875 C17.29549328 317.38303978 8.85250445 300.79671005 4.1875 283.5625 C3.9925293 282.84876221 3.79755859 282.13502441 3.59667969 281.3996582 C-0.44634173 265.27570373 -0.27869402 249.00129948 -0.22705078 232.5 C-0.22648569 229.95580042 -0.22680513 227.41160051 -0.22793579 224.86740112 C-0.22838873 219.42083287 -0.22277887 213.97432651 -0.21146011 208.527771 C-0.19510652 200.65327912 -0.1899871 192.77881033 -0.18748413 184.90430331 C-0.18312237 172.1240145 -0.16985481 159.34375143 -0.15087891 146.56347656 C-0.13248057 134.15918098 -0.11834349 121.75489243 -0.10986328 109.35058594 C-0.10933783 108.58414465 -0.10881239 107.81770337 -0.10827102 107.02803659 C-0.10566067 103.18247641 -0.10313332 99.33691617 -0.10064721 95.4913559 C-0.07996208 63.66088111 -0.04311811 31.83045427 0 0 Z " fill="#000000" transform="translate(2429,363)"/>
<path d="M0 0 C24.11434193 21.64365779 39.88051108 52.07373378 44.45776367 84.11450195 C19.37776367 84.11450195 -5.70223633 84.11450195 -31.54223633 84.11450195 C-33.85223633 77.84450195 -36.16223633 71.57450195 -38.54223633 65.11450195 C-48.77785421 46.4592629 -62.27618683 33.95805638 -82.60083008 27.0793457 C-104.97244575 21.19207842 -127.8967392 24.79467213 -147.78393555 36.06323242 C-169.81129543 49.23315906 -183.1806796 74.90417157 -189.54223633 99.11450195 C-192.35223321 111.07053228 -194.64993484 123.05725261 -194.78051758 135.36450195 C-194.79026611 136.13200775 -194.80001465 136.89951355 -194.81005859 137.6902771 C-195.21122897 177.48487414 -188.62264735 216.54117698 -160.35473633 246.80200195 C-145.04113004 261.50199684 -125.10165253 268.64173812 -104.06567383 268.46801758 C-82.92718252 267.90752728 -65.31720657 260.20959655 -50.54223633 245.11450195 C-45.91739934 239.68410935 -42.58807583 233.55975709 -39.35473633 227.23950195 C-38.87302979 226.30448853 -38.87302979 226.30448853 -38.3815918 225.35058594 C-35.42272796 219.35104989 -33.71605266 213.63595095 -31.54223633 207.11450195 C-6.46223633 207.11450195 18.61776367 207.11450195 44.45776367 207.11450195 C40.90768737 227.231601 40.90768737 227.231601 38.83276367 233.98950195 C38.58187988 234.81192383 38.33099609 235.6343457 38.07250977 236.48168945 C27.13391714 270.75376951 2.95618078 299.00014075 -28.86743164 315.54321289 C-45.79629874 323.89693447 -63.91298938 328.5318109 -82.54223633 331.11450195 C-83.59604492 331.26701416 -83.59604492 331.26701416 -84.67114258 331.42260742 C-125.32550428 336.68254675 -169.46486487 328.08877086 -202.79223633 303.67700195 C-208.29409539 299.4156151 -213.48634042 294.89358553 -218.54223633 290.11450195 C-219.35305664 289.36813477 -220.16387695 288.62176758 -220.99926758 287.8527832 C-255.39106375 255.0857963 -270.09642956 203.99624694 -271.65405273 157.7980957 C-272.30054769 119.75046207 -267.40063038 82.59538711 -250.54223633 48.11450195 C-250.2199707 47.4507959 -249.89770508 46.78708984 -249.56567383 46.10327148 C-242.78832837 32.32473531 -234.18638646 20.19346214 -223.54223633 9.11450195 C-222.65020508 8.15930664 -221.75817383 7.20411133 -220.83911133 6.2199707 C-197.84925019 -17.98173484 -167.15345671 -30.81744084 -134.54223633 -35.88549805 C-133.89222656 -35.98862305 -133.2422168 -36.09174805 -132.57250977 -36.19799805 C-85.70415198 -42.51023479 -35.94553293 -31.41560045 0 0 Z " fill="#000000" transform="translate(2492.542236328125,802.885498046875)"/>
<path d="M0 0 C0.79664062 0.70640625 1.59328125 1.4128125 2.4140625 2.140625 C3.19007813 2.78515625 3.96609375 3.4296875 4.765625 4.09375 C10.77522612 9.17403136 15.62730407 14.91186626 20.4140625 21.140625 C21.10628906 22.04039062 21.79851563 22.94015625 22.51171875 23.8671875 C35.54099966 41.28977123 48.4140625 65.76264603 48.4140625 88.140625 C23.9940625 88.140625 -0.4259375 88.140625 -25.5859375 88.140625 C-28.2259375 81.870625 -30.8659375 75.600625 -33.5859375 69.140625 C-40.25561735 56.17879434 -48.93728842 45.66910093 -61.5859375 38.140625 C-62.34003906 37.68171875 -63.09414062 37.2228125 -63.87109375 36.75 C-80.58322192 27.48718439 -102.75764981 26.17914751 -121.1484375 30.640625 C-133.6495316 34.35822785 -144.94407587 40.32623657 -154.5859375 49.140625 C-155.194375 49.66914062 -155.8028125 50.19765625 -156.4296875 50.7421875 C-181.32478097 73.7135692 -189.08865676 112.20143622 -190.69970703 144.41552734 C-192.04326659 181.50284134 -182.58525432 219.32954537 -158.21875 247.91796875 C-144.61139437 262.39530285 -125.62380463 271.4962612 -105.7421875 272.42578125 C-83.5137747 273.01967014 -64.54493208 267.04159439 -48.06640625 251.73828125 C-37.01435818 240.16408917 -31.4452421 225.78888649 -25.5859375 211.140625 C-0.8359375 211.140625 23.9140625 211.140625 49.4140625 211.140625 C46.6543855 241.49707203 33.97647655 268.76120823 13.4140625 291.140625 C12.62515625 292.01203125 11.83625 292.8834375 11.0234375 293.78125 C-10.6218334 316.57329022 -40.17798198 328.57456423 -70.5859375 334.140625 C-71.29041016 334.27194824 -71.99488281 334.40327148 -72.72070312 334.53857422 C-114.1120192 341.83630131 -159.66743268 333.77191337 -194.5859375 310.140625 C-201.6769784 304.98621292 -208.16794397 299.10096874 -214.5859375 293.140625 C-215.49279297 292.31498047 -215.49279297 292.31498047 -216.41796875 291.47265625 C-225.86423119 282.51308649 -233.12975196 271.35399989 -239.5859375 260.140625 C-240.24335938 259.01398438 -240.90078125 257.88734375 -241.578125 256.7265625 C-254.86884691 233.32235109 -261.54834809 206.72928605 -264.5859375 180.140625 C-264.6802002 179.34293701 -264.77446289 178.54524902 -264.87158203 177.72338867 C-270.32234724 125.98987378 -261.41319408 67.32101768 -229.0859375 25.2109375 C-224.80954793 19.95899656 -220.28550887 15.01425456 -215.5859375 10.140625 C-214.87050781 9.36203125 -214.15507812 8.5834375 -213.41796875 7.78125 C-191.57981313 -15.32704225 -160.40826671 -27.06932649 -129.5859375 -31.859375 C-128.93592773 -31.9625 -128.28591797 -32.065625 -127.61621094 -32.171875 C-84.10063995 -38.03255796 -33.91407777 -29.30340254 0 0 Z " fill="#000000" transform="translate(3442.5859375,798.859375)"/>
<path d="M0 0 C81.18 0 162.36 0 246 0 C246 20.46 246 40.92 246 62 C217.29 62 188.58 62 159 62 C159 158.36 159 254.72 159 354 C134.91 354 110.82 354 86 354 C86 257.64 86 161.28 86 62 C57.62 62 29.24 62 0 62 C0 41.54 0 21.08 0 0 Z " fill="#000000" transform="translate(2530,774)"/>
<path d="M0 0 C81.18 0 162.36 0 246 0 C246 20.46 246 40.92 246 62 C217.62 62 189.24 62 160 62 C160 158.03 160 254.06 160 353 C135.91 353 111.82 353 87 353 C87 256.97 87 160.94 87 62 C58.29 62 29.58 62 0 62 C0 41.54 0 21.08 0 0 Z " fill="#000000" transform="translate(1882,363)"/>
<path d="M0 0 C23.76 0 47.52 0 72 0 C72 96.03 72 192.06 72 291 C126.78 291 181.56 291 238 291 C238 311.79 238 332.58 238 354 C159.46 354 80.92 354 0 354 C0 237.18 0 120.36 0 0 Z " fill="#000000" transform="translate(1702,774)"/>
<path d="M0 0 C23.76 0 47.52 0 72 0 C72 116.82 72 233.64 72 354 C48.24 354 24.48 354 0 354 C0 237.18 0 120.36 0 0 Z " fill="#000000" transform="translate(3088,774)"/>
<path d="M0 0 C23.76 0 47.52 0 72 0 C72 116.49 72 232.98 72 353 C48.24 353 24.48 353 0 353 C0 236.51 0 120.02 0 0 Z " fill="#000000" transform="translate(3733,363)"/>
<path d="M0 0 C23.76 0 47.52 0 72 0 C72 116.49 72 232.98 72 353 C48.24 353 24.48 353 0 353 C0 236.51 0 120.02 0 0 Z " fill="#000000" transform="translate(3030,363)"/>
<path d="M0 0 C23.76 0 47.52 0 72 0 C72 116.49 72 232.98 72 353 C48.24 353 24.48 353 0 353 C0 236.51 0 120.02 0 0 Z " fill="#000000" transform="translate(1792,363)"/>
</svg>
