<?xml version="1.0" encoding="UTF-8"?>
<svg version="1.1" xmlns="http://www.w3.org/2000/svg" width="873" height="706">
<path d="M0 0 C0.23485107 0.73186523 0.46970215 1.46373047 0.71166992 2.21777344 C8.65566092 26.71412526 18.60026453 49.78417501 31.30615234 72.25170898 C32.01312256 73.50383179 32.01312256 73.50383179 32.734375 74.78125 C33.14913086 75.50376953 33.56388672 76.22628906 33.99121094 76.97070312 C34.98844017 78.97674606 35.54843801 80.81232367 36 83 C36.94617188 83.10812012 37.89234375 83.21624023 38.8671875 83.32763672 C49.31835209 84.55719534 59.65361678 86.2111285 70 88.125 C70.81682251 88.27550812 71.63364502 88.42601624 72.47521973 88.58108521 C112.62746783 96.03225327 152.80649216 106.68559906 189 126 C190.48113281 126.76570313 190.48113281 126.76570313 191.9921875 127.546875 C207.29284785 135.60897932 220.36808739 146.28439193 233 158 C233.59167969 158.53753906 234.18335938 159.07507813 234.79296875 159.62890625 C244.45174194 168.78294545 253.1807699 180.60094129 260 192 C260 192.99 260 193.98 260 195 C258.70811768 195.24524414 257.41623535 195.49048828 256.08520508 195.74316406 C251.34536605 196.6436842 246.60618992 197.54764965 241.86724854 198.45288086 C240.0809127 198.79374372 238.29443776 199.13387937 236.50775146 199.47290039 C191.5345447 208.00966095 146.88638648 219.00402371 102.96362305 231.90185547 C102.23211533 232.11530609 101.5006076 232.32875671 100.74693298 232.54867554 C98.83582907 233.10824445 96.92707407 233.67581916 95.01855469 234.24414062 C92 235 92 235 88 235 C88.08564209 235.56807373 88.17128418 236.13614746 88.25952148 236.72143555 C88.65693005 239.37610333 89.0472192 242.03177531 89.4375 244.6875 C89.57220703 245.58017578 89.70691406 246.47285156 89.84570312 247.39257812 C97.00625574 296.46856067 91.20494683 350.01441653 76 397 C75.54584717 398.41394043 75.54584717 398.41394043 75.08251953 399.85644531 C68.1628898 421.15381283 59.25572939 441.58683403 49.5625 461.75 C49.26349792 462.37400696 48.96449585 462.99801392 48.65643311 463.64093018 C47.79889178 465.42487859 46.93278921 467.20470378 46.06640625 468.984375 C45.3230603 470.51143066 45.3230603 470.51143066 44.56469727 472.06933594 C39.98413537 480.64868763 39.98413537 480.64868763 36.9140625 481.74462891 C36.15867187 481.73866699 35.40328125 481.73270508 34.625 481.7265625 C33.74175049 481.72833496 32.85850098 481.73010742 31.94848633 481.73193359 C30.4889856 481.67900146 30.4889856 481.67900146 29 481.625 C27.95674561 481.6038916 26.91349121 481.5827832 25.83862305 481.56103516 C-37.73819937 479.53690813 -120.65462525 468.36598621 -166.59765625 420.28125 C-176.95930765 408.2416684 -181.02346833 396.80812689 -180.21777344 381.16699219 C-178.03605782 359.45745429 -156.05421111 339.83374173 -140.15234375 326.63671875 C-138.32541507 325.1489667 -136.49477729 323.6657558 -134.66015625 322.1875 C-131.20115972 319.34309757 -127.88675945 316.35707256 -124.58203125 313.3359375 C-123.20620455 312.09124103 -121.82495741 310.85169069 -120.40942383 309.65234375 C-113.92975206 304.13348353 -107.94210352 298.12819769 -101.92797852 292.11328125 C-100.07522532 290.26271033 -98.21461294 288.42029924 -96.35351562 286.578125 C-89.43557993 279.69240146 -83.03467036 272.6821577 -77 265 C-75.73213212 263.47669359 -74.46170337 261.95551092 -73.1875 260.4375 C-50.11546197 231.3906314 -34.55188715 197.59216907 -38.50390625 159.86328125 C-42.40620698 127.04712971 -59.67129194 105.11402597 -82.40283203 82.46679688 C-84.13300972 80.74201526 -85.85772763 79.01190195 -87.58203125 77.28125 C-92.88901592 71.97178572 -98.23762237 66.8192978 -104 62 C-106.32777497 59.07150891 -106.94574199 57.32554805 -107.5625 53.625 C-106.59000913 47.35783659 -103.03796215 44.4956238 -98.15234375 40.91015625 C-94.52988591 38.44565678 -90.78691877 36.2010676 -87 34 C-85.99308105 33.41412109 -85.99308105 33.41412109 -84.96582031 32.81640625 C-63.77160186 20.69406846 -25.22538871 -0.56056419 0 0 Z M-12.95703125 8.67578125 C-13.99474419 9.09773521 -13.99474419 9.09773521 -15.05342102 9.5282135 C-17.3093486 10.44940976 -19.56119469 11.38006905 -21.8125 12.3125 C-22.5745575 12.62624573 -23.33661499 12.93999146 -24.12176514 13.26324463 C-37.05693943 18.59983451 -49.64096091 24.42291981 -62 31 C-62 31.99 -62 32.98 -62 34 C-60.74155273 34.19110352 -59.48310547 34.38220703 -58.18652344 34.57910156 C-53.41447915 35.30504988 -48.64340084 36.03719333 -43.87255859 36.77099609 C-41.82690958 37.08480089 -39.78101873 37.39703408 -37.73486328 37.70751953 C-26.14449562 39.46743285 -14.61894434 41.33057608 -3.16668701 43.85626221 C1.43748336 44.88347341 1.43748336 44.88347341 6 44 C5.60167969 42.76507813 5.20335937 41.53015625 4.79296875 40.2578125 C1.21604153 28.91171821 -1.3776667 17.7832629 -3 6 C-6.73312646 6 -9.56458103 7.27781875 -12.95703125 8.67578125 Z M-67 40 C-62.82966269 45.24270976 -58.13654703 49.7274762 -53.1875 54.21899414 C-48.57181689 58.42397082 -44.14389542 62.786969 -39.78271484 67.25463867 C-36.81398388 70.27596325 -35.26624963 71.8245458 -31.01171875 72.4140625 C-25.56227117 72.32673612 -21.32525562 69.13945388 -16.8125 66.375 C-14.95194635 65.27103148 -13.08997299 64.16945203 -11.2265625 63.0703125 C-10.33227539 62.53954102 -9.43798828 62.00876953 -8.51660156 61.46191406 C-3.80218895 58.72327391 1.07045252 56.32699136 6 54 C6 53.67 6 53.34 6 53 C4.99549805 52.84966309 3.99099609 52.69932617 2.95605469 52.54443359 C-16.34502465 49.64159226 -35.4841462 46.51016729 -54.52734375 42.19921875 C-58.67749602 41.26204223 -62.77690175 40.51061643 -67 40 Z M-84.0625 46.25 C-84.87557617 46.98669922 -84.87557617 46.98669922 -85.70507812 47.73828125 C-89.66157842 51.32795918 -89.66157842 51.32795918 -92 56 C-91.70554499 57.34245489 -91.37609555 58.6780919 -91 60 C-72.67715324 64.87760568 -72.67715324 64.87760568 -54 68 C-57.17703902 63.02419623 -60.74928289 58.4919422 -64.5 53.9375 C-65.63555127 52.55089147 -66.77097104 51.16417524 -67.90625 49.77734375 C-68.70869141 48.80643799 -68.70869141 48.80643799 -69.52734375 47.81591797 C-70.80070523 46.24574842 -72.01563836 44.62853059 -73.21875 43.00390625 C-73.8065625 42.34261719 -74.394375 41.68132813 -75 41 C-79.26308255 41 -81.11692552 43.47727959 -84.0625 46.25 Z M5.6875 61.5 C-0.19178131 66.32049419 -6.46155648 70.14662263 -13 74 C-9.52577347 76.31615102 -6.51963331 76.72377599 -2.48828125 77.2890625 C-1.39594429 77.45128799 -1.39594429 77.45128799 -0.28153992 77.61679077 C2.04049366 77.95997575 4.36389896 78.29261097 6.6875 78.625 C8.26377378 78.85607678 9.83994716 79.08783954 11.41601562 79.3203125 C15.27622465 79.88816943 19.13769721 80.44657088 23 81 C21.54237887 77.91632949 20.08377822 74.83312328 18.625 71.75 C18.2125 70.87730469 17.8 70.00460938 17.375 69.10546875 C16.97539062 68.26113281 16.57578125 67.41679688 16.1640625 66.546875 C15.79748535 65.77182617 15.4309082 64.99677734 15.05322266 64.19824219 C14.05768996 62.12040807 13.03691854 60.0574431 12 58 C9.03361399 58 7.9266731 59.59432076 5.6875 61.5 Z M-80 72 C-77.65104504 75.05260667 -75.36212862 77.69716355 -72.375 80.125 C-62.9801817 88.21256158 -55.76915379 97.7154644 -49 108 C-47.21506286 102.64518859 -49.92966703 97.26456954 -51.5 92 C-51.82742188 90.79859375 -52.15484375 89.5971875 -52.4921875 88.359375 C-54.35955321 81.55979656 -54.35955321 81.55979656 -59.22265625 76.82421875 C-60.46917969 76.55222656 -61.71570313 76.28023438 -63 76 C-63.71075684 75.81131348 -64.42151367 75.62262695 -65.15380859 75.42822266 C-67.40529892 74.8312477 -69.66287029 74.31342531 -71.9375 73.8125 C-72.71673828 73.63525391 -73.49597656 73.45800781 -74.29882812 73.27539062 C-76.19787954 72.8443176 -78.09875878 72.42130992 -80 72 Z M-49 80 C-46.97906541 86.20438024 -44.79155799 92.3285463 -42.5 98.4375 C-40.09317756 104.90256432 -37.85320183 111.35027579 -36 118 C-32.01129531 115.10394579 -28.1585865 112.18841794 -24.5625 108.8125 C-19.82198403 104.56499769 -14.45116305 101.28638328 -9.07836914 97.9074707 C-5.19511982 95.46001505 -1.52016643 92.96471611 2 90 C-3.14560366 88.11333109 -8.29986656 87.06110087 -13.66796875 86.0546875 C-14.58459793 85.87994904 -15.50122711 85.70521057 -16.44563293 85.525177 C-18.3741045 85.15851525 -20.30296192 84.7938778 -22.23217773 84.43115234 C-25.1890099 83.87471586 -28.14436397 83.31089034 -31.09960938 82.74609375 C-32.97647953 82.3901872 -34.85342997 82.0347037 -36.73046875 81.6796875 C-37.6148613 81.51097137 -38.49925385 81.34225525 -39.41044617 81.16842651 C-40.23172501 81.01471588 -41.05300385 80.86100525 -41.89916992 80.70263672 C-42.62053635 80.56654999 -43.34190277 80.43046326 -44.08512878 80.29025269 C-46.17156242 79.92506685 -46.17156242 79.92506685 -49 80 Z M6.65625 94.5625 C5.65984497 95.38065186 5.65984497 95.38065186 4.64331055 96.21533203 C3.93601807 96.80427246 3.22872559 97.39321289 2.5 98 C1.03815373 99.206206 -0.42408483 100.41193672 -1.88671875 101.6171875 C-2.59618652 102.20338867 -3.3056543 102.78958984 -4.03662109 103.39355469 C-6.42729876 105.34961774 -8.86776733 107.23714505 -11.3125 109.125 C-16.98388718 113.62732781 -21.97458814 118.80261587 -27 124 C-24.8289282 126.1710718 -23.80575201 126.51574644 -20.91748047 127.32861328 C-19.65639969 127.68876022 -19.65639969 127.68876022 -18.36984253 128.05618286 C-17.46146637 128.30834564 -16.55309021 128.56050842 -15.6171875 128.8203125 C-14.68778351 129.08383514 -13.75837952 129.34735779 -12.80081177 129.61886597 C-9.82725226 130.46044766 -6.85120136 131.29281477 -3.875 132.125 C-1.86050649 132.69340615 0.15381875 133.26240906 2.16796875 133.83203125 C7.11005199 135.22829037 12.05438922 136.61628997 17 138 C17.33398222 121.98082134 16.57817243 107.42645058 12 92 C9.35778668 92 8.6762487 92.88972269 6.65625 94.5625 Z M18 92 C18.39832031 93.17691406 18.79664063 94.35382813 19.20703125 95.56640625 C23.44941245 108.59562237 25.63233733 121.38267577 27 135 C30.99198288 133.57740247 34.13927057 131.64587604 37.625 129.25 C44.69045228 124.5522734 52.15768808 120.63849066 59.6875 116.75 C60.82719238 116.15993164 61.96688477 115.56986328 63.14111328 114.96191406 C70.00966548 111.44156962 76.94032913 108.11945149 84 105 C84 104.67 84 104.34 84 104 C62.07175674 99.46088316 40.14055391 95.36321174 18 92 Z M100 108 C99.88519287 108.65258789 99.77038574 109.30517578 99.65209961 109.97753906 C96.52007038 127.45080425 92.11913193 143.73386219 85 160 C89.96326191 158.37400583 94.90110265 156.68909281 99.82502747 154.94726562 C123.1090015 146.71524191 146.68556712 138.65081401 171 134 C168.77905178 131.51347017 166.82257018 130.30594963 163.73046875 129.08984375 C162.85648438 128.7446167 161.9825 128.39938965 161.08203125 128.04370117 C159.64923828 127.49613159 159.64923828 127.49613159 158.1875 126.9375 C157.1871875 126.55118408 156.186875 126.16486816 155.15625 125.7668457 C146.67171551 122.53928641 138.10644383 119.5700169 129.5 116.6875 C128.28594482 116.27943115 127.07188965 115.8713623 125.82104492 115.45092773 C117.28791577 112.63392522 108.7016752 110.2298426 100 108 Z M42.6875 137.6875 C41.91019531 138.19265137 41.13289062 138.69780273 40.33203125 139.21826172 C38.51765846 140.42493593 36.75265006 141.70530734 35 143 C35 143.66 35 144.32 35 145 C36.10214844 145.47308594 37.20429687 145.94617188 38.33984375 146.43359375 C49.17780463 151.13926555 59.6347852 156.33193317 70 162 C82.80918841 150.42684775 91.16542898 124.70092241 93 108 C78.90055097 108 54.29725225 130.06162307 42.6875 137.6875 Z M-31 139 C-30.93433838 139.74918701 -30.86867676 140.49837402 -30.80102539 141.27026367 C-30.05480679 150.28039075 -29.696384 159.27903339 -29.4375 168.3125 C-29.39415585 169.74675315 -29.35053749 171.18099804 -29.30664062 172.61523438 C-29.20127943 176.07673386 -29.09958188 179.53832884 -29 183 C-25.06610703 179.64526155 -21.15135928 176.2761828 -17.3125 172.8125 C-16.46558594 172.049375 -15.61867188 171.28625 -14.74609375 170.5 C-12.8115231 168.73879771 -10.88729749 166.97003404 -8.97265625 165.1875 C-3.52807478 160.12820097 1.93279561 155.31704928 8 151 C4.36980634 147.36980634 -1.06127061 146.52711415 -5.875 145 C-6.9578125 144.64421875 -8.040625 144.2884375 -9.15625 143.921875 C-16.37874847 141.61205449 -23.48843539 140.03069991 -31 139 Z M166.73828125 142.203125 C165.64278709 142.55370972 165.64278709 142.55370972 164.52516174 142.91137695 C162.11890405 143.68476663 159.71545385 144.46640878 157.3125 145.25 C156.48921204 145.51744019 155.66592407 145.78488037 154.81768799 146.0604248 C131.48597597 153.65868688 108.48183447 162.1497117 86 172 C89.15771818 175.2025085 92.37804291 178.27474374 95.75 181.25 C97.50312074 182.82987725 99.25317253 184.41316724 101 186 C101.73476563 186.66644531 102.46953125 187.33289063 103.2265625 188.01953125 C110.46371212 194.90140262 116.15722184 202.94270017 122 211 C125.96529066 209.67823645 126.89819507 207.79064953 129.375 204.4375 C130.26611867 203.24711508 131.15945499 202.05838794 132.0546875 200.87109375 C132.5300293 200.24058105 133.00537109 199.61006836 133.49511719 198.96044922 C136.08968866 195.5804348 138.79802265 192.29430033 141.5 189 C146.66500495 182.67988212 151.69928962 176.28257346 156.63867188 169.78369141 C158.18339805 167.75970119 159.73968942 165.74488764 161.296875 163.73046875 C171.42565932 152.72302663 171.42565932 152.72302663 177 140 C173.30346169 140 170.21474347 141.07632631 166.73828125 142.203125 Z M186 141 C185.67837891 141.60360352 185.35675781 142.20720703 185.02539062 142.82910156 C171.69150787 167.77544569 156.13370964 188.21678047 136 208 C139.06600721 209.5330036 141.8218386 208.31200949 145.0234375 207.55859375 C146.51545584 207.22129118 148.00756637 206.88439619 149.49975586 206.54785156 C150.68890091 206.27624207 150.68890091 206.27624207 151.90206909 205.99914551 C184.04359642 198.69924708 216.19600032 194.05855839 249 191 C249 190.34 249 189.68 249 189 C248.34 189 247.68 189 247 189 C246.78214844 188.45730469 246.56429687 187.91460937 246.33984375 187.35546875 C244.54659403 184.20290438 242.12917427 181.83282986 239.5625 179.3125 C239.02681396 178.78285645 238.49112793 178.25321289 237.93920898 177.70751953 C232.89646928 172.78730259 227.55215292 168.33545366 222 164 C221.03964844 163.22269531 220.07929687 162.44539063 219.08984375 161.64453125 C212.61827623 156.49836694 205.91515998 151.87536063 198.9375 147.4375 C198.11572266 146.91244873 197.29394531 146.38739746 196.44726562 145.84643555 C195.66931641 145.35957275 194.89136719 144.87270996 194.08984375 144.37109375 C193.39753662 143.93724365 192.70522949 143.50339355 191.99194336 143.05639648 C189.99470547 141.99719213 188.20834259 141.44537742 186 141 Z M24 157 C23.86013672 157.54188965 23.72027344 158.0837793 23.57617188 158.64208984 C20.68204964 169.69047128 17.42360326 180.1814888 12.453125 190.48779297 C11.58616166 192.30247444 10.78605314 194.14883422 10 196 C10.33 196.66 10.66 197.32 11 198 C11.58152832 197.6690332 12.16305664 197.33806641 12.76220703 196.99707031 C27.09476202 188.84790092 41.49938079 180.84621081 56 173 C52.99516414 170.60552142 49.9322072 168.83732763 46.5 167.1171875 C45.448125 166.58996094 44.39625 166.06273437 43.3125 165.51953125 C42.219375 164.97683594 41.12625 164.43414062 40 163.875 C38.906875 163.32457031 37.81375 162.77414063 36.6875 162.20703125 C35.1096875 161.42005859 35.1096875 161.42005859 33.5 160.6171875 C32.5409375 160.13878418 31.581875 159.66038086 30.59375 159.16748047 C28.37372362 158.16821784 26.37632454 157.48269092 24 157 Z M12 160 C-1.18787516 170.78701791 -14.22169608 181.72969468 -27 193 C-25.75490699 196.73527902 -24.75831015 196.93057641 -21.375 198.75 C-16.46115078 201.55993102 -12.75736745 204.79473444 -9 209 C-5.27628406 205.73967982 -3.23756188 202.02057625 -1.125 197.625 C-0.60728027 196.56478638 -0.60728027 196.56478638 -0.07910156 195.4831543 C5.12231513 184.73027183 10.3946839 173.71493858 13 162 C12.505 161.01 12.505 161.01 12 160 Z M72 183 C71.2265625 184.03898438 70.453125 185.07796875 69.65625 186.1484375 C63.89683636 193.86909477 58.13597796 201.5722372 52 209 C51.19046875 209.99515625 50.3809375 210.9903125 49.546875 212.015625 C40.42701689 223.04444265 30.20837076 232.9885266 20 243 C24.05990495 244.35330165 26.68506838 242.96318922 30.5390625 241.5625 C32.14586034 240.99805483 33.75271546 240.43377268 35.35961914 239.86962891 C36.21621124 239.5651886 37.07280334 239.26074829 37.95535278 238.94708252 C55.52023691 232.71577427 73.22912082 227.03579334 91.0625 221.625 C92.16209045 221.29113281 93.26168091 220.95726562 94.39459229 220.61328125 C100.59364139 218.73300095 106.7952079 216.86124043 113 215 C112.06101837 213.88721031 111.11952502 212.77653977 110.17700195 211.66674805 C109.65298294 211.04801315 109.12896393 210.42927826 108.58906555 209.79179382 C101.89957019 202.24887248 93.17738048 196.25580017 85 190.4375 C84.28223389 189.92485596 83.56446777 189.41221191 82.82495117 188.8840332 C79.32706971 186.43893216 76.09163103 184.3505579 72 183 Z M52 188 C35.34376138 196.44055668 19.03509417 205.23672406 3.00170898 214.82348633 C1.69264038 215.59289743 0.35813227 216.32093387 -1 217 C-0.57134858 220.96502568 0.47649997 224.3230594 1.9375 228 C4.40821351 234.51369925 5.23514021 241.10619792 6 248 C11.47136662 243.9315479 15.43561094 238.99451301 19.65917969 233.67333984 C21.08100273 231.89890883 22.52589555 230.1454482 23.9765625 228.39453125 C34.21119059 216.0063241 43.68398136 203.08761574 53 190 C52.505 189.01 52.505 189.01 52 188 Z M-35 209 C-35.22139648 209.56920166 -35.44279297 210.13840332 -35.67089844 210.72485352 C-36.69163914 213.33963856 -37.72075051 215.95105316 -38.75 218.5625 C-39.09804688 219.45775391 -39.44609375 220.35300781 -39.8046875 221.27539062 C-41.4227037 225.36537602 -43.05505828 229.25487459 -45.328125 233.02734375 C-45.87984375 234.00832031 -46.4315625 234.98929688 -47 236 C-46.67 236.66 -46.34 237.32 -46 238 C-45.38479492 237.53102295 -44.76958984 237.0620459 -44.13574219 236.57885742 C-41.34061601 234.44824587 -38.54530989 232.31787052 -35.75 230.1875 C-34.78191406 229.44951172 -33.81382812 228.71152344 -32.81640625 227.95117188 C-31.88183594 227.23896484 -30.94726562 226.52675781 -29.984375 225.79296875 C-28.69611816 224.81106567 -28.69611816 224.81106567 -27.38183594 223.80932617 C-25.26061004 222.19796853 -23.13314003 220.59553693 -21 219 C-22.4756237 215.14325624 -24.47006893 213.78176265 -28 211.75 C-28.886875 211.22921875 -29.77375 210.7084375 -30.6875 210.171875 C-32.86525463 208.84932375 -32.86525463 208.84932375 -35 209 Z M-11 228 C-12.17437773 229.36219182 -13.34366872 230.72902121 -14.49047852 232.11450195 C-25.4005332 245.29020604 -37.43640265 257.55350266 -51 268 C-52.89786755 269.51829404 -54.79376805 271.03905083 -56.6875 272.5625 C-58.12449468 273.70896699 -59.56179506 274.8550516 -61 276 C-60.34 276.33 -59.68 276.66 -59 277 C-56.65734222 276.19394554 -56.65734222 276.19394554 -53.98828125 274.89453125 C-52.93431152 274.41097168 -51.8803418 273.92741211 -50.79443359 273.42919922 C-49.64539551 272.89568848 -48.49635742 272.36217773 -47.3125 271.8125 C-35.2962146 266.32698285 -23.12048751 261.44537442 -10.7434082 256.83520508 C-10.09903305 256.59237289 -9.4546579 256.34954071 -8.79075623 256.09934998 C-7.03959684 255.43983137 -5.28527669 254.78872276 -3.53076172 254.13818359 C-0.8669446 253.26080135 -0.8669446 253.26080135 0 251 C-1.76695101 242.61612211 -4.92272039 234.92072266 -10 228 C-10.33 228 -10.66 228 -11 228 Z M-39.375 241.9375 C-40.09308838 242.43822021 -40.81117676 242.93894043 -41.55102539 243.45483398 C-43.70521633 244.9635583 -45.8528302 246.48130726 -48 248 C-48.58797363 248.41024414 -49.17594727 248.82048828 -49.78173828 249.24316406 C-57.20515516 254.43844292 -63.1876457 260.0673255 -69 267 C-70.35139644 268.54409557 -71.70533365 270.08597336 -73.0625 271.625 C-74.04241565 272.74934767 -75.02189418 273.87407755 -76 275 C-75.67 275.66 -75.34 276.32 -75 277 C-61.47960598 267.54559308 -48.97446224 257.34896114 -37 246 C-36.21496094 245.2575 -35.42992187 244.515 -34.62109375 243.75 C-33.03525398 242.21221598 -31.5084884 240.61373178 -30 239 C-30 238.34 -30 237.68 -30 237 C-33.619436 237 -36.48478839 239.91358612 -39.375 241.9375 Z M64.26953125 242.40625 C63.51911057 242.65040649 62.76868988 242.89456299 61.99552917 243.14611816 C59.59982062 243.92663178 57.20616148 244.7132335 54.8125 245.5 C53.18828234 246.03035018 51.56393486 246.56030298 49.93945312 247.08984375 C45.9581146 248.38862338 41.97860327 249.69286654 38 251 C40.8246073 253.93086692 43.46545701 256.52959188 46.96875 258.61328125 C47.69884277 259.05293213 48.42893555 259.49258301 49.18115234 259.94555664 C50.32898193 260.6221936 50.32898193 260.6221936 51.5 261.3125 C53.10693026 262.27577576 54.71369988 263.23931955 56.3203125 264.203125 C57.11083008 264.67427734 57.90134766 265.14542969 58.71582031 265.63085938 C61.95704569 267.57365458 65.16636537 269.56650732 68.375 271.5625 C71.53017347 273.52327318 74.64511207 275.40205575 78 277 C78.23678298 268.31795742 77.92924167 259.82992954 77.0625 251.1875 C76.97564941 250.3099707 76.88879883 249.43244141 76.79931641 248.52832031 C76.43119905 244.11850292 76.43119905 244.11850292 75 240 C71.14399538 240 67.88975766 241.21009661 64.26953125 242.40625 Z M27 255 C26.93530518 255.84369141 26.87061035 256.68738281 26.80395508 257.55664062 C25.56828546 273.19502074 24.15568744 288.51590988 20.53833008 303.82421875 C20.21771606 305.18933594 20.21771606 305.18933594 19.890625 306.58203125 C19.69500977 307.36811768 19.49939453 308.1542041 19.29785156 308.96411133 C18.81526204 311.19616583 18.81526204 311.19616583 20 314 C51.85853534 302.32993432 51.85853534 302.32993432 77 282 C76.11183594 281.57332031 75.22367188 281.14664062 74.30859375 280.70703125 C65.73831368 276.53337918 57.36631537 272.05657492 49.0625 267.375 C48.104646 266.83721924 47.14679199 266.29943848 46.15991211 265.74536133 C40.86529656 262.73884338 35.76183824 259.58430872 30.77514648 256.08837891 C29.06286672 254.82576774 29.06286672 254.82576774 27 255 Z M7.0625 261.9921875 C6.267229 262.29818878 5.47195801 262.60419006 4.65258789 262.91946411 C2.96753494 263.5691303 1.28289485 264.21986815 -0.40136719 264.87158203 C-2.98659011 265.869822 -5.5752587 266.85874699 -8.1640625 267.84765625 C-9.79709825 268.47858914 -11.42991818 269.11008096 -13.0625 269.7421875 C-13.84165771 270.03809784 -14.62081543 270.33400818 -15.42358398 270.6388855 C-19.4318225 271.93823736 -19.4318225 271.93823736 -22 275 C-16.2912239 289.77686809 -5.90363071 302.68765325 6 313 C6.66 313 7.32 313 8 313 C13.09620685 295.0122027 16.69897822 277.76885968 16 259 C13.11976164 259 9.77273261 260.9488068 7.0625 261.9921875 Z M-33 278 C-33.28085449 278.67764404 -33.56170898 279.35528809 -33.85107422 280.0534668 C-50.14625496 319.25775459 -50.14625496 319.25775459 -60.95336914 336.84985352 C-63.21710731 340.17818039 -63.21710731 340.17818039 -64 344 C-57.72294964 342.73630224 -51.72955465 341.0399033 -45.6796875 338.953125 C-44.38709518 338.51259796 -44.38709518 338.51259796 -43.06838989 338.06317139 C-41.25410482 337.44353543 -39.44062693 336.82153141 -37.62792969 336.19726562 C-34.90518286 335.26038573 -32.17941696 334.33275558 -29.453125 333.40625 C-19.17324699 329.8942682 -9.03420515 326.16601272 1 322 C-2.4274509 318.55750049 -2.4274509 318.55750049 -5.921875 315.18359375 C-16.86233059 304.73405604 -25.26637002 291.96307537 -31 278 C-31.66 278 -32.32 278 -33 278 Z M-57.52734375 288.4296875 C-58.27206436 288.78008087 -59.01678497 289.13047424 -59.78407288 289.4914856 C-61.36106751 290.23450787 -62.93717082 290.97942438 -64.51245117 291.72607422 C-66.92210605 292.86770674 -69.3348133 294.00267393 -71.74804688 295.13671875 C-73.27883245 295.8589796 -74.80943746 296.58162331 -76.33984375 297.3046875 C-77.06179428 297.6443454 -77.78374481 297.9840033 -78.52757263 298.33395386 C-84.1106164 300.52313213 -84.1106164 300.52313213 -87.67041016 304.83276367 C-89.67303182 318.0011137 -88.95857768 331.95645056 -83 344 C-82.34 344.33 -81.68 344.66 -81 345 C-69.11598147 325.40028562 -57.4609844 305.9049529 -48 285 C-51.45273098 285 -54.45254444 286.96992932 -57.52734375 288.4296875 Z M73.25 292.6875 C59.76429988 302.9884392 44.82824366 311.32566926 29.84423828 319.21801758 C28.9623584 319.68618896 28.08047852 320.15436035 27.171875 320.63671875 C26.3890918 321.04623779 25.60630859 321.45575684 24.79980469 321.87768555 C22.84186175 322.8810063 22.84186175 322.8810063 22 325 C46.45878125 341.31634115 46.45878125 341.31634115 74 349 C75.98161334 337.53306415 77.35995904 326.11032239 78.1875 314.5 C78.27112793 313.34467773 78.35475586 312.18935547 78.44091797 310.99902344 C78.93054651 303.65564824 79.09774836 296.35869672 79 289 C76.93377905 289 74.74905035 291.50816237 73.25 292.6875 Z M-142.6875 337.125 C-152.03411187 346.56339725 -164 360.03838595 -164 374 C-156.23381174 372.61321723 -148.7332761 370.59567287 -141.16796875 368.375 C-139.37580681 367.85365479 -139.37580681 367.85365479 -137.54743958 367.32177734 C-135.03828447 366.59087163 -132.52972203 365.85792853 -130.02172852 365.12304688 C-127.45729437 364.37192322 -124.89244377 363.62257814 -122.32641602 362.87695312 C-118.60607716 361.79588179 -114.88682076 360.71117387 -111.16796875 359.625 C-110.02208786 359.29161621 -108.87620697 358.95823242 -107.69560242 358.61474609 C-106.62711563 358.30102051 -105.55862885 357.98729492 -104.45776367 357.6640625 C-103.05405769 357.25341553 -103.05405769 357.25341553 -101.62199402 356.83447266 C-99.02266854 356.00721446 -96.51864737 355.04530497 -94 354 C-94.40992188 353.030625 -94.81984375 352.06125 -95.2421875 351.0625 C-100.62756694 337.85518124 -102.54667993 325.33516248 -102 311 C-114.80698995 311 -134.03256895 328.67215063 -142.6875 337.125 Z M13 330 C12.39865234 331.70929688 12.39865234 331.70929688 11.78515625 333.453125 C6.04868744 349.51969918 -0.76609907 365.00445561 -8.61303711 380.15307617 C-10.40868859 383.40687947 -10.40868859 383.40687947 -11 387 C-1.8207441 384.80131809 6.82359223 381.49856682 15.5625 378 C17.01908437 377.42104198 18.47570928 376.84218596 19.93237305 376.26342773 C29.09344765 372.6126884 38.22150686 368.88462795 47.3125 365.0625 C48.32320557 364.63904297 49.33391113 364.21558594 50.37524414 363.77929688 C57.39467006 360.79415171 64.21224735 357.47807769 71 354 C68.39718892 352.26479261 66.97466371 351.58311006 64.0703125 350.80859375 C63.28543457 350.59082275 62.50055664 350.37305176 61.69189453 350.14868164 C60.84481934 349.9139917 59.99774414 349.67930176 59.125 349.4375 C43.00999171 344.78378712 27.8397417 337.75657087 13 330 Z M-7.46875 336.80078125 C-20.14070689 342.08444522 -32.86449627 346.75581027 -45.9375 350.9375 C-46.66388672 351.170065 -47.39027344 351.40263 -48.13867188 351.64224243 C-56.06842287 354.17399933 -64.01522013 356.64673029 -72 359 C-70.79618552 361.49361571 -69.54571278 363.68143083 -68 366 C-67.34 366 -66.68 366 -66 366 C-65.69642578 366.81597656 -65.69642578 366.81597656 -65.38671875 367.6484375 C-63.43903979 370.95126211 -60.70983071 373.1821139 -57.8125 375.625 C-57.19898682 376.14626465 -56.58547363 376.6675293 -55.95336914 377.20458984 C-51.45826001 380.94966116 -46.80085374 384.37469389 -41.9375 387.625 C-41.31915283 388.03830566 -40.70080566 388.45161133 -40.0637207 388.87744141 C-36.80211881 390.99835186 -33.62458868 392.61432063 -30 394 C-22.22706869 380.20345016 -14.46725642 366.41348468 -7.625 352.125 C-6.95730591 350.73849243 -6.95730591 350.73849243 -6.27612305 349.32397461 C-4.05616086 344.60671926 -2.25528595 340.06252684 -1 335 C-3.53808692 335 -5.12735695 335.80504546 -7.46875 336.80078125 Z M65.86328125 362.09765625 C64.55725952 362.7935083 64.55725952 362.7935083 63.22485352 363.50341797 C61.78323853 364.27516357 61.78323853 364.27516357 60.3125 365.0625 C35.39320208 378.20583175 9.89151747 389.9139744 -16 401 C-11.53392521 404.6046277 -6.64816897 406.2678893 -1.3125 408.25 C-0.25756348 408.6433252 0.79737305 409.03665039 1.88427734 409.44189453 C27.3237687 419.08584695 27.3237687 419.08584695 54 423 C58.84008262 409.2587997 63.11906551 395.42935199 66.9375 381.375 C67.13431366 380.65386017 67.33112732 379.93272034 67.53390503 379.18972778 C70.13814647 369.67869947 70.13814647 369.67869947 72 360 C69.42096502 360 68.13662717 360.87265213 65.86328125 362.09765625 Z M-103.46923828 366.35522461 C-104.13277313 366.51113571 -104.79630798 366.66704681 -105.47994995 366.8276825 C-107.67835529 367.34598094 -109.87427288 367.87411949 -112.0703125 368.40234375 C-113.5918872 368.76310332 -115.1136076 369.12324889 -116.63546753 369.48280334 C-120.64497294 370.43183735 -124.65243926 371.38922321 -128.6595459 372.34832764 C-132.74709834 373.32513468 -136.83651316 374.29407727 -140.92578125 375.26367188 C-148.95237068 377.16806376 -156.9768242 379.08127769 -165 381 C-164.69480854 382.60032764 -164.3855011 384.19987071 -164.07446289 385.79907227 C-163.90266006 386.68990005 -163.73085724 387.58072784 -163.55384827 388.49855042 C-160.65817429 401.57682998 -149.95282981 413.49640451 -140 422 C-137.87311297 423.19748758 -137.87311297 423.19748758 -136 424 C-131.07708117 417.38157438 -126.37616688 410.6399044 -121.75 403.8125 C-117.07934973 396.92821985 -112.23454918 390.22090375 -107.1953125 383.6027832 C-102.86955164 377.89753021 -98.87606409 372.01929953 -95 366 C-98.0501674 364.4749163 -100.18625203 365.57384965 -103.46923828 366.35522461 Z M-84 369 C-85.89136348 371.10017 -87.7360738 373.21933136 -89.5625 375.375 C-90.11115723 376.01912842 -90.65981445 376.66325684 -91.22509766 377.3269043 C-94.81656619 381.55951804 -98.32607905 385.84668522 -101.76171875 390.20703125 C-103.53181287 392.41578744 -105.32553734 394.59364128 -107.14453125 396.76171875 C-113.48190287 404.33086369 -119.5975088 411.99188225 -125.375 420 C-125.94049561 420.78375 -126.50599121 421.5675 -127.08862305 422.375 C-129.69660877 425.43118642 -129.69660877 425.43118642 -131 429 C-125.57173169 428.39611684 -120.76215619 427.08901717 -115.61328125 425.296875 C-114.80972198 425.02245575 -114.00616272 424.7480365 -113.17825317 424.46530151 C-110.55403944 423.56673329 -107.93321576 422.65871476 -105.3125 421.75 C-103.4929959 421.12396533 -101.67341489 420.49815415 -99.85375977 419.87255859 C-82.16678495 413.77432542 -64.56905346 407.42900328 -47 401 C-47 400.01 -47 399.02 -47 398 C-49.03708645 396.53403074 -51.02970567 395.26441846 -53.1875 394 C-63.76208957 387.50419999 -72.8062122 379.52673875 -81.390625 370.58203125 C-82.74273187 368.8831629 -82.74273187 368.8831629 -84 369 Z M-26 410 C-27.66044873 412.08022509 -29.00291603 414.0506765 -30.375 416.3125 C-31.25483852 417.69543811 -32.13918993 419.07551242 -33.02734375 420.453125 C-33.74059814 421.56010742 -33.74059814 421.56010742 -34.46826172 422.68945312 C-37.15686683 426.74507295 -40.04222489 430.6529314 -42.9375 434.5625 C-43.52724609 435.35930176 -44.11699219 436.15610352 -44.72460938 436.97705078 C-50.01868911 444.08860959 -55.46464369 451.07515629 -61 458 C-57.21674315 459.39601835 -54.67259779 458.58159431 -50.875 457.45214844 C-49.6289801 457.08682007 -48.38296021 456.7214917 -47.09918213 456.34509277 C-45.73272041 455.93341142 -44.36632834 455.52149883 -43 455.109375 C-41.57770153 454.68816748 -40.15514979 454.26781436 -38.73236084 453.8482666 C-34.93413244 452.72546358 -31.1397277 451.59022698 -27.34599304 450.4523468 C-23.45179584 449.28649639 -19.55428074 448.13184216 -15.65722656 446.97558594 C5.26181735 440.76168514 26.16248139 434.48258038 47 428 C47 427.67 47 427.34 47 427 C45.86292603 426.81993408 45.86292603 426.81993408 44.70288086 426.63623047 C23.76104478 423.27934715 3.11562966 419.41457598 -16.77636719 411.82836914 C-20.13011462 410.56070712 -22.34641593 410 -26 410 Z M-48.80908203 412.15234375 C-49.789263 412.43013672 -50.76944397 412.70792969 -51.77932739 412.99414062 C-52.84472748 413.30544922 -53.91012756 413.61675781 -55.0078125 413.9375 C-56.1206662 414.25525391 -57.2335199 414.57300781 -58.38009644 414.90039062 C-61.96408266 415.92559111 -65.54455953 416.96249148 -69.125 418 C-71.45289554 418.66876799 -73.78101845 419.33674506 -76.109375 420.00390625 C-79.58742853 421.0008227 -83.06523528 421.99853791 -86.54205322 422.99975586 C-98.34349452 426.39712477 -110.16904639 429.7070951 -122 433 C-122 433.66 -122 434.32 -122 435 C-110.43278413 441.97910231 -98.65006358 447.28933979 -86 452 C-85.27312988 452.27392578 -84.54625977 452.54785156 -83.79736328 452.83007812 C-76.58593526 455.82111615 -76.58593526 455.82111615 -69 457 C-67.2573612 454.84261883 -67.2573612 454.84261883 -65.62890625 451.98046875 C-64.97728516 450.9032959 -64.32566406 449.82612305 -63.65429688 448.71630859 C-62.95694397 447.5400908 -62.2596801 446.36382022 -61.5625 445.1875 C-60.84955267 444.0026677 -60.13535274 442.81858825 -59.41992188 441.63525391 C-58.33395019 439.83887383 -57.24869624 438.04211229 -56.16738892 436.24291992 C-52.8567497 430.73697599 -49.44598032 425.29721907 -46 419.875 C-45.49025635 419.0708667 -44.9805127 418.2667334 -44.45532227 417.43823242 C-43.30501471 415.62455732 -42.15276614 413.81211344 -41 412 C-44.43604365 410.85465212 -45.41033932 411.17329813 -48.80908203 412.15234375 Z M43.99609375 434.125 C14.51415837 447.06599866 -15.70627625 454.85859478 -47 462 C-47 462.33 -47 462.66 -47 463 C-39.78362169 464.25473284 -32.56680355 465.50690487 -25.3494606 466.75607777 C-21.99578738 467.33660624 -18.64225423 467.91791696 -15.2890625 468.5012207 C3.65333766 471.79886301 3.65333766 471.79886301 22.640625 474.82421875 C23.44465759 474.94738968 24.24869019 475.07056061 25.0770874 475.19746399 C28.44054451 475.69523438 31.59024062 476 35 476 C41.01440241 461.53984101 46.19881107 446.90529874 51 432 C48.27777483 432 46.48603944 433.01515824 43.99609375 434.125 Z " fill="#BE2223" transform="translate(495,1)"/>
<path d="M0 0 C0.48666153 3.2280813 0.96284427 6.45763335 1.4375 9.6875 C1.57220703 10.58017578 1.70691406 11.47285156 1.84570312 12.39257812 C9.00625574 61.46856067 3.20494683 115.01441653 -12 162 C-12.45415283 163.41394043 -12.45415283 163.41394043 -12.91748047 164.85644531 C-19.8371102 186.15381283 -28.74427061 206.58683403 -38.4375 226.75 C-38.88600311 227.68601044 -38.88600311 227.68601044 -39.34356689 228.64093018 C-40.20110822 230.42487859 -41.06721079 232.20470378 -41.93359375 233.984375 C-42.42915771 235.00241211 -42.92472168 236.02044922 -43.43530273 237.06933594 C-48.01586463 245.64868763 -48.01586463 245.64868763 -51.0859375 246.74462891 C-51.84132813 246.73866699 -52.59671875 246.73270508 -53.375 246.7265625 C-54.25824951 246.72833496 -55.14149902 246.73010742 -56.05151367 246.73193359 C-57.02451416 246.69664551 -57.99751465 246.66135742 -59 246.625 C-60.04325439 246.6038916 -61.08650879 246.5827832 -62.16137695 246.56103516 C-125.73819937 244.53690813 -208.65462525 233.36598621 -254.59765625 185.28125 C-264.95930765 173.2416684 -269.02346833 161.80812689 -268.21777344 146.16699219 C-266.40880128 128.16650247 -249.35872418 109.75057263 -236.01953125 98.40625 C-233.18218391 96.43053425 -230.3510265 95.74467255 -227 95 C-225.70844943 94.30819185 -224.43699557 93.57765502 -223.1875 92.8125 C-222.135625 92.214375 -221.08375 91.61625 -220 91 C-219.01 91.495 -219.01 91.495 -218 92 C-218.78503906 92.71285156 -219.57007813 93.42570312 -220.37890625 94.16015625 C-223.11003566 96.6449007 -225.82446115 99.14725608 -228.53466797 101.65478516 C-229.67822796 102.70460448 -230.83802593 103.73674404 -232.00390625 104.76171875 C-235.98288693 108.41471065 -239.05961563 112.64211871 -242.125 117.0625 C-242.53314941 117.63323242 -242.94129883 118.20396484 -243.36181641 118.79199219 C-246.20239006 123.03621093 -247.98888578 127.46546436 -249.65185547 132.27514648 C-249.87936996 132.92301872 -250.10688446 133.57089096 -250.34129333 134.23839569 C-250.89768654 135.82437674 -251.44932771 137.41202352 -252 139 C-243.59281626 136.56177165 -235.18685024 134.11940142 -226.78240585 131.67174721 C-222.8797767 130.53531257 -218.97674446 129.40030451 -215.07275391 128.26855469 C-211.30463173 127.17613559 -207.53761751 126.07997192 -203.77133942 124.98121262 C-202.33483895 124.56284649 -200.89794557 124.14582701 -199.46065521 123.73018265 C-197.4463436 123.14742143 -195.433487 122.55987128 -193.42089844 121.97119141 C-192.27506287 121.63809967 -191.12922729 121.30500793 -189.94866943 120.96182251 C-187.46563809 120.15188586 -185.28334752 119.25229751 -183 118 C-183.40992188 117.1028125 -183.81984375 116.205625 -184.2421875 115.28125 C-189.56461858 103.15419185 -193.27181162 89.25689599 -190 76 C-187.37317309 71.90215003 -182.48832128 69.73265791 -178 68 C-177.01 68 -176.02 68 -175 68 C-175.02618408 68.70906494 -175.05236816 69.41812988 -175.0793457 70.14868164 C-175.52202397 83.97257132 -175.88974796 96.25290262 -170 109 C-163.55570107 99.43876465 -157.56706377 89.68937229 -151.9375 79.625 C-151.34138916 78.56385986 -150.74527832 77.50271973 -150.13110352 76.40942383 C-147.37148086 71.44937219 -144.70765882 66.47997052 -142.2734375 61.3515625 C-135.59436991 47.39889403 -135.59436991 47.39889403 -129.0625 44.3125 C-126.14998892 43.3612194 -124.0710066 43 -121 43 C-122.87224559 49.80922702 -125.21600736 56.16103021 -128.1875 62.5625 C-128.78232178 63.85885376 -128.78232178 63.85885376 -129.38916016 65.18139648 C-130.20133415 66.94780203 -131.01641228 68.71287535 -131.83447266 70.4765625 C-132.89837164 72.77996844 -133.94271648 75.09097979 -134.98046875 77.40625 C-139.94326373 88.35932846 -145.82551794 98.68813684 -152 109 C-130.84172633 102.06397989 -109.80709457 94.93716613 -89 87 C-89 86.34 -89 85.68 -89 85 C-90.48677661 83.53587878 -90.48677661 83.53587878 -92.4375 82 C-103.95790788 72.12536467 -113.53748178 59.26032401 -119 45 C-119 43.68 -119 42.36 -119 41 C-116.37654331 39.72574961 -114.46011271 38.99056551 -111.5234375 39.05078125 C-109 40 -109 40 -107.33203125 42.703125 C-106.83058594 43.87359375 -106.32914063 45.0440625 -105.8125 46.25 C-100.77097708 57.23377158 -91.0981016 72.4509492 -80 78 C-79.56639303 75.79583126 -79.1336255 73.59149633 -78.703125 71.38671875 C-78.18992362 68.91479875 -77.63951874 66.47203051 -77.046875 64.01953125 C-73.85780363 50.44792659 -72.80058039 36.89788029 -72 23 C-65.5 20 -65.5 20 -61 20 C-60.07176119 39.52739424 -63.85992643 59.00189589 -68 78 C-48.53806844 69.38020872 -29.41129648 60.35069608 -12 48 C-12.55647217 47.69932617 -13.11294434 47.39865234 -13.6862793 47.08886719 C-24.35102952 41.31871503 -34.99348169 35.50645807 -45.5625 29.5625 C-46.43543701 29.07942383 -47.30837402 28.59634766 -48.20776367 28.09863281 C-52.80884168 25.49167187 -56.4829964 22.96292226 -60 19 C-54.71564991 15.92770344 -54.71564991 15.92770344 -51.56396484 16.24609375 C-48.86085854 17.04091305 -46.99609809 18.05526985 -44.6640625 19.625 C-43.85380615 20.16278076 -43.0435498 20.70056152 -42.20874023 21.25463867 C-41.35610596 21.83060791 -40.50347168 22.40657715 -39.625 23 C-37.83865081 24.18572258 -36.05087551 25.36929932 -34.26171875 26.55078125 C-33.37661621 27.13553223 -32.49151367 27.7202832 -31.57958984 28.32275391 C-26.76169594 31.4553425 -21.81959616 34.37328174 -16.87109375 37.29296875 C-14.88167343 38.47579416 -12.92577302 39.71615132 -11 41 C-10.61252628 28.57931458 -11.79986875 16.34922287 -13 4 C-11.58774074 3.32404685 -10.16997095 2.65959941 -8.75 2 C-7.96109375 1.62875 -7.1721875 1.2575 -6.359375 0.875 C-4 0 -4 0 0 0 Z M-14.75 57.6875 C-28.23570012 67.9884392 -43.17175634 76.32566926 -58.15576172 84.21801758 C-59.0376416 84.68618896 -59.91952148 85.15436035 -60.828125 85.63671875 C-61.6109082 86.04623779 -62.39369141 86.45575684 -63.20019531 86.87768555 C-65.15813825 87.8810063 -65.15813825 87.8810063 -66 90 C-41.54121875 106.31634115 -41.54121875 106.31634115 -14 114 C-12.01838666 102.53306415 -10.64004096 91.11032239 -9.8125 79.5 C-9.72887207 78.34467773 -9.64524414 77.18935547 -9.55908203 75.99902344 C-9.06945349 68.65564824 -8.90225164 61.35869672 -9 54 C-11.06622095 54 -13.25094965 56.50816237 -14.75 57.6875 Z M-75 95 C-75.60134766 96.70929688 -75.60134766 96.70929688 -76.21484375 98.453125 C-81.95131256 114.51969918 -88.76609907 130.00445561 -96.61303711 145.15307617 C-98.40868859 148.40687947 -98.40868859 148.40687947 -99 152 C-89.8207441 149.80131809 -81.17640777 146.49856682 -72.4375 143 C-70.98091563 142.42104198 -69.52429072 141.84218596 -68.06762695 141.26342773 C-58.90655235 137.6126884 -49.77849314 133.88462795 -40.6875 130.0625 C-39.67679443 129.63904297 -38.66608887 129.21558594 -37.62475586 128.77929688 C-30.60532994 125.79415171 -23.78775265 122.47807769 -17 119 C-19.60281108 117.26479261 -21.02533629 116.58311006 -23.9296875 115.80859375 C-24.71456543 115.59082275 -25.49944336 115.37305176 -26.30810547 115.14868164 C-27.15518066 114.9139917 -28.00225586 114.67930176 -28.875 114.4375 C-44.99000829 109.78378712 -60.1602583 102.75657087 -75 95 Z M-95.46875 101.80078125 C-108.14070689 107.08444522 -120.86449627 111.75581027 -133.9375 115.9375 C-134.66388672 116.170065 -135.39027344 116.40263 -136.13867188 116.64224243 C-144.06842287 119.17399933 -152.01522013 121.64673029 -160 124 C-158.79618552 126.49361571 -157.54571278 128.68143083 -156 131 C-155.34 131 -154.68 131 -154 131 C-153.69642578 131.81597656 -153.69642578 131.81597656 -153.38671875 132.6484375 C-151.43903979 135.95126211 -148.70983071 138.1821139 -145.8125 140.625 C-145.19898682 141.14626465 -144.58547363 141.6675293 -143.95336914 142.20458984 C-139.45826001 145.94966116 -134.80085374 149.37469389 -129.9375 152.625 C-129.31915283 153.03830566 -128.70080566 153.45161133 -128.0637207 153.87744141 C-124.80211881 155.99835186 -121.62458868 157.61432063 -118 159 C-110.22706869 145.20345016 -102.46725642 131.41348468 -95.625 117.125 C-94.95730591 115.73849243 -94.95730591 115.73849243 -94.27612305 114.32397461 C-92.05616086 109.60671926 -90.25528595 105.06252684 -89 100 C-91.53808692 100 -93.12735695 100.80504546 -95.46875 101.80078125 Z M-22.13671875 127.09765625 C-23.44274048 127.7935083 -23.44274048 127.7935083 -24.77514648 128.50341797 C-26.21676147 129.27516357 -26.21676147 129.27516357 -27.6875 130.0625 C-52.60679792 143.20583175 -78.10848253 154.9139744 -104 166 C-99.53392521 169.6046277 -94.64816897 171.2678893 -89.3125 173.25 C-88.25756348 173.6433252 -87.20262695 174.03665039 -86.11572266 174.44189453 C-60.6762313 184.08584695 -60.6762313 184.08584695 -34 188 C-29.15991738 174.2587997 -24.88093449 160.42935199 -21.0625 146.375 C-20.86568634 145.65386017 -20.66887268 144.93272034 -20.46609497 144.18972778 C-17.86185353 134.67869947 -17.86185353 134.67869947 -16 125 C-18.57903498 125 -19.86337283 125.87265213 -22.13671875 127.09765625 Z M-191.46923828 131.35522461 C-192.13277313 131.51113571 -192.79630798 131.66704681 -193.47994995 131.8276825 C-195.67835529 132.34598094 -197.87427288 132.87411949 -200.0703125 133.40234375 C-201.5918872 133.76310332 -203.1136076 134.12324889 -204.63546753 134.48280334 C-208.64497294 135.43183735 -212.65243926 136.38922321 -216.6595459 137.34832764 C-220.74709834 138.32513468 -224.83651316 139.29407727 -228.92578125 140.26367188 C-236.95237068 142.16806376 -244.9768242 144.08127769 -253 146 C-252.69480854 147.60032764 -252.3855011 149.19987071 -252.07446289 150.79907227 C-251.90266006 151.68990005 -251.73085724 152.58072784 -251.55384827 153.49855042 C-248.65817429 166.57682998 -237.95282981 178.49640451 -228 187 C-225.87311297 188.19748758 -225.87311297 188.19748758 -224 189 C-219.07708117 182.38157438 -214.37616688 175.6399044 -209.75 168.8125 C-205.07934973 161.92821985 -200.23454918 155.22090375 -195.1953125 148.6027832 C-190.86955164 142.89753021 -186.87606409 137.01929953 -183 131 C-186.0501674 129.4749163 -188.18625203 130.57384965 -191.46923828 131.35522461 Z M-172 134 C-173.89136348 136.10017 -175.7360738 138.21933136 -177.5625 140.375 C-178.11115723 141.01912842 -178.65981445 141.66325684 -179.22509766 142.3269043 C-182.81656619 146.55951804 -186.32607905 150.84668522 -189.76171875 155.20703125 C-191.53181287 157.41578744 -193.32553734 159.59364128 -195.14453125 161.76171875 C-201.48190287 169.33086369 -207.5975088 176.99188225 -213.375 185 C-213.94049561 185.78375 -214.50599121 186.5675 -215.08862305 187.375 C-217.69660877 190.43118642 -217.69660877 190.43118642 -219 194 C-213.57173169 193.39611684 -208.76215619 192.08901717 -203.61328125 190.296875 C-202.80972198 190.02245575 -202.00616272 189.7480365 -201.17825317 189.46530151 C-198.55403944 188.56673329 -195.93321576 187.65871476 -193.3125 186.75 C-191.4929959 186.12396533 -189.67341489 185.49815415 -187.85375977 184.87255859 C-170.16678495 178.77432542 -152.56905346 172.42900328 -135 166 C-135 165.01 -135 164.02 -135 163 C-137.03708645 161.53403074 -139.02970567 160.26441846 -141.1875 159 C-151.76208957 152.50419999 -160.8062122 144.52673875 -169.390625 135.58203125 C-170.74273187 133.8831629 -170.74273187 133.8831629 -172 134 Z M-114 175 C-115.66044873 177.08022509 -117.00291603 179.0506765 -118.375 181.3125 C-119.25483852 182.69543811 -120.13918993 184.07551242 -121.02734375 185.453125 C-121.74059814 186.56010742 -121.74059814 186.56010742 -122.46826172 187.68945312 C-125.15686683 191.74507295 -128.04222489 195.6529314 -130.9375 199.5625 C-131.52724609 200.35930176 -132.11699219 201.15610352 -132.72460938 201.97705078 C-138.01868911 209.08860959 -143.46464369 216.07515629 -149 223 C-145.21674315 224.39601835 -142.67259779 223.58159431 -138.875 222.45214844 C-137.6289801 222.08682007 -136.38296021 221.7214917 -135.09918213 221.34509277 C-133.73272041 220.93341142 -132.36632834 220.52149883 -131 220.109375 C-129.57770153 219.68816748 -128.15514979 219.26781436 -126.73236084 218.8482666 C-122.93413244 217.72546358 -119.1397277 216.59022698 -115.34599304 215.4523468 C-111.45179584 214.28649639 -107.55428074 213.13184216 -103.65722656 211.97558594 C-82.73818265 205.76168514 -61.83751861 199.48258038 -41 193 C-41 192.67 -41 192.34 -41 192 C-42.13707397 191.81993408 -42.13707397 191.81993408 -43.29711914 191.63623047 C-64.23895522 188.27934715 -84.88437034 184.41457598 -104.77636719 176.82836914 C-108.13011462 175.56070712 -110.34641593 175 -114 175 Z M-136.80908203 177.15234375 C-137.789263 177.43013672 -138.76944397 177.70792969 -139.77932739 177.99414062 C-140.84472748 178.30544922 -141.91012756 178.61675781 -143.0078125 178.9375 C-144.1206662 179.25525391 -145.2335199 179.57300781 -146.38009644 179.90039062 C-149.96408266 180.92559111 -153.54455953 181.96249148 -157.125 183 C-159.45289554 183.66876799 -161.78101845 184.33674506 -164.109375 185.00390625 C-167.58742853 186.0008227 -171.06523528 186.99853791 -174.54205322 187.99975586 C-186.34349452 191.39712477 -198.16904639 194.7070951 -210 198 C-210 198.66 -210 199.32 -210 200 C-198.43278413 206.97910231 -186.65006358 212.28933979 -174 217 C-173.27312988 217.27392578 -172.54625977 217.54785156 -171.79736328 217.83007812 C-164.58593526 220.82111615 -164.58593526 220.82111615 -157 222 C-155.2573612 219.84261883 -155.2573612 219.84261883 -153.62890625 216.98046875 C-152.97728516 215.9032959 -152.32566406 214.82612305 -151.65429688 213.71630859 C-150.95694397 212.5400908 -150.2596801 211.36382022 -149.5625 210.1875 C-148.84955267 209.0026677 -148.13535274 207.81858825 -147.41992188 206.63525391 C-146.33395019 204.83887383 -145.24869624 203.04211229 -144.16738892 201.24291992 C-140.8567497 195.73697599 -137.44598032 190.29721907 -134 184.875 C-133.49025635 184.0708667 -132.9805127 183.2667334 -132.45532227 182.43823242 C-131.30501471 180.62455732 -130.15276614 178.81211344 -129 177 C-132.43604365 175.85465212 -133.41033932 176.17329813 -136.80908203 177.15234375 Z M-44.00390625 199.125 C-73.48584163 212.06599866 -103.70627625 219.85859478 -135 227 C-135 227.33 -135 227.66 -135 228 C-127.78362169 229.25473284 -120.56680355 230.50690487 -113.3494606 231.75607777 C-109.99578738 232.33660624 -106.64225423 232.91791696 -103.2890625 233.5012207 C-84.34666234 236.79886301 -84.34666234 236.79886301 -65.359375 239.82421875 C-64.55534241 239.94738968 -63.75130981 240.07056061 -62.9229126 240.19746399 C-59.55945549 240.69523438 -56.40975938 241 -53 241 C-46.98559759 226.53984101 -41.80118893 211.90529874 -37 197 C-39.72222517 197 -41.51396056 198.01515824 -44.00390625 199.125 Z " fill="#C9CDD2" transform="translate(583,236)"/>
<path d="M0 0 C13.3378177 11.20376687 20.06134455 27.47596033 22.26171875 44.4921875 C24.21854998 70.17904251 20.59848427 93.21362174 3.60546875 113.43359375 C-3.95692938 121.51333903 -13.05860922 125.77084328 -23.4609375 129.1328125 C-22.6359375 130.0815625 -21.8109375 131.0303125 -20.9609375 132.0078125 C-18.4609375 134.8828125 -18.4609375 134.8828125 -18.4609375 137.1328125 C-17.4709375 137.4628125 -16.4809375 137.7928125 -15.4609375 138.1328125 C-14.1640625 139.453125 -14.1640625 139.453125 -12.7109375 141.2578125 C-8.28903539 146.51421674 -3.36691594 151.25031828 1.55957031 156.02783203 C2.5220166 156.97311768 2.5220166 156.97311768 3.50390625 157.9375 C4.087771 158.50452637 4.67163574 159.07155273 5.27319336 159.65576172 C6.5390625 161.1328125 6.5390625 161.1328125 6.5390625 163.1328125 C-16.73542785 165.03467085 -16.73542785 165.03467085 -22.03125 161.0703125 C-24.54079421 158.22992805 -26.49634831 155.37096974 -28.4609375 152.1328125 C-29.95291434 150.21418717 -31.47369601 148.31758902 -33.0234375 146.4453125 C-33.77109375 145.54167969 -34.51875 144.63804687 -35.2890625 143.70703125 C-36.36414063 142.43279297 -36.36414063 142.43279297 -37.4609375 141.1328125 C-38.07453125 140.37613281 -38.688125 139.61945313 -39.3203125 138.83984375 C-45.50876065 132.24295803 -53.07832345 131.14689095 -61.57421875 129.26171875 C-76.8665725 125.84879528 -89.91701668 117.42761305 -98.4609375 104.1328125 C-104.89351231 92.79352946 -108.94378068 79.21257037 -109.4609375 66.1328125 C-109.5125 65.05128906 -109.5640625 63.96976563 -109.6171875 62.85546875 C-110.16573724 41.07347292 -104.42894651 20.31429896 -89.390625 3.97265625 C-66.28270573 -18.05938823 -24.97346763 -19.06425276 0 0 Z M-73.4609375 15.1328125 C-74.07582031 15.70644531 -74.69070312 16.28007813 -75.32421875 16.87109375 C-86.69301249 28.64321498 -89.81923515 43.16344064 -89.7734375 58.9453125 C-89.78955078 60.04423828 -89.80566406 61.14316406 -89.82226562 62.27539062 C-89.83174934 78.36926217 -84.90772496 91.20184333 -73.81640625 102.90625 C-64.40633892 111.80133852 -55.10511438 114.64810646 -42.40649414 114.55249023 C-29.55972776 114.13979068 -19.10721101 110.28958947 -9.69140625 101.4765625 C2.66869667 88.20900898 4.20513927 69.79755936 3.66650391 52.58105469 C2.95910209 38.99135091 -1.12040593 24.67408367 -10.75 14.5859375 C-22.36919836 4.71757725 -35.52985448 3.08373407 -50.24462891 3.92578125 C-59.57601278 4.79745051 -66.72579927 8.81454937 -73.4609375 15.1328125 Z " fill="#000000" transform="translate(200.4609375,542.8671875)"/>
<path d="M0 0 C9.46364384 6.82650852 14.54181177 15.30751362 17.0625 26.703125 C18.36522808 34.77280169 19.09609083 43.15393666 18.3125 51.3125 C16.3125 53.3125 16.3125 53.3125 13.52841187 53.55300903 C12.34260529 53.54856781 11.15679871 53.54412659 9.93505859 53.53955078 C9.28127731 53.53984283 8.62749603 53.54013489 7.9539032 53.54043579 C5.78944704 53.53904065 3.62533364 53.5234712 1.4609375 53.5078125 C-0.03835868 53.50408302 -1.5376573 53.50123574 -3.03695679 53.49923706 C-6.98586743 53.49159548 -10.93463129 53.4719426 -14.88348389 53.4498291 C-18.91188572 53.4293819 -22.94031124 53.42023776 -26.96875 53.41015625 C-34.87506741 53.38869711 -42.78126545 53.35455495 -50.6875 53.3125 C-50.08364268 55.3783078 -49.47130399 57.44163747 -48.85546875 59.50390625 C-48.51539795 60.65318604 -48.17532715 61.80246582 -47.82495117 62.98657227 C-44.88207686 71.59158981 -39.84426875 77.2951896 -31.6875 81.3125 C-19.94418455 85.83399044 -7.80938416 81.75611654 3.3125 77.3125 C4.20195313 76.76335937 5.09140625 76.21421875 6.0078125 75.6484375 C8.3125 74.3125 8.3125 74.3125 12.3125 74.3125 C12.3125 79.5925 12.3125 84.8725 12.3125 90.3125 C-2.55787064 98.42361126 -18.23290366 102.08760794 -35.05859375 98.6171875 C-47.24350112 94.50370104 -58.66529697 86.84798749 -64.6875 75.3125 C-67.47297145 68.16754467 -69.3822374 60.98222287 -69.6875 53.3125 C-69.7390625 52.33925781 -69.790625 51.36601563 -69.84375 50.36328125 C-70.2916519 34.89200306 -66.53902341 20.8221347 -56.375 8.9375 C-41.72687496 -6.27120221 -18.61175509 -11.47985566 0 0 Z M-43.0625 19.9375 C-46.31144932 24.7740041 -49.6875 31.38187431 -49.6875 37.3125 C-33.5175 37.3125 -17.3475 37.3125 -0.6875 37.3125 C-1.97155136 25.50425693 -1.97155136 25.50425693 -8.9140625 16.3828125 C-20.12112637 8.75324784 -33.97830763 8.87254387 -43.0625 19.9375 Z " fill="#000000" transform="translate(509.6875,574.6875)"/>
<path d="M0 0 C10.69204209 7.99389354 14.16786221 17.90181105 16.75 30.8125 C16.75 37.7425 16.75 44.6725 16.75 51.8125 C-6.02 51.8125 -28.79 51.8125 -52.25 51.8125 C-47.35106807 67.76374568 -47.35106807 67.76374568 -36.25 78.8125 C-26.28292318 83.72894059 -15.53783744 83.06731415 -5.1875 79.5625 C-0.21032727 77.71968605 4.26458547 75.62892307 8.75 72.8125 C9.41 72.8125 10.07 72.8125 10.75 72.8125 C10.75 78.7525 10.75 84.6925 10.75 90.8125 C-6.54594845 97.49832881 -22.92586793 102.64569189 -41.25 96.140625 C-54.35755142 90.33780276 -63.05160498 82.23498125 -68.25 68.8125 C-72.99145532 53.33424363 -72.57856605 33.35802957 -65.25 18.8125 C-59.01503446 7.45030391 -49.53058148 -0.96192358 -37.25 -5.1875 C-24.79679987 -8.46908652 -10.75808409 -6.98080123 0 0 Z M-40.5625 14.9375 C-46.76153651 21.56902743 -48.60316724 27.98972415 -51.25 36.8125 C-34.75 36.8125 -18.25 36.8125 -1.25 36.8125 C-3.84611035 23.64173927 -3.84611035 23.64173927 -12.25 14.06640625 C-21.59628606 8.206723 -31.43633786 9.08298089 -40.5625 14.9375 Z " fill="#000000" transform="translate(763.25,575.1875)"/>
<path d="M0 0 C0 6.27 0 12.54 0 19 C-4.3869626 18.26883957 -7.48802427 17.56789856 -11.5 16 C-21.27020136 12.38043547 -32.10313462 11.16041475 -42.03125 15.02734375 C-46.55332153 17.26146242 -49.30850445 19.80140771 -51.875 24.25 C-53.47725655 29.59085516 -54.24108168 33.97322695 -52.07421875 39.2578125 C-45.68131067 50.08238252 -33.26587333 56.15553776 -22.89257812 62.60620117 C-10.83026922 70.15731364 -10.83026922 70.15731364 -6 75 C-6 75.66 -6 76.32 -6 77 C-5.34 77 -4.68 77 -4 77 C4.19735562 86.86422737 5.99507629 96.55601922 5.20263672 109.02636719 C4.22638181 118.53485477 -1.67278394 125.64944022 -8.875 131.53125 C-22.09349359 140.56388729 -38.76897286 141.54197677 -54.0625 138.75 C-60.6587321 137.47886339 -66.77190747 135.50853727 -73 133 C-73 126.07 -73 119.14 -73 112 C-67.93998383 112.84333603 -65.32688649 113.64423721 -60.9375 115.875 C-49.40160031 121.35949631 -38.66751071 123.62072366 -26.33203125 119.94921875 C-23.86574214 118.94535233 -22.10444495 117.60875128 -20 116 C-19.34 116 -18.68 116 -18 116 C-15.34493788 109.45084677 -13.24961535 102.95625218 -15.71875 95.96484375 C-21.14037381 86.01791296 -31.55211731 79.81032364 -40.9375 74.0625 C-53.51880654 66.33483632 -67.80762897 56.87463619 -72.60546875 42.140625 C-74.84446209 29.99242351 -72.09131264 19.71498065 -65.25 9.625 C-51.00712244 -7.98637302 -19.32002933 -9.66001466 0 0 Z " fill="#000000" transform="translate(426,535)"/>
<path d="M0 0 C0 6.6 0 13.2 0 20 C-4.72676834 19.05464633 -8.80452363 17.64771007 -13.28125 15.9375 C-21.4865173 13.10809748 -32.2968559 12.36898852 -40.625 15.1875 C-46.27163235 18.2199507 -49.861369 21.92178558 -52 28 C-52.85878667 33.59928911 -52.94553874 38.41834096 -49.625 43.1875 C-42.4076188 51.40038206 -33.16122955 56.85413219 -23.9765625 62.57055664 C-10.64943749 70.91189013 1.08165775 79.93885917 5.75 95.5 C6.78211195 105.82111946 6.01891898 115.3273501 -0.2421875 123.90234375 C-9.14540429 134.52684912 -20.35708552 139.16737331 -33.89892578 140.81591797 C-46.59559084 141.92831461 -60.44779109 139.38539904 -72 134 C-73.3974093 131.20518141 -73.13211589 128.86675981 -73.125 125.75 C-73.12757812 124.63109375 -73.13015625 123.5121875 -73.1328125 122.359375 C-73.00608539 119.15392456 -72.6008965 116.14755311 -72 113 C-67.33383597 113.56921579 -63.71713439 114.88415718 -59.5 116.9375 C-50.1346639 121.47522833 -40.12692007 124.63030658 -29.625 122.3125 C-22.92593279 119.88697566 -18.58471762 117.48006647 -15 111 C-13.23507232 105.70521696 -13.26056447 100.99388831 -15.5625 95.9375 C-21.57935166 85.32558697 -32.89725522 79.37091986 -42.99609375 73.15625 C-55.07037189 65.72592499 -67.24538593 56.96534625 -72 43 C-74.10909712 31.93120457 -72.04563878 22.55008489 -66.3203125 12.93359375 C-64.49064748 10.25405474 -62.4384032 8.1336028 -60 6 C-59.2575 5.319375 -58.515 4.63875 -57.75 3.9375 C-41.50088309 -7.51074146 -18.11152154 -6.03717385 0 0 Z " fill="#000000" transform="translate(74,534)"/>
<path d="M0 0 C0.804375 -0.00128906 1.60875 -0.00257813 2.4375 -0.00390625 C3.283125 -0.00003906 4.12875 0.00382813 5 0.0078125 C6.2684375 0.00201172 6.2684375 0.00201172 7.5625 -0.00390625 C8.366875 -0.00261719 9.17125 -0.00132812 10 0 C10.7425 0.00112793 11.485 0.00225586 12.25 0.00341797 C14 0.1328125 14 0.1328125 15 1.1328125 C15.09588124 2.68901646 15.12188033 4.24957704 15.12025452 5.80873108 C15.12162918 6.81980423 15.12300385 7.83087738 15.12442017 8.87258911 C15.12082489 9.99108246 15.11722961 11.10957581 15.11352539 12.26196289 C15.11367142 13.43253738 15.11381744 14.60311188 15.1139679 15.80915833 C15.11338895 19.02802193 15.10835991 22.24684254 15.10139394 25.46569753 C15.09515957 28.8262865 15.09455654 32.18687623 15.09336853 35.54747009 C15.09025546 41.91523592 15.0820424 48.28298466 15.07201904 54.65074295 C15.05976303 62.60895556 15.05427525 70.56717093 15.04882812 78.52539062 C15.03907697 92.72787791 15.01904669 106.93032788 15 121.1328125 C33.15 121.1328125 51.3 121.1328125 70 121.1328125 C70 127.0728125 70 133.0128125 70 139.1328125 C60.36886982 139.15536459 50.73775705 139.1737282 41.10660648 139.18462467 C36.63494451 139.18985324 32.16330147 139.19695039 27.69165039 139.20825195 C23.37988027 139.21908179 19.06812841 139.22508954 14.75634575 139.22768974 C13.10763702 139.22954382 11.45892934 139.2331641 9.81022835 139.23854256 C7.50896128 139.24575428 5.2077706 139.24680339 2.90649414 139.24633789 C1.5941127 139.2485585 0.28173126 139.25077911 -1.07041931 139.25306702 C-4 139.1328125 -4 139.1328125 -5 138.1328125 C-5.09852467 136.36352293 -5.12632089 134.59026785 -5.12698364 132.8182373 C-5.12980347 131.6655687 -5.13262329 130.51290009 -5.13552856 129.32530212 C-5.13350433 128.04941727 -5.1314801 126.77353241 -5.12939453 125.45898438 C-5.13074856 124.11072238 -5.1325285 122.76246075 -5.13470459 121.41419983 C-5.13927873 117.74281222 -5.13748945 114.07145259 -5.1343255 110.40006447 C-5.1318018 106.56614733 -5.13413947 102.73223266 -5.13571167 98.89831543 C-5.13753334 92.45873584 -5.13512713 86.0191677 -5.13037109 79.57958984 C-5.12492848 72.12409087 -5.12669114 64.66861924 -5.1321975 57.21312094 C-5.13672871 50.82332674 -5.13737914 44.4335408 -5.13475883 38.04374552 C-5.1331961 34.22243202 -5.13300217 30.4011314 -5.13629532 26.57981873 C-5.13917416 22.98807425 -5.13719812 19.39636519 -5.13140106 15.80462456 C-5.12943793 13.84985783 -5.13242727 11.89508813 -5.13552856 9.94032288 C-5.13270874 8.78765427 -5.12988892 7.63498566 -5.12698364 6.4473877 C-5.12660662 5.4393232 -5.12622959 4.4312587 -5.12584114 3.39264679 C-4.91228385 -0.44237949 -3.42505924 0.005203 0 0 Z " fill="#000000" transform="translate(247,531.8671875)"/>
<path d="M0 0 C6.6 0 13.2 0 20 0 C20.70177368 2.08344727 20.70177368 2.08344727 21.41772461 4.20898438 C23.19732566 9.48869106 24.9823456 14.76655363 26.76879883 20.04394531 C27.53324032 22.30453311 28.29631715 24.56558295 29.05786133 26.82714844 C34.39548831 42.67422074 40.02193094 58.38288111 46 74 C48.18398932 70.72401601 49.47252836 67.39917336 50.8359375 63.73828125 C51.11163071 63.0071814 51.38732391 62.27608154 51.67137146 61.52282715 C52.57617114 59.12071806 53.4755849 56.71662981 54.375 54.3125 C54.99925522 52.65246079 55.62385168 50.99254987 56.2487793 49.33276367 C58.17097663 44.22375821 60.08605123 39.1121002 62 34 C62.60527707 32.38410375 63.2105824 30.76821809 63.81591797 29.15234375 C64.10658142 28.3763533 64.39724487 27.60036285 64.69671631 26.80085754 C65.26455875 25.28495226 65.83246887 23.76907231 66.40045166 22.2532196 C67.72073801 18.72924811 69.03960651 15.20476339 70.35498047 11.67895508 C70.82648933 10.41747745 71.29800581 9.15600268 71.76953125 7.89453125 C72.17792236 6.79987549 72.58631348 5.70521973 73.00708008 4.57739258 C74 2 74 2 75 0 C81.27 0 87.54 0 94 0 C88.85621261 15.1115412 82.94400796 29.89476924 76.98712158 44.69866943 C75.92759761 47.33393306 74.8712491 49.97046373 73.81503105 52.60705376 C67.60897261 68.09826904 61.34511685 83.56514372 55 99 C48.73 99 42.46 99 36 99 C15.83992726 46.52438804 15.83992726 46.52438804 6.1875 20.25 C5.8659494 19.37965118 5.5443988 18.50930237 5.21310425 17.61257935 C4.31777339 15.18632449 3.42913246 12.7577406 2.54296875 10.328125 C2.28151062 9.62133102 2.02005249 8.91453705 1.75067139 8.18632507 C0.71017336 5.30919038 0 3.08655562 0 0 Z " fill="#000000" transform="translate(600,572)"/>
<path d="M0 0 C0.23485107 0.73186523 0.46970215 1.46373047 0.71166992 2.21777344 C8.64485171 26.68079363 18.52575138 49.77305313 31.30615234 72.16381836 C31.77746582 72.99534424 32.2487793 73.82687012 32.734375 74.68359375 C33.14913086 75.40087646 33.56388672 76.11815918 33.99121094 76.85717773 C35.10539657 79.22387844 35.58622993 81.42521142 36 84 C34.24919913 83.96679516 32.49906579 83.89720607 30.75 83.8125 C29.77546875 83.77769531 28.8009375 83.74289063 27.796875 83.70703125 C23.94171538 82.73247274 23.13890859 81.33773236 21 78 C19.31779637 74.98337656 17.76965852 71.91369238 16.25 68.8125 C15.83878906 67.99330078 15.42757812 67.17410156 15.00390625 66.33007812 C12 60.26737697 12 60.26737697 12 58 C11.25278687 58.55143677 11.25278687 58.55143677 10.49047852 59.11401367 C8.18509086 60.810602 5.87386066 62.49905924 3.5625 64.1875 C2.77939453 64.76564453 1.99628906 65.34378906 1.18945312 65.93945312 C-12.57710904 75.96694902 -12.57710904 75.96694902 -18.72265625 76.05078125 C-19.82480469 75.80714844 -20.92695313 75.56351562 -22.0625 75.3125 C-23.18785156 75.08175781 -24.31320312 74.85101563 -25.47265625 74.61328125 C-26.30667969 74.41089844 -27.14070313 74.20851563 -28 74 C-26.77907521 70.33722563 -25.91298113 70.08915057 -22.625 68.2578125 C-21.72136719 67.74863281 -20.81773437 67.23945312 -19.88671875 66.71484375 C-18.93410156 66.19019531 -17.98148437 65.66554688 -17 65.125 C-16.07832031 64.60808594 -15.15664063 64.09117188 -14.20703125 63.55859375 C-11.47647559 62.02963663 -8.73915686 60.51348341 -6 59 C-4.27062182 58.03944321 -2.54143788 57.07853658 -0.8125 56.1171875 C0.45830236 55.41140256 1.729123 54.70565053 3 54 C-3.69848091 52.58573709 -10.41871104 51.42706463 -17.17895508 50.35009766 C-30.19130261 48.27251726 -43.00677725 45.82642315 -55.83374023 42.79199219 C-56.89536377 42.54352539 -57.9569873 42.29505859 -59.05078125 42.0390625 C-59.98575439 41.81428223 -60.92072754 41.58950195 -61.8840332 41.35791016 C-62.58230225 41.2397998 -63.28057129 41.12168945 -64 41 C-64.33 41.33 -64.66 41.66 -65 42 C-61.61611767 45.47905403 -58.2099285 48.86771388 -54.5 52 C-50.13578726 55.75807208 -46.07596947 59.81046917 -42 63.875 C-41.31615234 64.55433594 -40.63230469 65.23367187 -39.92773438 65.93359375 C-39.29158203 66.57167969 -38.65542969 67.20976563 -38 67.8671875 C-37.4225 68.44581543 -36.845 69.02444336 -36.25 69.62060547 C-35 71 -35 71 -35 72 C-37.16739524 71.76419543 -39.33230818 71.52141652 -41.49609375 71.25390625 C-43.92843301 70.95925874 -43.92843301 70.95925874 -46.09765625 71.02734375 C-49.39162864 70.98150318 -51.32175753 70.56473495 -53.890625 68.42578125 C-56.06218143 66.03795192 -58.0316022 63.55856998 -60 61 C-60.93455189 59.82030873 -61.87084932 58.64199885 -62.80859375 57.46484375 C-65.14767011 54.51806428 -67.46166962 51.55283993 -69.76757812 48.58007812 C-71.49120951 46.37022426 -73.24327812 44.18358888 -75 42 C-80.92602427 42.85246753 -85.07410307 47.81908755 -89 52 C-90.45652647 54.38144239 -91.19809853 56.30790221 -92 59 C-96.3694206 58.74297526 -98.51822991 58.39976667 -101.9375 55.5625 C-104 53 -104 53 -104 51 C-104.66 51 -105.32 51 -106 51 C-105.04475989 45.48348837 -101.34921591 43.18131458 -97 40 C-71.8496135 23.26429452 -42.59109348 12.84204896 -14.3125 2.6875 C-13.14835571 2.26174683 -13.14835571 2.26174683 -11.96069336 1.82739258 C-7.79546685 0.37495404 -4.38367004 -0.10654081 0 0 Z M-12.95703125 8.67578125 C-13.99474419 9.09773521 -13.99474419 9.09773521 -15.05342102 9.5282135 C-17.3093486 10.44940976 -19.56119469 11.38006905 -21.8125 12.3125 C-22.5745575 12.62624573 -23.33661499 12.93999146 -24.12176514 13.26324463 C-37.05693943 18.59983451 -49.64096091 24.42291981 -62 31 C-62 31.99 -62 32.98 -62 34 C-60.74155273 34.19110352 -59.48310547 34.38220703 -58.18652344 34.57910156 C-53.41447915 35.30504988 -48.64340084 36.03719333 -43.87255859 36.77099609 C-41.82690958 37.08480089 -39.78101873 37.39703408 -37.73486328 37.70751953 C-26.14449562 39.46743285 -14.61894434 41.33057608 -3.16668701 43.85626221 C1.43748336 44.88347341 1.43748336 44.88347341 6 44 C5.60167969 42.76507813 5.20335937 41.53015625 4.79296875 40.2578125 C1.21604153 28.91171821 -1.3776667 17.7832629 -3 6 C-6.73312646 6 -9.56458103 7.27781875 -12.95703125 8.67578125 Z " fill="#C7CAD0" transform="translate(495,1)"/>
<path d="M0 0 C1 1 1 1 1.11352539 2.76586914 C1.10828857 3.51473389 1.10305176 4.26359863 1.09765625 5.03515625 C1.09443359 5.84404297 1.09121094 6.65292969 1.08789062 7.48632812 C1.07532227 8.7615332 1.07532227 8.7615332 1.0625 10.0625 C1.05798828 10.91650391 1.05347656 11.77050781 1.04882812 12.65039062 C1.03700373 14.76695663 1.01906769 16.88348685 1 19 C0.01 18.88140625 -0.98 18.7628125 -2 18.640625 C-11.54649108 17.47927344 -11.54649108 17.47927344 -20.36328125 20.65234375 C-27.28493202 26.35155501 -31.20168542 33.09823654 -32.24511719 42.11914062 C-32.69136899 47.76221894 -32.80671369 53.41481612 -32.91894531 59.07275391 C-33.01592967 63.77182123 -33.1440011 68.46970268 -33.2734375 73.16796875 C-33.53515946 82.77822425 -33.77151145 92.38889656 -34 102 C-40.27 102 -46.54 102 -53 102 C-53 69.33 -53 36.66 -53 3 C-46.73 3 -40.46 3 -34 3 C-33.67 6.96 -33.34 10.92 -33 15 C-32.175 13.783125 -31.35 12.56625 -30.5 11.3125 C-25.14551735 4.26055898 -19.37882585 1.55540465 -10.6953125 0.2734375 C-7.07044568 -0.09430261 -3.64021159 -0.20223398 0 0 Z " fill="#000000" transform="translate(848,569)"/>
<path d="M0 0 C0 6.27 0 12.54 0 19 C-1.794375 18.608125 -3.58875 18.21625 -5.4375 17.8125 C-11.51406116 16.77819172 -15.45824753 17.51738902 -21 20 C-21.99 20.33 -22.98 20.66 -24 21 C-24 21.66 -24 22.32 -24 23 C-24.66 23 -25.32 23 -26 23 C-26.2475 23.66 -26.495 24.32 -26.75 25 C-28.02585897 28.06206153 -29.51349696 30.92857744 -31.09765625 33.83984375 C-32.99924688 38.39213647 -33.13204482 43.21898347 -33.20532227 48.09716797 C-33.22526749 49.27793915 -33.24521271 50.45871033 -33.26576233 51.67526245 C-33.28247482 52.93484772 -33.29918732 54.19443298 -33.31640625 55.4921875 C-33.33718735 56.79326447 -33.35796844 58.09434143 -33.37937927 59.43484497 C-33.43431116 62.87722719 -33.48384652 66.3196663 -33.53222656 69.762146 C-33.58265387 73.28158573 -33.6382286 76.80094386 -33.69335938 80.3203125 C-33.8005871 87.21347223 -33.90163285 94.10670819 -34 101 C-40.27 101 -46.54 101 -53 101 C-53 68.33 -53 35.66 -53 2 C-46.73 2 -40.46 2 -34 2 C-33.67 5.63 -33.34 9.26 -33 13 C-31.88625 11.5975 -30.7725 10.195 -29.625 8.75 C-21.10034511 -0.69704338 -12.03310934 -0.43756761 0 0 Z " fill="#000000" transform="translate(596,570)"/>
<path d="M0 0 C2.97 0 5.94 0 9 0 C13.46357707 9.47254298 17.81907336 18.98773431 22.06616211 28.55957031 C22.43362549 29.38295898 22.80108887 30.20634766 23.1796875 31.0546875 C23.50694824 31.79187012 23.83420898 32.52905273 24.17138672 33.28857422 C24.87862324 34.98805499 24.87862324 34.98805499 26 36 C31.28 24.12 36.56 12.24 42 0 C44.97 0 47.94 0 51 0 C52.94698265 1.94698265 52.13275551 4.90082601 52.13867188 7.49169922 C52.13416016 8.42256348 52.12964844 9.35342773 52.125 10.3125 C52.12306641 11.26914551 52.12113281 12.22579102 52.11914062 13.21142578 C52.0468788 25.81509186 51.52038779 38.4082763 51 51 C48.69 51 46.38 51 44 51 C43.67 39.78 43.34 28.56 43 17 C38.05 28.22 33.1 39.44 28 51 C26.35 50.67 24.7 50.34 23 50 C21.4720221 47.53048844 20.3477951 45.33247703 19.23046875 42.68359375 C18.90460281 41.95253922 18.57873688 41.22148468 18.24299622 40.46827698 C17.2065486 38.132127 16.19691461 35.78543918 15.1875 33.4375 C14.48936555 31.85144856 13.7895158 30.26615096 13.08789062 28.68164062 C11.36850748 24.79725905 9.68586048 20.89974518 8 17 C7.67 28.22 7.34 39.44 7 51 C4.69 51 2.38 51 0 51 C0 34.17 0 17.34 0 0 Z " fill="#1F1B1B" transform="translate(7,468)"/>
<path d="M0 0 C4.22667278 2.56161987 6.083012 6.64137694 7.41796875 11.234375 C8.80564484 17.76750493 8.33889589 24.52140928 4.859375 30.3125 C0.95160402 34.65446776 -2.4391832 36.9625455 -8.2890625 37.515625 C-13.35287133 37.6222315 -16.82698214 37.25362013 -21.140625 34.3125 C-25.99189538 29.24071734 -28.20058229 25.40346982 -28.453125 18.4375 C-28.29921657 11.53214174 -26.01858371 6.33392809 -21.140625 1.3125 C-14.98374918 -1.80421334 -6.55878545 -2.10647124 0 0 Z M-18.140625 8.3125 C-21.0039823 13.08476217 -21.6287596 16.72349014 -20.79296875 22.2265625 C-19.76394908 25.51696071 -17.80434927 27.23349569 -15.140625 29.3125 C-12.04013572 30.86274464 -9.56168282 30.60242015 -6.140625 30.3125 C-2.75122944 28.17570715 -1.41479943 27.1350233 -0.140625 23.3125 C0.25495981 18.39811954 0.48891919 13.85488326 -1.390625 9.25 C-4.14678275 6.19853964 -5.99315055 5.43457175 -10.078125 5 C-13.69884299 5.36946102 -15.34804802 5.97277334 -18.140625 8.3125 Z " fill="#1F1B1B" transform="translate(233.140625,482.6875)"/>
<path d="M0 0 C1.83498047 -0.03867187 1.83498047 -0.03867187 3.70703125 -0.078125 C8.55211892 0.37865094 11.03629537 2.06590381 14.375 5.5 C17.82940292 10.74116305 18.73110864 16.05286154 18.1875 22.25 C16.86927013 27.28236656 14.96131884 31.58100946 11.1875 35.25 C5.90902457 38.25148603 1.1359574 39.15964383 -4.8125 38.25 C-10.6683555 36.4187519 -13.88762004 33.74877433 -16.8125 28.25 C-18.87435331 22.06444008 -18.90979467 14.71260471 -16.125 8.75 C-12.1787305 1.99499776 -7.50681023 0.09432641 0 0 Z M-7.8125 9.25 C-11.01104451 14.04781676 -11.10774804 18.47851178 -10.1875 24 C-8.56685455 27.83061651 -7.46660464 29.26407357 -3.8125 31.25 C0.53859257 32.10436433 3.33066347 31.77868637 7.125 29.4375 C10.90172202 25.43188574 10.46148383 21.14446949 10.40625 15.91796875 C10.13494101 12.60896803 9.41864345 10.72019453 7.1875 8.25 C2.15865843 4.60842507 -3.08891987 5.7073149 -7.8125 9.25 Z " fill="#1F1B1B" transform="translate(155.8125,481.75)"/>
<path d="M0 0 C1 1 1 1 1.0625 3.5625 C1.041875 4.366875 1.02125 5.17125 1 6 C-2 7 -2 7 -4.625 7.5 C-6.94461452 7.76252526 -6.94461452 7.76252526 -8 9 C-8.23075082 10.34747084 -8.41153063 11.70377565 -8.5625 13.0625 C-8.706875 14.361875 -8.85125 15.66125 -9 17 C-6.36 17 -3.72 17 -1 17 C-0.95745644 18.99954746 -0.95919217 21.00041636 -1 23 C-1.33 23.33 -1.66 23.66 -2 24 C-4.31 24 -6.62 24 -9 24 C-9 33.9 -9 43.8 -9 54 C-11.31 54 -13.62 54 -16 54 C-16 44.1 -16 34.2 -16 24 C-17.65 24 -19.3 24 -21 24 C-22 23 -22 23 -22.0625 19.9375 C-22.041875 18.968125 -22.02125 17.99875 -22 17 C-20.02 17 -18.04 17 -16 17 C-16.05800781 16.34773438 -16.11601562 15.69546875 -16.17578125 15.0234375 C-16.5904942 6.98985521 -16.5904942 6.98985521 -13.8125 3.5 C-9.08174656 -0.70511417 -6.18636744 -1.54659186 0 0 Z " fill="#1F1B1B" transform="translate(265,465)"/>
<path d="M0 0 C1.74796875 -0.02126953 1.74796875 -0.02126953 3.53125 -0.04296875 C6.5 0.1875 6.5 0.1875 8.5 2.1875 C8.625 5.3125 8.625 5.3125 8.5 8.1875 C7.72914063 8.10371094 6.95828125 8.01992188 6.1640625 7.93359375 C5.16117188 7.83175781 4.15828125 7.72992188 3.125 7.625 C2.12726563 7.52058594 1.12953125 7.41617187 0.1015625 7.30859375 C-2.484037 6.97605292 -2.484037 6.97605292 -4.5 8.1875 C-4.33364684 10.61294311 -4.33364684 10.61294311 -3.5 13.1875 C-1.58213705 14.68622559 -1.58213705 14.68622559 0.8125 15.6875 C4.71181477 17.69303929 7.36724505 19.20017553 9.5 23.1875 C10.09618454 26.00217894 10.16461759 28.38133686 9.5 31.1875 C6.8979466 34.51234601 4.3670316 36.56607302 0.5 38.1875 C-4.48067476 38.79337815 -8.98507216 38.51778534 -13.5 36.1875 C-13.5 33.5475 -13.5 30.9075 -13.5 28.1875 C-12.93539062 28.34089844 -12.37078125 28.49429687 -11.7890625 28.65234375 C-9.47716719 29.19283805 -7.23505098 29.50136587 -4.875 29.75 C-4.09898437 29.83378906 -3.32296875 29.91757812 -2.5234375 30.00390625 C-0.50665526 30.2176208 -0.50665526 30.2176208 1.5 30.1875 C1.31019413 27.33209056 1.31019413 27.33209056 -0.5 24.1875 C-3.24103109 22.44824544 -6.02696394 21.04994048 -8.96875 19.6796875 C-11.73546607 18.0486913 -12.49177088 17.18338081 -13.5 14.1875 C-13.93002518 10.87016291 -14.21759662 8.38260514 -12.44921875 5.4375 C-8.42531227 0.49960886 -6.18446481 0.03420611 0 0 Z " fill="#1E1A1A" transform="translate(191.5,481.8125)"/>
<path d="M0 0 C0 3.3 0 6.6 0 10 C2.64 10 5.28 10 8 10 C8 11.98 8 13.96 8 16 C5.36 16 2.72 16 0 16 C0.33 23.59 0.66 31.18 1 39 C3.31 39 5.62 39 8 39 C8.33 40.98 8.66 42.96 9 45 C5.27420911 47.48386059 3.41288598 47.3804212 -1 47 C-4.16883665 45.66204675 -5.58978836 44.82745904 -7.12451172 41.73168945 C-8.06124046 38.80891817 -8.22951527 36.54161677 -8.1953125 33.48046875 C-8.18886719 32.45888672 -8.18242187 31.43730469 -8.17578125 30.38476562 C-8.15902344 29.32966797 -8.14226562 28.27457031 -8.125 27.1875 C-8.11597656 26.11306641 -8.10695313 25.03863281 -8.09765625 23.93164062 C-8.07415306 21.28753146 -8.04129575 18.64388128 -8 16 C-9.98 16 -11.96 16 -14 16 C-14 14.02 -14 12.04 -14 10 C-12.02 10 -10.04 10 -8 10 C-8 7.03 -8 4.06 -8 1 C-5 0 -5 0 0 0 Z " fill="#1E1A1A" transform="translate(279,473)"/>
<path d="M0 0 C0 2.64 0 5.28 0 8 C-0.86625 7.67 -1.7325 7.34 -2.625 7 C-7.20238734 5.64373708 -10.34556271 5.24798305 -14.75 7.25 C-17.66901873 9.5203479 -18.79495054 11.51139417 -19.30078125 15.18359375 C-19.32555605 19.94861418 -19.14317911 23.15833664 -16 27 C-11.54547875 29.96968084 -7.09423683 29.34903947 -2 28.5 C-1.01 28.2525 -1.01 28.2525 0 28 C0 30.31 0 32.62 0 35 C-4.59080672 37.36944863 -8.95020064 37.68172291 -14 37 C-19.23483784 35.2949912 -23.15539862 32.8139408 -26 28 C-28.30513364 21.41390388 -28.85025583 15.3377367 -26.05859375 8.79296875 C-23.85744613 4.87739593 -21.34886586 1.68224512 -17.23828125 -0.38671875 C-12.15829183 -1.77861812 -4.80278716 -2.40139358 0 0 Z " fill="#1E1B1B" transform="translate(110,483)"/>
<path d="M0 0 C2.31 0 4.62 0 7 0 C7.33 0.99 7.66 1.98 8 3 C8.680625 2.505 9.36125 2.01 10.0625 1.5 C13.59465009 -0.30365111 16.08636991 -0.23021353 20 0 C20 2.64 20 5.28 20 8 C18.741875 7.9175 17.48375 7.835 16.1875 7.75 C12.7448438 7.69360219 12.7448438 7.69360219 10.0625 9.8125 C8.34838936 13.34155132 7.84043793 16.2291768 7.68359375 20.10546875 C7.64169922 21.08837891 7.59980469 22.07128906 7.55664062 23.08398438 C7.51732422 24.10814453 7.47800781 25.13230469 7.4375 26.1875 C7.37272461 27.74114258 7.37272461 27.74114258 7.30664062 29.32617188 C7.20055634 31.8839819 7.09849854 34.44188845 7 37 C4.69 37 2.38 37 0 37 C0 24.79 0 12.58 0 0 Z " fill="#1F1B1B" transform="translate(117,482)"/>
<path d="M0 0 C2.8100346 1.79363911 4.50940468 3.01880935 6 6 C6.55512815 10.63213493 6.6364242 13.98172127 4.125 18 C0.59185943 21.32530877 -2.04661263 21.33074386 -6.73828125 21.29296875 C-10.0542278 20.86344199 -11.74987627 19.39075646 -14 17 C-15.59689041 13.80621918 -15.37348957 10.47478685 -15 7 C-13.76467542 4.15875347 -12.7444561 2.57902141 -10.3125 0.6875 C-6.84767407 -0.34258338 -3.54883321 -0.5914722 0 0 Z M-7 3 C-7 3.33 -7 3.66 -7 4 C-5.35 4 -3.7 4 -2 4 C-2 3.67 -2 3.34 -2 3 C-3.65 3 -5.3 3 -7 3 Z M-10 5 C-12.37222995 7.89579382 -12.37222995 7.89579382 -11.75 11.5625 C-11.3141556 15.04592612 -11.3141556 15.04592612 -9 17 C-9 13.04 -9 9.08 -9 5 C-9.33 5 -9.66 5 -10 5 Z M1 6 C-0.28776153 8.77825456 -0.28776153 8.77825456 -1 12 C0.24348469 14.38305196 0.24348469 14.38305196 2 16 C3.4783226 13.04335481 3.06032783 10.25770263 3 7 C2.34 6.67 1.68 6.34 1 6 Z M-5 7 C-5 7.66 -5 8.32 -5 9 C-4.34 9 -3.68 9 -3 9 C-3 8.34 -3 7.68 -3 7 C-3.66 7 -4.32 7 -5 7 Z M-5 13 C-5.33 14.65 -5.66 16.3 -6 18 C-5.01 18.495 -5.01 18.495 -4 19 C-3.34 18.34 -2.68 17.68 -2 17 C-2.99 15.68 -3.98 14.36 -5 13 Z " fill="#1B1717" transform="translate(305,475)"/>
<path d="M0 0 C2.31 0 4.62 0 7 0 C8 1 8 1 8.11352539 4.41821289 C8.11336628 5.93636988 8.10767226 7.45453229 8.09765625 8.97265625 C8.0962413 9.77029892 8.09482635 10.56794159 8.09336853 11.38975525 C8.08775316 13.94737435 8.07519812 16.50490718 8.0625 19.0625 C8.05748698 20.79231645 8.05292373 22.52213426 8.04882812 24.25195312 C8.03777875 28.50133553 8.02050386 32.75065312 8 37 C5.36 37 2.72 37 0 37 C0 24.79 0 12.58 0 0 Z " fill="#1F1818" transform="translate(68,482)"/>
<path d="M0 0 C2.87029869 1.79393668 4.49131638 2.98263276 6 6 C6.42071592 9.05920574 6.48514117 11.9467746 6 15 C3.81840855 17.75569447 2.12822506 19.43588747 -1 21 C-5.97067782 21.3751455 -9.05151502 21.15878799 -13 18 C-15.57073939 14.57234748 -15.43037452 11.16028704 -15 7 C-11.12075728 0.0173631 -7.68264172 -0.99516085 0 0 Z M-10 4 C-12.45331002 7.67996503 -12.39507893 9.65413172 -12 14 C-10.515 14.99 -10.515 14.99 -9 16 C-9 12.04 -9 8.08 -9 4 C-9.33 4 -9.66 4 -10 4 Z M-1 4 C-0.814375 4.928125 -0.62875 5.85625 -0.4375 6.8125 C0 10 0 10 -1 13 C-0.67 13.66 -0.34 14.32 0 15 C0.99 14.67 1.98 14.34 3 14 C3.29562367 8.67829506 3.29562367 8.67829506 1 4 C0.34 4 -0.32 4 -1 4 Z M-6 7 C-6 7.66 -6 8.32 -6 9 C-5.01 9 -4.02 9 -3 9 C-3 8.34 -3 7.68 -3 7 C-3.99 7 -4.98 7 -6 7 Z M-6 12 C-6 13.98 -6 15.96 -6 18 C-4.68 17.67 -3.36 17.34 -2 17 C-2.96885372 15.31503702 -3.96986723 13.64821244 -5 12 C-5.33 12 -5.66 12 -6 12 Z " fill="#1B1717" transform="translate(867,569)"/>
<path d="M0 0 C5.28 0 10.56 0 16 0 C17.32 2.64 18.64 5.28 20 8 C21.32 5.36 22.64 2.72 24 0 C25.32 0 26.64 0 28 0 C28 5.28 28 10.56 28 16 C26.68 15.67 25.36 15.34 24 15 C23.67 14.01 23.34 13.02 23 12 C22.34 13.32 21.68 14.64 21 16 C20.34 16 19.68 16 19 16 C18.34 14.68 17.68 13.36 17 12 C16.34 13.32 15.68 14.64 15 16 C14.01 16 13.02 16 12 16 C12 11.71 12 7.42 12 3 C10.68 3 9.36 3 8 3 C8 6.96 8 10.92 8 15 C6.68 15.33 5.36 15.66 4 16 C4 11.71 4 7.42 4 3 C2.68 3 1.36 3 0 3 C0 2.01 0 1.02 0 0 Z " fill="#1B1616" transform="translate(547,467)"/>
<path d="M0 0 C0.625 2.3125 0.625 2.3125 1 5 C0.01 6.485 0.01 6.485 -1 8 C-4.125 8.1875 -4.125 8.1875 -7 8 C-9.125 3.375 -9.125 3.375 -8 0 C-5.13822943 -1.43088528 -3.06624227 -0.59991697 0 0 Z " fill="#1C1818" transform="translate(76,467)"/>
<path d="M0 0 C0.66 0.33 1.32 0.66 2 1 C1.690625 1.721875 1.38125 2.44375 1.0625 3.1875 C-0.07986579 5.92995589 -0.07986579 5.92995589 -0.4375 8.6875 C-1 11 -1 11 -4 13 C-4.45732667 7.28341664 -3.52273754 4.51350747 0 0 Z " fill="#161010" transform="translate(856,570)"/>
</svg>
