<?xml version="1.0" encoding="UTF-8"?>
<svg version="1.1" xmlns="http://www.w3.org/2000/svg" width="1280" height="304">
<path d="M0 0 C1.75287477 -0.00464185 3.50574855 -0.00966828 5.25862122 -0.01504517 C9.9733983 -0.02803046 14.68816126 -0.03458537 19.40295339 -0.03905582 C22.35751418 -0.04200618 25.31207127 -0.04611423 28.26663017 -0.05056 C37.5378718 -0.0641917 46.80910476 -0.07388221 56.0803557 -0.07776189 C66.73480644 -0.08224711 77.38912918 -0.0998348 88.04354101 -0.12876248 C96.31660788 -0.15043625 104.58963885 -0.16046902 112.86273378 -0.16180301 C117.78815348 -0.16284596 122.71345214 -0.16864581 127.63884163 -0.18662262 C132.27078593 -0.2032048 136.90251939 -0.20521005 141.53448296 -0.19648361 C143.22341862 -0.19571893 144.91236613 -0.19997983 146.60127258 -0.20994186 C171.37084227 -0.34735956 193.06638829 6.69190985 211.14038086 24.21972656 C229.97360723 43.21677491 235.17405852 66.92533194 235.109375 92.84863281 C235.10909261 94.43599953 235.10925188 96.02336639 235.1098175 97.61073303 C235.11010344 101.90145632 235.10423964 106.19215143 235.09724355 110.48286819 C235.0909761 114.97384751 235.09040353 119.46482753 235.08921814 123.95581055 C235.08611481 132.45184088 235.0779149 140.94785829 235.06786865 149.44388294 C235.05667649 159.11981972 235.05118925 168.79575712 235.04617321 178.47169876 C235.03573143 198.36818559 235.01739838 218.2646547 234.99584961 238.16113281 C217.50584961 238.16113281 200.01584961 238.16113281 181.99584961 238.16113281 C181.98650391 233.38233643 181.9771582 228.60354004 181.9675293 223.67993164 C181.9337239 207.87003048 181.87835456 192.06025876 181.81194687 176.25046253 C181.772218 166.66737925 181.73979434 157.08437735 181.72485352 147.5012207 C181.71180502 139.1439056 181.68475913 130.78677003 181.64123654 122.42955607 C181.61869338 118.00864169 181.60293461 113.58794816 181.60396576 109.16697121 C181.60471663 104.99636435 181.58659659 100.82624437 181.55468178 96.65576363 C181.54624011 95.13415502 181.54439336 93.61249143 181.55004692 92.0908699 C181.59366948 78.53255785 179.9030615 66.15194986 169.99584961 56.16113281 C157.7284181 45.11489358 141.81713151 46.84901463 125.99584961 46.16113281 C125.99584961 109.52113281 125.99584961 172.88113281 125.99584961 238.16113281 C108.50584961 238.16113281 91.01584961 238.16113281 72.99584961 238.16113281 C72.99584961 174.80113281 72.99584961 111.44113281 72.99584961 46.16113281 C54.51584961 46.16113281 36.03584961 46.16113281 16.99584961 46.16113281 C16.99584961 109.52113281 16.99584961 172.88113281 16.99584961 238.16113281 C-0.49415039 238.16113281 -17.98415039 238.16113281 -36.00415039 238.16113281 C-36.00415039 160.28113281 -36.00415039 82.40113281 -36.00415039 2.16113281 C-25.13182737 -1.46297486 -11.38268774 0.00713492 0 0 Z " fill="#166EC0" transform="translate(326.004150390625,32.8388671875)"/>
<path d="M0 0 C23.32581123 22.41915426 36.1352756 53.65502759 37.4609375 85.75 C38.00796243 117.04720161 27.62269657 146.81789613 7.4609375 170.75 C6.71972656 171.64332031 5.97851562 172.53664062 5.21484375 173.45703125 C-15.33308588 197.30142018 -46.52948232 211.70531187 -77.64648438 214.34033203 C-111.14440329 216.69903562 -143.0157274 206.60930005 -168.5390625 184.75 C-169.36019531 184.06292969 -170.18132812 183.37585938 -171.02734375 182.66796875 C-196.04609911 161.07324212 -209.69164175 130.26779657 -212.3984375 97.70166016 C-214.71234201 65.58820074 -203.87114563 33.17928439 -182.97265625 8.75 C-160.62336899 -16.4739749 -131.26378855 -32.45906083 -97.3984375 -35.08984375 C-60.26443353 -37.16975381 -27.64096225 -24.49414501 0 0 Z M-135.5390625 35.75 C-136.26738281 36.36488281 -136.99570313 36.97976562 -137.74609375 37.61328125 C-151.15283509 49.96229152 -158.46650393 67.82994424 -159.7578125 85.79296875 C-160.37431172 106.88237945 -152.43182076 126.0192688 -138.1171875 141.33203125 C-123.26244809 155.26397624 -104.76226657 161.93895544 -84.5390625 161.75 C-69.5517186 160.9965379 -55.59232414 155.58634384 -43.5390625 146.75 C-42.9203125 146.31429687 -42.3015625 145.87859375 -41.6640625 145.4296875 C-27.91586337 134.80029281 -18.75848855 116.65819127 -16.24560547 99.77880859 C-13.83631657 79.67219757 -19.00248351 60.64330863 -31.3515625 44.5625 C-43.78825496 29.73683837 -61.16326906 19.83979929 -80.5390625 17.75 C-101.32393333 16.337917 -119.67861901 22.29756545 -135.5390625 35.75 Z " fill="#156EC0" transform="translate(239.5390625,62.25)"/>
<path d="M0 0 C25.34965436 21.16439259 42.05947698 49.77967095 45.9765625 82.8203125 C48.25609146 117.63770581 40.63229862 150.37831622 17.82421875 177.3671875 C15.58752184 179.89870386 13.29824289 182.36663021 10.9765625 184.8203125 C10.20570313 185.655625 9.43484375 186.4909375 8.640625 187.3515625 C-12.9054627 209.94357679 -44.60724772 221.80765997 -75.48046875 222.81640625 C-108.87625453 223.22018031 -139.49201682 211.25278809 -164.0234375 188.8203125 C-164.82265625 188.10359375 -165.621875 187.386875 -166.4453125 186.6484375 C-190.1117326 164.32479301 -202.39619059 131.77571034 -203.37280273 99.67993164 C-203.7387572 65.99469446 -191.26407761 35.09210729 -168.0234375 10.8203125 C-166.92128906 9.60601562 -166.92128906 9.60601562 -165.796875 8.3671875 C-123.28824748 -36.84265715 -47.19769839 -38.11151046 0 0 Z M-133 50.28515625 C-140.23305841 58.41500547 -145.00142629 68.4182318 -148.0234375 78.8203125 C-148.24773438 79.58085937 -148.47203125 80.34140625 -148.703125 81.125 C-153.07436392 98.90935562 -149.48342193 117.75544834 -140.9453125 133.6640625 C-138.03906895 138.43691776 -134.75994101 142.673614 -131.0234375 146.8203125 C-130.47042969 147.45453125 -129.91742187 148.08875 -129.34765625 148.7421875 C-117.1209098 161.93189966 -98.70401313 168.7887115 -81.06982422 169.74560547 C-62.11426898 170.39522861 -44.93627681 163.75666158 -30.7734375 151.3828125 C-29.17510121 149.87775451 -27.59057447 148.35783004 -26.0234375 146.8203125 C-25.39695312 146.21832031 -24.77046875 145.61632812 -24.125 144.99609375 C-10.94928887 131.2540059 -6.36041601 112.91508794 -6.625 94.39916992 C-7.27525033 75.11253307 -15.19449636 58.23355401 -29.0234375 44.8203125 C-59.93150688 17.30964484 -105.0322746 20.59944953 -133 50.28515625 Z " fill="#156EC0" transform="translate(993.0234375,54.1796875)"/>
<path d="M0 0 C1.22739899 -0.00282738 2.45479797 -0.00565475 3.71939087 -0.00856781 C10.20648406 -0.02347691 16.69355546 -0.03276041 23.18066406 -0.03710938 C29.8444732 -0.0426027 36.50801341 -0.06667285 43.17176819 -0.09508133 C48.33305434 -0.11377991 53.49429198 -0.118917 58.65560913 -0.12044525 C61.11137003 -0.12345256 63.56713048 -0.13141528 66.02285767 -0.14463043 C90.63748244 -0.26771517 90.63748244 -0.26771517 102.1875 3.203125 C102.92605728 3.42044281 103.66461456 3.63776062 104.42555237 3.86166382 C125.05051025 10.51920012 140.86179988 25.52357303 151.1875 44.203125 C153.16182636 48.12703678 154.78064236 52.04324006 156.1875 56.203125 C156.50589844 57.11320312 156.82429687 58.02328125 157.15234375 58.9609375 C163.22489358 79.94901294 159.6241954 102.56441282 149.3828125 121.47265625 C141.87937532 134.61202331 130.11773095 145.20277214 116.1875 151.203125 C115.1975 151.203125 114.2075 151.203125 113.1875 151.203125 C123.32617214 166.52323154 133.6834661 181.69608176 144.0546875 196.859375 C150.79226963 206.71313303 157.48842644 216.59357519 164.125 226.515625 C164.83019775 227.56693604 165.53539551 228.61824707 166.26196289 229.70141602 C166.90641357 230.66748779 167.55086426 231.63355957 168.21484375 232.62890625 C168.78968506 233.48911377 169.36452637 234.34932129 169.95678711 235.2355957 C171.1875 237.203125 171.1875 237.203125 171.1875 238.203125 C112.85252444 243.6977265 112.85252444 243.6977265 100.36962891 235.65722656 C93.4465769 229.78922569 89.95255297 221.00066899 86.56837463 212.7877655 C82.64354567 203.35145007 76.86089394 195.33144611 71.00097656 187.00961304 C67.87201627 182.53713201 64.84029966 177.99965527 61.796875 173.46875 C60.54940822 171.62005114 59.30135446 169.77174823 58.05273438 167.92382812 C57.42278564 166.99127197 56.79283691 166.05871582 56.14379883 165.09790039 C53.42186094 161.07019322 50.69796148 157.04381437 47.97398376 153.01748657 C45.26017662 149.00546055 42.54808034 144.99227968 39.83621216 140.97894287 C38.53262713 139.05081759 37.22816841 137.1232827 35.92282104 135.1963501 C34.11707054 132.53071701 32.31409374 129.86322863 30.51171875 127.1953125 C29.69837067 125.99705841 29.69837067 125.99705841 28.86859131 124.77459717 C28.38045959 124.05088928 27.89232788 123.3271814 27.3894043 122.58154297 C26.74783638 121.63358353 26.74783638 121.63358353 26.0933075 120.66647339 C25.1875 119.203125 25.1875 119.203125 25.1875 118.203125 C25.78503586 118.19947937 26.38257172 118.19583374 26.99821472 118.19207764 C33.27775492 118.14991932 39.55658668 118.08034611 45.83569336 117.99560547 C48.17188392 117.96756538 50.50816637 117.94626747 52.84448242 117.93212891 C75.5100029 118.24050036 75.5100029 118.24050036 95.25 108.26171875 C102.62557585 100.42516941 106.0461542 90.85117508 106.1875 80.203125 C105.33438049 71.2385993 101.99476509 62.35969563 95.1875 56.203125 C71.37351239 38.5583407 34.78955558 46.59700278 9.1875 46.203125 C9.1875 109.563125 9.1875 172.923125 9.1875 238.203125 C-8.3025 238.203125 -25.7925 238.203125 -43.8125 238.203125 C-43.8125 160.323125 -43.8125 82.443125 -43.8125 2.203125 C-29.83468312 -1.29132922 -14.30270703 0.02234555 0 0 Z " fill="#156EC0" transform="translate(624.8125,32.796875)"/>
<path d="M0 0 C1.77490311 -0.00424107 1.77490311 -0.00424107 3.58566284 -0.00856781 C9.83933733 -0.02347294 16.09298923 -0.03275898 22.34667969 -0.03710938 C28.76833686 -0.04260267 35.18978297 -0.06667405 41.6113739 -0.09508133 C46.5873677 -0.11378526 51.56331119 -0.11891728 56.53933716 -0.12044525 C58.90578371 -0.12345127 61.27222982 -0.13140948 63.63864136 -0.14463043 C91.66268124 -0.29011956 114.48556289 5.07355357 135.23828125 25.22265625 C153.77519901 44.16186725 158.23999311 68.50230298 158.17602539 93.91235352 C158.17574292 95.49001565 158.17590243 97.06767791 158.1764679 98.64533997 C158.17675352 102.9050134 158.17089487 107.16465838 158.16389394 111.42432523 C158.15762119 115.88460217 158.15705351 120.34487985 158.15586853 124.80516052 C158.15276675 133.24095046 158.14456895 141.67672736 158.13451904 150.11251158 C158.12332203 159.72075818 158.11783842 169.32900542 158.11282361 178.93725693 C158.10238533 198.69255517 158.08405424 218.44783555 158.0625 238.203125 C140.5725 238.203125 123.0825 238.203125 105.0625 238.203125 C105.0531543 233.42432861 105.04380859 228.64553223 105.03417969 223.72192383 C105.00037429 207.91202267 104.94500495 192.10225094 104.87859726 176.29245472 C104.83886839 166.70937143 104.80644473 157.12636953 104.79150391 147.54321289 C104.77845541 139.18589778 104.75140952 130.82876222 104.70788693 122.47154826 C104.68534377 118.05063388 104.66958501 113.62994035 104.67061615 109.20896339 C104.67136702 105.03835653 104.65324698 100.86823655 104.62133217 96.69775581 C104.6128905 95.1761472 104.61104375 93.65448361 104.61669731 92.13286209 C104.65447519 80.39113373 103.67159748 68.2834769 95.82421875 58.9140625 C74.14376637 37.85854555 34.52938986 46.59775226 10.0625 46.203125 C10.0625 109.563125 10.0625 172.923125 10.0625 238.203125 C-7.0975 238.203125 -24.2575 238.203125 -41.9375 238.203125 C-41.9375 160.323125 -41.9375 82.443125 -41.9375 2.203125 C-29.30973796 -2.00612901 -13.15554009 0.0213384 0 0 Z " fill="#166EC0" transform="translate(1094.9375,32.796875)"/>
</svg>
