<?xml version="1.0" encoding="UTF-8"?>
<svg version="1.1" xmlns="http://www.w3.org/2000/svg" width="960" height="990">
<path d="M0 0 C1.60270752 0.25740967 1.60270752 0.25740967 3.23779297 0.52001953 C49.9277733 8.20213804 94.07757644 25.49484979 132 54 C132.56638184 54.42216797 133.13276367 54.84433594 133.71630859 55.27929688 C143.42033556 62.55253207 152.28754026 70.57508019 161 79 C161.83241211 79.79954102 161.83241211 79.79954102 162.68164062 80.61523438 C169.65572109 87.33632522 176.04593349 94.34631814 182 102 C183.12535156 103.38251953 183.12535156 103.38251953 184.2734375 104.79296875 C201.9527803 127.14858823 209.00418355 156.20828651 209.23828125 184.33203125 C209.24812042 185.30896942 209.25795959 186.28590759 209.26809692 187.29244995 C209.46082798 211.48270544 208.73466 235.08683863 205 259 C204.88591797 259.73897522 204.77183594 260.47795044 204.65429688 261.23931885 C191.53168047 345.53717597 161.38586747 426.65373783 124 503 C123.51031738 504.00659668 123.02063477 505.01319336 122.51611328 506.05029297 C115.64809668 520.14637057 108.29756018 533.88516399 100.46142578 547.46630859 C98.74121235 550.44866324 97.03537774 553.43903787 95.33178711 556.4309082 C93.89172705 558.95615966 92.44590654 561.47809255 91 564 C104.96528762 563.55992223 118.40028292 561.4368833 132.12890625 558.93579102 C151.93338555 555.3562652 173.79220121 552.23138211 191.88671875 563.4765625 C201.90372026 570.69769113 209.98551229 579.7177152 213 592 C214.64579249 611.00220327 213.26902877 625.87312518 201 641 C198.09869219 644.43268287 195.08725703 647.7342281 192 651 C191.32453125 651.73992188 190.6490625 652.47984375 189.953125 653.2421875 C153.93748741 691.28878209 96.58139571 706.69428579 46 709 C40.54193731 709.13006426 35.08401578 709.09655459 29.625 709.0625 C28.1953141 709.05746589 26.76562645 709.05290643 25.3359375 709.04882812 C21.89058755 709.03799465 18.44530573 709.02083984 15 709 C14.11293275 715.35582983 13.69245697 721.66632488 13.38671875 728.07421875 C13.2749394 730.27290293 13.16244308 732.47155075 13.04931641 734.67016602 C12.99076477 735.81542755 12.93221313 736.96068909 12.87188721 738.14065552 C11.17725529 770.73833926 8.66580297 802.99056188 2 835 C1.78118164 836.05541992 1.56236328 837.11083984 1.33691406 838.19824219 C-8.44070027 884.24810942 -28.45932109 930.29962791 -69.15625 957.08203125 C-84.28315816 966.48533061 -100.7905635 973.50843579 -118 978 C-119.43811035 978.38212646 -119.43811035 978.38212646 -120.90527344 978.77197266 C-158.61660483 988.66806547 -197.93199972 992.86550405 -233.21777344 973.05273438 C-237.74839567 970.37656409 -241.90952475 967.29920299 -246 964 C-246.70382812 963.44828125 -247.40765625 962.8965625 -248.1328125 962.328125 C-267.89251424 946.05542945 -278.46999435 921.08667353 -286.1875 897.375 C-286.44490967 896.59086731 -286.70231934 895.80673462 -286.9675293 894.99884033 C-303.70843904 843.81048878 -303.22753858 789.32493894 -305 736 C-305.86978485 736.29942001 -305.86978485 736.29942001 -306.75714111 736.60488892 C-309.44544552 737.52647221 -312.13673305 738.4390373 -314.828125 739.3515625 C-315.73965332 739.66552979 -316.65118164 739.97949707 -317.59033203 740.30297852 C-358.52282194 754.12175821 -407.53519238 750.99104907 -446.45703125 732.34375 C-455.76510446 727.57593601 -463.84500741 721.63199209 -471 714 C-474.07698431 715.41090988 -476.81605935 717.18008762 -479.61767578 719.07177734 C-499.87254543 732.65193863 -522.48128451 737.84763016 -546.54931641 733.48046875 C-582.54047058 726.17064997 -607.5411958 697.14686952 -626.86791992 668.0300293 C-631.93553932 660.26144762 -636.52910879 652.29671399 -640.875 644.10595703 C-641.94745461 642.09836297 -643.04691207 640.10848885 -644.15625 638.12109375 C-657.54283723 613.88890596 -667.49535085 587.94000963 -677 562 C-677.4021875 560.9062204 -677.4021875 560.9062204 -677.8125 559.79034424 C-707.09909238 480.06842056 -728.12336952 396.2288051 -741.4375 312.375 C-741.55760437 311.62228821 -741.67770874 310.86957642 -741.80145264 310.09405518 C-742.59534714 305.07050657 -743.32278021 300.04055728 -744 295 C-744.14727036 293.92931778 -744.14727036 293.92931778 -744.29751587 292.83700562 C-746.24723705 278.26669607 -746.35796294 263.74453944 -746.3125 249.0625 C-746.31067719 247.84422516 -746.30885437 246.62595032 -746.30697632 245.37075806 C-746.26249041 227.72984781 -745.93267822 210.43156707 -743 193 C-742.82307617 191.91170898 -742.64615234 190.82341797 -742.46386719 189.70214844 C-733.27689353 134.50097169 -709.28757521 82.52652547 -663 49 C-631.28506167 26.61744783 -594.38798124 14.97406207 -556 11 C-555.14591553 10.9057373 -554.29183105 10.81147461 -553.41186523 10.71435547 C-495.86763415 5.06255451 -438.07706252 16.15880833 -383.08203125 32.203125 C-382.04788086 32.49856201 -381.01373047 32.79399902 -379.94824219 33.09838867 C-377 34 -377 34 -374.29394531 35.05200195 C-369.62495691 36.83275084 -369.62495691 36.83275084 -364.76586914 36.42431641 C-362.43383828 35.32222243 -360.30534466 34.0650064 -358.125 32.6875 C-356.4628326 31.73042448 -354.79600313 30.78140764 -353.125 29.83984375 C-352.27808594 29.3588623 -351.43117188 28.87788086 -350.55859375 28.38232422 C-319.87772102 11.80645576 -282.35017482 6.76415455 -248 6.8125 C-247.26655365 6.81277191 -246.5331073 6.81304382 -245.7774353 6.81332397 C-225.60766788 6.84732331 -205.54192515 8.04404904 -185.5793457 11.03442383 C-174.59008055 12.6445536 -165.90772381 11.76823509 -155.1875 8.8125 C-140.57126305 4.99022382 -125.94188636 2.20037458 -111 0 C-109.93523438 -0.16516113 -108.87046875 -0.33032227 -107.7734375 -0.50048828 C-73.01020264 -5.71389525 -34.68774347 -5.78787841 0 0 Z " fill="#FDFDFD" transform="translate(747,3)"/>
<path d="M0 0 C0.97484344 -0.00139984 1.94968689 -0.00279968 2.95407104 -0.00424194 C21.52980409 0.01751149 39.35845899 1.80648446 57.5625 5.4375 C58.54347656 5.62973145 59.52445313 5.82196289 60.53515625 6.02001953 C118.58066482 17.83823716 174.59711848 54.55283756 210.5625 101.4375 C211.50556607 102.59534725 212.45247555 103.75007023 213.40234375 104.90234375 C220.37750551 113.39621015 226.6956352 122.14521476 232.5625 131.4375 C232.92907715 132.01371094 233.2956543 132.58992187 233.67333984 133.18359375 C243.32178626 148.45488983 251.66772736 164.60596253 258.8125 181.1875 C259.19535156 182.07453613 259.57820313 182.96157227 259.97265625 183.87548828 C262.5625 190.04334182 262.5625 190.04334182 262.5625 193.4375 C261.36874756 193.42702637 260.17499512 193.41655273 258.94506836 193.40576172 C254.44412326 193.36909682 249.94319087 193.3464334 245.44213867 193.32763672 C243.50754565 193.31768362 241.57296725 193.30411629 239.63842773 193.28662109 C212.80780421 193.05035039 187.06547477 196.45380508 166.18359375 214.83984375 C151.41377208 229.47759548 146.4045006 249.17220679 146.25 269.375 C146.22390009 277.86037054 146.97625516 286.06034618 148.3125 294.4375 C148.46936279 295.42613037 148.62622559 296.41476074 148.7878418 297.43334961 C153.39032822 324.03064405 164.212228 350.08977761 175.5625 374.4375 C176.02350098 375.4363623 176.48450195 376.43522461 176.95947266 377.46435547 C187.40723982 400.02789853 199.27003806 421.85913338 211.3984375 443.5546875 C216.02385892 451.83761046 220.54907496 460.12287047 224.45605469 468.7722168 C231.40578832 484.10485052 241.29800158 497.073612 251.74609375 510.17578125 C252.38675781 510.98402344 253.02742188 511.79226563 253.6875 512.625 C254.24695313 513.31980469 254.80640625 514.01460937 255.3828125 514.73046875 C256.5625 516.4375 256.5625 516.4375 256.5625 518.4375 C255.65628906 518.78941406 254.75007813 519.14132812 253.81640625 519.50390625 C240.55890819 524.87705097 229.17211661 532.42650435 222.75 545.75 C217.7209983 557.82299062 216.50064332 569.8578839 216.16796875 582.7734375 C215.73717022 596.30130061 214.46166383 609.62801933 212.875 623.0625 C212.60693281 625.39429365 212.33953172 627.72616395 212.07275391 630.05810547 C211.25273373 637.18657777 210.40965699 644.31220939 209.5625 651.4375 C209.29442961 653.70312453 209.02636314 655.96874952 208.75830078 658.234375 C206.36035609 678.44417983 203.94193318 698.65052669 200.96044922 718.78393555 C200.09926071 724.60526455 199.29546689 730.4296758 198.5703125 736.26953125 C198.48727371 736.93781448 198.40423492 737.60609772 198.31867981 738.29463196 C198.2355101 738.96431503 198.15234039 739.63399811 198.06665039 740.32397461 C196.48197608 753.07934786 194.64598049 765.70034112 192.01074219 778.28320312 C191.59655923 780.27380791 191.20730547 782.26955602 190.8203125 784.265625 C185.79049754 809.47121459 176.63286225 833.74244708 154.73486328 848.97680664 C139.7821673 858.87302522 122.45469872 863.73465127 105.25 868.125 C104.41364014 868.33979004 103.57728027 868.55458008 102.71557617 868.77587891 C81.21040394 874.12917121 58.04757442 873.6370833 38.5625 862.4140625 C19.13076918 849.61138568 5.9865052 826.31319717 0.875 803.875 C-6.45893879 762.50295707 -6.69996613 719.33714262 -6.42096901 677.43170166 C-6.39223886 673.04807813 -6.37586137 668.66445291 -6.36149597 664.28076172 C-6.31951427 651.8443057 -6.27107402 639.40795341 -6.19067383 626.97167969 C-6.14596029 620.03997508 -6.11586523 613.10836534 -6.10181636 606.17652893 C-6.09383016 602.53837359 -6.07869563 598.90058997 -6.04514503 595.26257324 C-5.82899131 571.13466393 -7.11451385 551.13470758 -24.85546875 532.80859375 C-35.48676385 523.04581595 -49.88525904 518.65554802 -64.15625 519.26171875 C-64.9090625 519.31972656 -65.661875 519.37773438 -66.4375 519.4375 C-65.10953968 511.29329579 -62.69816338 503.70056462 -59.9375 495.9375 C-59.70839935 495.28820526 -59.47929871 494.63891052 -59.24325562 493.96994019 C-54.78811363 481.41042599 -49.57210189 469.21215416 -44.25 457 C-34.64395633 434.92228028 -26.64188882 413.24607388 -22.4375 389.4375 C-22.27378906 388.52162109 -22.11007812 387.60574219 -21.94140625 386.66210938 C-13.52707879 337.32355289 -16.7007976 263.1514148 -45.984375 221.22265625 C-55.63023957 209.16532554 -72.25338003 200.52115053 -87.4375 198.4375 C-92.87705156 198.10415597 -98.30143808 198.04651617 -103.75 198.0625 C-104.88740631 198.06431274 -104.88740631 198.06431274 -106.04779053 198.06616211 C-118.25454936 198.11894253 -129.67586312 198.94350601 -141.4375 202.4375 C-142.37174805 202.71126465 -143.30599609 202.9850293 -144.26855469 203.26708984 C-160.67673012 208.18634296 -176.14677173 214.76491363 -191.4375 222.4375 C-190.90288334 212.36189489 -189.93353836 202.47678739 -188.375 192.5 C-188.21701935 191.48660049 -188.21701935 191.48660049 -188.05584717 190.45272827 C-180.4656891 142.43782126 -164.48173997 90.60233146 -130.4296875 54.55078125 C-128.60592602 52.61616368 -126.93332305 50.61849905 -125.25 48.5625 C-105.45955104 25.99683865 -76.91124718 12.03245274 -48.3125 4.625 C-47.20612183 4.33266479 -47.20612183 4.33266479 -46.07739258 4.03442383 C-30.97030642 0.35218315 -15.46728375 -0.00214221 0 0 Z " fill="#336791" transform="translate(499.4375,64.5625)"/>
<path d="M0 0 C1.57297852 0.35215576 1.57297852 0.35215576 3.17773438 0.71142578 C17.0136108 3.82470622 30.55987364 7.47442188 44 12 C45.16144531 12.38671875 46.32289063 12.7734375 47.51953125 13.171875 C48.33808594 13.44515625 49.15664063 13.7184375 50 14 C48.8553125 15.3303125 48.8553125 15.3303125 47.6875 16.6875 C46.86185547 17.65623047 46.86185547 17.65623047 46.01953125 18.64453125 C44.54886031 20.35983991 43.06531031 22.06413142 41.57421875 23.76171875 C0.10733561 71.31562448 -19.78872061 135.02986796 -26 197 C-26.10151367 197.95503418 -26.20302734 198.91006836 -26.30761719 199.89404297 C-27.64546744 212.75977323 -28.18232153 225.57148068 -28.1875 238.5 C-28.18882935 240.45873047 -28.18882935 240.45873047 -28.19018555 242.45703125 C-28.16140198 247.3306267 -28.11936038 252.06714738 -27.5 256.90771484 C-26.67048637 263.99306429 -26.83545632 271.13444146 -26.83203125 278.2578125 C-26.82880748 279.84894845 -26.82544262 281.44008411 -26.82194519 283.03121948 C-26.81597678 286.3647327 -26.81410252 289.6982201 -26.81469727 293.03173828 C-26.81477797 296.40223625 -26.80792398 299.77259669 -26.79418945 303.14306641 C-26.62527 345.25956428 -26.62527 345.25956428 -30.10546875 365.85546875 C-31.28485421 372.91442058 -31.33656486 379.91610296 -31.31567383 387.05541992 C-31.31251784 389.29981348 -31.33606243 391.5428777 -31.36132812 393.78710938 C-31.52457942 430.65893985 -15.56296919 465.4588674 9.703125 491.8203125 C11.78058771 493.90430811 13.87259697 495.96714822 16 498 C14.60571103 502.336932 12.59877071 504.6973368 9.3125 507.8125 C5.67884656 511.33729934 2.25573099 514.90485242 -1.03125 518.75 C-3.07784086 521.08896099 -5.18421822 523.36079442 -7.30541992 525.63183594 C-12.33315941 531.01540393 -17.10937573 536.50607573 -21.72265625 542.25390625 C-24.21827478 545.26320269 -26.83784189 548.13920076 -29.5 551 C-33.70956422 555.52903037 -37.67373049 560.2026819 -41.5546875 565.015625 C-46.07873747 570.5369895 -50.78613271 575.89947384 -55.49121094 581.26660156 C-56.82401407 582.79781552 -58.13628807 584.34684625 -59.4453125 585.8984375 C-67.12103927 594.83969628 -76.1565186 602.94746295 -88.18359375 604.37890625 C-99.46190184 604.95949823 -107.14473603 601.55661474 -115.59716797 594.20410156 C-118.14641939 591.88215635 -120.57914095 589.45450546 -123 587 C-123.84304687 586.16726563 -124.68609375 585.33453125 -125.5546875 584.4765625 C-149.96331474 559.13214125 -165.34420268 522.06863837 -178.0625 489.6875 C-178.37582275 488.893508 -178.68914551 488.09951599 -179.01196289 487.28146362 C-189.99068108 459.37149058 -199.72796067 430.83150374 -208 402 C-208.25007813 401.13584473 -208.50015625 400.27168945 -208.7578125 399.38134766 C-210.03649733 394.96003655 -211.30159125 390.53520298 -212.55078125 386.10546875 C-213.46361016 382.8719502 -214.39644994 379.64589003 -215.35546875 376.42578125 C-223.94355936 347.40406278 -230.69739771 317.87600047 -236.72563171 288.22993469 C-237.57683421 284.04560365 -238.45107511 279.86772937 -239.359375 275.6953125 C-242.10103589 263.05841166 -244.43009947 250.35571458 -246.6875 237.625 C-246.91362473 236.36384369 -246.91362473 236.36384369 -247.14431763 235.07720947 C-250.74212862 214.94257146 -252.3794191 195.53523322 -252.3125 175.0625 C-252.31100952 173.93714844 -252.30951904 172.81179687 -252.3079834 171.65234375 C-252.26815112 154.92991887 -251.8267044 138.52038015 -249 122 C-248.86609863 121.1642041 -248.73219727 120.3284082 -248.59423828 119.46728516 C-242.18712765 80.53535112 -223.84374874 43.24119338 -191.640625 19.47265625 C-137.61333653 -18.8666757 -61.52401694 -14.07497514 0 0 Z " fill="#336791" transform="translate(308,76)"/>
<path d="M0 0 C1.60270752 0.25740967 1.60270752 0.25740967 3.23779297 0.52001953 C49.9277733 8.20213804 94.07757644 25.49484979 132 54 C132.56638184 54.42216797 133.13276367 54.84433594 133.71630859 55.27929688 C143.42033556 62.55253207 152.28754026 70.57508019 161 79 C161.83241211 79.79954102 161.83241211 79.79954102 162.68164062 80.61523438 C169.65572109 87.33632522 176.04593349 94.34631814 182 102 C183.12535156 103.38251953 183.12535156 103.38251953 184.2734375 104.79296875 C201.9527803 127.14858823 209.00418355 156.20828651 209.23828125 184.33203125 C209.24812042 185.30896942 209.25795959 186.28590759 209.26809692 187.29244995 C209.46082798 211.48270544 208.73466 235.08683863 205 259 C204.88591797 259.73897522 204.77183594 260.47795044 204.65429688 261.23931885 C191.53168047 345.53717597 161.38586747 426.65373783 124 503 C123.51031738 504.00659668 123.02063477 505.01319336 122.51611328 506.05029297 C115.64809668 520.14637057 108.29756018 533.88516399 100.46142578 547.46630859 C98.74121235 550.44866324 97.03537774 553.43903787 95.33178711 556.4309082 C93.89172705 558.95615966 92.44590654 561.47809255 91 564 C104.96528762 563.55992223 118.40028292 561.4368833 132.12890625 558.93579102 C151.93338555 555.3562652 173.79220121 552.23138211 191.88671875 563.4765625 C201.90372026 570.69769113 209.98551229 579.7177152 213 592 C214.64579249 611.00220327 213.26902877 625.87312518 201 641 C198.09869219 644.43268287 195.08725703 647.7342281 192 651 C191.32453125 651.73992188 190.6490625 652.47984375 189.953125 653.2421875 C153.93748741 691.28878209 96.58139571 706.69428579 46 709 C40.54193731 709.13006426 35.08401578 709.09655459 29.625 709.0625 C28.1953141 709.05746589 26.76562645 709.05290643 25.3359375 709.04882812 C21.89058755 709.03799465 18.44530573 709.02083984 15 709 C14.11293275 715.35582983 13.69245697 721.66632488 13.38671875 728.07421875 C13.2749394 730.27290293 13.16244308 732.47155075 13.04931641 734.67016602 C12.99076477 735.81542755 12.93221313 736.96068909 12.87188721 738.14065552 C11.17725529 770.73833926 8.66580297 802.99056188 2 835 C1.78118164 836.05541992 1.56236328 837.11083984 1.33691406 838.19824219 C-8.44070027 884.24810942 -28.45932109 930.29962791 -69.15625 957.08203125 C-84.28315816 966.48533061 -100.7905635 973.50843579 -118 978 C-119.43811035 978.38212646 -119.43811035 978.38212646 -120.90527344 978.77197266 C-158.61660483 988.66806547 -197.93199972 992.86550405 -233.21777344 973.05273438 C-237.74839567 970.37656409 -241.90952475 967.29920299 -246 964 C-246.70382812 963.44828125 -247.40765625 962.8965625 -248.1328125 962.328125 C-267.89251424 946.05542945 -278.46999435 921.08667353 -286.1875 897.375 C-286.44490967 896.59086731 -286.70231934 895.80673462 -286.9675293 894.99884033 C-303.70843904 843.81048878 -303.22753858 789.32493894 -305 736 C-305.86978485 736.29942001 -305.86978485 736.29942001 -306.75714111 736.60488892 C-309.44544552 737.52647221 -312.13673305 738.4390373 -314.828125 739.3515625 C-315.73965332 739.66552979 -316.65118164 739.97949707 -317.59033203 740.30297852 C-358.52282194 754.12175821 -407.53519238 750.99104907 -446.45703125 732.34375 C-455.76510446 727.57593601 -463.84500741 721.63199209 -471 714 C-474.07698431 715.41090988 -476.81605935 717.18008762 -479.61767578 719.07177734 C-499.87254543 732.65193863 -522.48128451 737.84763016 -546.54931641 733.48046875 C-582.54047058 726.17064997 -607.5411958 697.14686952 -626.86791992 668.0300293 C-631.93553932 660.26144762 -636.52910879 652.29671399 -640.875 644.10595703 C-641.94745461 642.09836297 -643.04691207 640.10848885 -644.15625 638.12109375 C-657.54283723 613.88890596 -667.49535085 587.94000963 -677 562 C-677.4021875 560.9062204 -677.4021875 560.9062204 -677.8125 559.79034424 C-707.09909238 480.06842056 -728.12336952 396.2288051 -741.4375 312.375 C-741.55760437 311.62228821 -741.67770874 310.86957642 -741.80145264 310.09405518 C-742.59534714 305.07050657 -743.32278021 300.04055728 -744 295 C-744.14727036 293.92931778 -744.14727036 293.92931778 -744.29751587 292.83700562 C-746.24723705 278.26669607 -746.35796294 263.74453944 -746.3125 249.0625 C-746.31067719 247.84422516 -746.30885437 246.62595032 -746.30697632 245.37075806 C-746.26249041 227.72984781 -745.93267822 210.43156707 -743 193 C-742.82307617 191.91170898 -742.64615234 190.82341797 -742.46386719 189.70214844 C-733.27689353 134.50097169 -709.28757521 82.52652547 -663 49 C-631.28506167 26.61744783 -594.38798124 14.97406207 -556 11 C-555.14591553 10.9057373 -554.29183105 10.81147461 -553.41186523 10.71435547 C-495.86763415 5.06255451 -438.07706252 16.15880833 -383.08203125 32.203125 C-382.04788086 32.49856201 -381.01373047 32.79399902 -379.94824219 33.09838867 C-377 34 -377 34 -374.29394531 35.05200195 C-369.62495691 36.83275084 -369.62495691 36.83275084 -364.76586914 36.42431641 C-362.43383828 35.32222243 -360.30534466 34.0650064 -358.125 32.6875 C-356.4628326 31.73042448 -354.79600313 30.78140764 -353.125 29.83984375 C-352.27808594 29.3588623 -351.43117188 28.87788086 -350.55859375 28.38232422 C-319.87772102 11.80645576 -282.35017482 6.76415455 -248 6.8125 C-247.26655365 6.81277191 -246.5331073 6.81304382 -245.7774353 6.81332397 C-225.60766788 6.84732331 -205.54192515 8.04404904 -185.5793457 11.03442383 C-174.59008055 12.6445536 -165.90772381 11.76823509 -155.1875 8.8125 C-140.57126305 4.99022382 -125.94188636 2.20037458 -111 0 C-109.93523438 -0.16516113 -108.87046875 -0.33032227 -107.7734375 -0.50048828 C-73.01020264 -5.71389525 -34.68774347 -5.78787841 0 0 Z M-113 27 C-114.81951172 27.29801514 -114.81951172 27.29801514 -116.67578125 27.60205078 C-134.6182614 30.61124814 -151.97285712 34.90732357 -169.35400391 40.24731445 C-174.20884822 41.62833356 -177.30245377 42.18802227 -182.1875 40.75 C-190.37686845 38.56550342 -198.61294036 37.17388563 -207 36 C-207.75845215 35.89268555 -208.5169043 35.78537109 -209.29833984 35.67480469 C-261.63692312 28.69632692 -317.33907676 35.22605117 -362 65 C-369.46733592 64.75659441 -376.28518814 62.11076721 -383.3125 59.75 C-393.67087438 56.34638087 -404.0085981 53.24203375 -414.58518982 50.60806274 C-416.90417099 50.02413028 -419.21791376 49.42295201 -421.53100586 48.81616211 C-433.45869968 45.71518561 -445.40135785 43.29445165 -457.5625 41.3125 C-458.47541809 41.16247528 -459.38833618 41.01245056 -460.32891846 40.85787964 C-475.53325752 38.37794443 -490.57905222 36.41832411 -506 36 C-506.67464294 35.98151001 -507.34928589 35.96302002 -508.04437256 35.94396973 C-528.24722415 35.41862835 -547.98042898 35.92754156 -568 39 C-568.73412109 39.10151367 -569.46824219 39.20302734 -570.22460938 39.30761719 C-597.99445935 43.15329612 -625.51414364 54.30013839 -648 71 C-648.93328125 71.69222656 -649.8665625 72.38445312 -650.828125 73.09765625 C-674.97099641 91.98133491 -691.64457639 116.77724048 -703 145 C-703.43957031 146.08023438 -703.87914062 147.16046875 -704.33203125 148.2734375 C-716.27870357 179.60026715 -719.47109002 213.36739326 -719.4375 246.625 C-719.43772156 247.64641083 -719.43794312 248.66782166 -719.43817139 249.72018433 C-719.38946554 270.72913225 -717.09054081 291.01114043 -713.5 311.6875 C-713.32903809 312.68202179 -713.15807617 313.67654358 -712.98193359 314.70120239 C-707.20200837 348.22814602 -700.55345649 381.60210444 -691.90795898 414.5144043 C-689.7004379 422.98893467 -687.60167329 431.49212255 -685.54296875 440.00390625 C-682.66677998 451.84611464 -679.44779679 463.52193475 -675.80859375 475.15234375 C-674.58398313 479.06754511 -673.41083426 482.99477974 -672.26377869 486.9331665 C-669.45684574 496.5696996 -666.47341043 506.14088252 -663.375 515.6875 C-663.11710693 516.48236816 -662.85921387 517.27723633 -662.59350586 518.09619141 C-650.86947111 554.13209643 -636.98373912 589.117894 -620 623 C-619.57090332 623.86077148 -619.14180664 624.72154297 -618.69970703 625.60839844 C-602.64408621 657.61192942 -580.37429816 690.55681737 -545.703125 703.8828125 C-540.7247449 705.25283183 -535.56855126 705.188765 -530.4375 705.25 C-529.37438599 705.2643811 -529.37438599 705.2643811 -528.28979492 705.27905273 C-509.8495261 705.16148988 -494.71242267 694.4226258 -482 682 C-475.80718075 675.58788828 -470.02826615 668.90973394 -464.43359375 661.96875 C-461.03944769 657.8282187 -457.52564881 653.79664079 -454.00830078 649.76074219 C-451.30775858 646.66165664 -448.6152757 643.55737351 -445.95703125 640.421875 C-440.29105623 633.74105676 -434.49521034 627.22356054 -428.50610352 620.83007812 C-425.22149449 617.32358301 -422.01567677 613.76881791 -418.87890625 610.12890625 C-415.76930237 606.6055505 -412.55730223 603.17575526 -409.34936523 599.74194336 C-406.10671736 596.25573636 -403.01873695 592.68219562 -400 589 C-396.61213429 589.77629858 -393.55711159 590.9964772 -390.36523438 592.37451172 C-375.0788549 598.9586227 -360.68630061 602.28070412 -344 602 C-360.86408241 628.21486903 -377.91863885 637.10637179 -407.84375 643.67578125 C-410.71591919 644.29718083 -413.58883036 644.91374234 -416.46484375 645.51708984 C-429.70880958 648.31756301 -444.80680175 653.13396495 -453.6796875 664.0703125 C-457.13854951 670.01593805 -458.19941905 675.17770443 -457 682 C-454.89086655 688.0519217 -451.92983784 692.85445455 -447 697 C-446.11441406 697.79470703 -446.11441406 697.79470703 -445.2109375 698.60546875 C-428.32935832 712.92635895 -403.10114846 718.07916521 -381.43359375 718.203125 C-380.63703873 718.20882507 -379.8404837 718.21452515 -379.01979065 718.22039795 C-377.34157614 718.22978691 -375.66334371 718.23635742 -373.98510742 718.24023438 C-371.46824345 718.24988215 -368.95221798 718.2809399 -366.43554688 718.3125 C-352.44517794 718.40587651 -339.72790871 716.31226235 -326.4375 711.75 C-325.54474365 711.44553955 -324.6519873 711.1410791 -323.73217773 710.82739258 C-308.29492867 705.42192051 -295.67700821 697.18101696 -283 687 C-282.99191315 687.82635452 -282.98382629 688.65270905 -282.97549438 689.50410461 C-287.75340155 793.98943396 -287.75340155 793.98943396 -266 894 C-265.70222656 894.65178223 -265.40445312 895.30356445 -265.09765625 895.97509766 C-258.60276898 910.07991768 -250.8563692 922.79994686 -240 934 C-239.46246094 934.61101563 -238.92492187 935.22203125 -238.37109375 935.8515625 C-223.35001639 952.34086547 -199.29902828 959.93977127 -177.69799805 961.12646484 C-159.81506758 961.71760498 -143.17099001 958.74153474 -126 954 C-124.83597656 953.68506592 -124.83597656 953.68506592 -123.6484375 953.36376953 C-107.0756873 948.83585742 -91.07647766 943.07456997 -77 933 C-76.27167969 932.49339844 -75.54335938 931.98679687 -74.79296875 931.46484375 C-62.77957985 922.65502523 -53.27088867 911.94626168 -46 899 C-45.38640625 897.92492187 -44.7728125 896.84984375 -44.140625 895.7421875 C-30.40262164 870.02902191 -26.55966839 840.33097696 -22.9921875 811.79296875 C-22.05311924 804.28327984 -20.97670352 796.79821991 -19.88116455 789.3102417 C-14.34082842 751.31739465 -10.16035772 713.16424354 -6 675 C-4.90945313 675.28367432 -3.81890625 675.56734863 -2.6953125 675.85961914 C8.35213331 678.60253089 18.64437867 679.61778123 30 679.4375 C30.79549255 679.4310144 31.59098511 679.42452881 32.4105835 679.41784668 C53.31491736 679.24378721 73.66817171 676.89362056 94 672 C95.42119141 671.68289063 95.42119141 671.68289063 96.87109375 671.359375 C128.32088396 663.7054479 164.99607997 644.05183573 182.375 615.76171875 C185.54613723 609.5625859 186.51115103 602.67652063 184.33984375 595.95703125 C181.55258799 590.49111411 176.8732639 586.20058477 171.2421875 583.84765625 C158.6302491 580.55031814 143.88379456 583.62572811 131.48046875 586.46875 C124.16445864 588.04757473 116.88314421 588.97651139 109.4375 589.6875 C108.13627197 589.81342529 106.83504395 589.93935059 105.49438477 590.0690918 C85.58047248 591.88100878 63.47371644 593.23685822 45 584 C46.37058149 580.28962519 48.06417051 577.08423645 50.16796875 573.73828125 C50.80597412 572.71589355 51.44397949 571.69350586 52.10131836 570.64013672 C53.13397827 568.99295654 53.13397827 568.99295654 54.1875 567.3125 C96.67034156 498.93970134 129.87649705 425.7015985 157.37158203 337.18701172 C158.02307367 334.91969931 158.70961516 332.66518877 159.40234375 330.41015625 C172.63865829 286.71660875 180.00153098 241.22945604 180.3125 195.625 C180.32230896 194.74261658 180.33211792 193.86023315 180.34222412 192.95111084 C180.60320688 165.01814569 176.26291678 137.4430104 157 116 C156.278125 115.18144531 155.55625 114.36289063 154.8125 113.51953125 C152.56301335 110.99287571 150.28320415 108.49620356 148 106 C147.08911758 104.98502623 146.178991 103.96937374 145.26953125 102.953125 C140.14114779 97.24643258 134.94827608 91.86324852 129 87 C127.82526112 86.01332997 126.65081055 85.02631662 125.4765625 84.0390625 C78.65831773 44.98912689 18.66688625 24.0515169 -42.21875 23.796875 C-43.91124878 23.78628555 -43.91124878 23.78628555 -45.63793945 23.77548218 C-79.44322083 23.44248091 -79.44322083 23.44248091 -113 27 Z " fill="#010101" transform="translate(747,3)"/>
<path d="M0 0 C0.79486816 0.28601074 1.58973633 0.57202148 2.40869141 0.86669922 C26.16799509 9.43817796 48.21634726 20.09656645 68 36 C68.97453125 36.77085938 69.9490625 37.54171875 70.953125 38.3359375 C97.00976999 59.39156134 116.3381623 80.85369396 120 115 C120.30813756 120.00401849 120.38147893 124.98715852 120.375 130 C120.37478851 130.69343506 120.37457703 131.38687012 120.37435913 132.10131836 C120.29780184 157.81005651 117.15724214 183.45479573 111.53759766 208.52392578 C110.79615565 211.93886894 110.21414498 215.36798981 109.625 218.8125 C105.89033921 238.87056584 100.27201442 258.60227798 94 278 C93.79439453 278.63766296 93.58878906 279.27532593 93.37695312 279.93231201 C69.24331884 354.7114279 37.34677393 426.65021596 -5 493 C-6.65 491.35 -8.3 489.7 -10 488 C-8.67281202 483.66236122 -6.95552595 479.86681493 -4.8125 475.875 C5.08628027 456.63903517 10.02725257 435.64726788 10.23828125 414.05078125 C10.24789383 413.21198929 10.25750641 412.37319733 10.26741028 411.50898743 C10.29215008 408.77678289 10.30470277 406.04480382 10.3125 403.3125 C10.31742462 401.90046295 10.31742462 401.90046295 10.32244873 400.4598999 C10.34297698 382.09486476 8.75599223 364.11896257 6.48730469 345.91259766 C5.4545077 337.62021066 4.53978345 329.33989747 4 321 C3.905979 319.6694458 3.905979 319.6694458 3.81005859 318.31201172 C2.59034888 298.27785012 5.85592947 278.82014043 8.90209961 259.08320618 C10.29205679 250.06128243 11.60570133 241.13142311 12 232 C12.03167267 231.35619385 12.06334534 230.7123877 12.09597778 230.04907227 C13.11158589 208.92735408 12.73826637 190.64913163 4 171 C3.29325845 169.3030454 2.58879157 167.60514149 1.88671875 165.90625 C-11.1816867 135.05347553 -28.96882834 106.97487231 -50 81 C-50.41846191 80.47567383 -50.83692383 79.95134766 -51.26806641 79.41113281 C-65.30603835 61.91707023 -81.84648216 45.18567536 -100 32 C-100.98742187 31.2059375 -101.97484375 30.411875 -102.9921875 29.59375 C-120.63832158 15.40500097 -140.82392757 5.07216772 -161 -5 C-157.9121973 -6.73502522 -155.18673129 -7.45698468 -151.6953125 -8 C-150.12632202 -8.2460498 -150.12632202 -8.2460498 -148.52563477 -8.49707031 C-147.40342529 -8.66303711 -146.28121582 -8.82900391 -145.125 -9 C-143.36724243 -9.26055176 -143.36724243 -9.26055176 -141.57397461 -9.52636719 C-95.47087803 -16.18976641 -44.20815272 -16.3842332 0 0 Z " fill="#336791" transform="translate(780,67)"/>
<path d="M0 0 C17.67436192 16.31706535 19.03694461 45.66633331 22.21484375 68.28515625 C22.39974365 69.5844104 22.39974365 69.5844104 22.58837891 70.90991211 C24.49225526 84.96252089 24.82889159 99.0020689 24.83984375 113.16015625 C24.84085083 114.06806915 24.84185791 114.97598206 24.84289551 115.91140747 C24.83292174 129.21744262 24.30808288 142.03591089 21.58984375 155.09765625 C21.31844847 156.58690109 21.04892896 158.07648894 20.78125 159.56640625 C17.06844262 179.1356387 8.75377086 197.16763266 0.79272461 215.29437256 C-4.22738571 226.74916562 -8.906531 238.27351721 -13.16015625 250.03515625 C-13.40245972 250.70108795 -13.64476318 251.36701965 -13.89440918 252.0531311 C-17.12456681 260.96827176 -19.91720205 269.95182889 -22.41015625 279.09765625 C-39.39684551 280.49796922 -55.92815387 274.49579987 -70.41015625 266.09765625 C-71.39113281 265.55367187 -72.37210937 265.0096875 -73.3828125 264.44921875 C-95.69469227 251.28681486 -112.79420607 227.68965656 -120.41015625 203.09765625 C-121.92935805 197.17620937 -123.06705728 191.18140261 -124.06616211 185.15234375 C-124.3446433 183.48896708 -124.66584095 181.83277898 -125 180.1796875 C-125.60805232 175.61060861 -125.5945155 171.07699388 -125.59765625 166.47265625 C-125.60990234 165.55097656 -125.62214844 164.62929688 -125.63476562 163.6796875 C-125.64724095 157.69984883 -125.0110316 152.10120221 -123.95141602 146.22167969 C-119.77053366 122.09061492 -120.13154482 97.43675579 -120.16015625 73.03515625 C-120.16075672 71.90765017 -120.16075672 71.90765017 -120.16136932 70.75736618 C-120.16411044 66.36005385 -120.17471282 61.96287195 -120.19682693 57.56561279 C-120.20673029 55.56092227 -120.21356641 53.55621733 -120.2203064 51.55151367 C-120.2806505 43.72691575 -120.40795853 35.93608101 -122 28.25 C-122.44174658 25.43572686 -122.40526996 23.79006346 -121.41015625 21.09765625 C-117.2145522 17.24794933 -112.43489148 14.71805687 -107.41015625 12.09765625 C-106.77948242 11.75492676 -106.14880859 11.41219727 -105.49902344 11.05908203 C-76.78667455 -4.53636696 -29.5783689 -23.34629766 0 0 Z " fill="#336791" transform="translate(428.41015625,298.90234375)"/>
<path d="M0 0 C0.88590317 -0.00095673 1.77180634 -0.00191345 2.68455505 -0.00289917 C4.54776074 -0.00357644 6.41096884 -0.0017539 8.27416992 0.00244141 C11.11577679 0.00780247 13.95722608 0.00247772 16.79882812 -0.00390625 C18.61588576 -0.00324551 20.4329433 -0.00196444 22.25 0 C23.51584679 -0.00303635 23.51584679 -0.00303635 24.80726624 -0.00613403 C29.17078699 0.01110644 33.26185019 0.25914854 37.55859375 1.1328125 C38.06462672 14.03665335 36.69445812 26.0840354 34.56430054 38.79620361 C28.4060094 76.38366861 29.91816809 111.90953058 34.40063477 149.59619141 C38.2468921 182.18204034 38.33191111 212.38356257 25.55859375 243.1328125 C24.89859375 243.1328125 24.23859375 243.1328125 23.55859375 243.1328125 C23.11543823 242.17749634 23.11543823 242.17749634 22.66333008 241.20288086 C17.2817758 229.65829587 11.79828688 218.23448562 5.43359375 207.1953125 C-12.37221212 176.28222758 -28.85707627 144.5502495 -41.44140625 111.1328125 C-41.81813477 110.13975098 -42.19486328 109.14668945 -42.58300781 108.12353516 C-47.52273081 94.97470995 -51.2089675 82.00523015 -53.44140625 68.1328125 C-53.6321875 67.04355469 -53.82296875 65.95429688 -54.01953125 64.83203125 C-55.76228759 49.55064001 -56.72296948 32.94815851 -47.69140625 19.8203125 C-35.4112013 5.02266553 -18.73539494 -0.04504805 0 0 Z " fill="#346891" transform="translate(727.44140625,284.8671875)"/>
<path d="M0 0 C7.17014697 2.45983144 11.55327034 6.68402966 15.2578125 13.21875 C18.38371417 19.95146129 19.17549722 26.66934015 18 34 C16.57356859 37.55741598 14.51449287 40.13046268 12 43 C11.19949219 43.94617188 10.39898437 44.89234375 9.57421875 45.8671875 C-9.10533643 67.39874131 -32.71771008 79.45731486 -61 82 C-83.14553401 83.11863616 -106.30590014 81.07793117 -126 70 C-126 69.34 -126 68.68 -126 68 C-118.67867042 65.80432244 -111.36264268 63.78755222 -103.8984375 62.140625 C-74.08759233 55.97830719 -74.08759233 55.97830719 -48 41 C-46.76830078 40.06607422 -46.76830078 40.06607422 -45.51171875 39.11328125 C-42.88837933 36.90608587 -40.8821789 34.61851755 -38.75 31.9375 C-37.97140625 30.968125 -37.1928125 29.99875 -36.390625 29 C-35.20726562 27.515 -35.20726562 27.515 -34 26 C-28.20557247 18.80691755 -22.34397603 11.71852812 -16 5 C-15.40445313 4.34257813 -14.80890625 3.68515625 -14.1953125 3.0078125 C-9.6330504 -1.5544496 -6.10315267 -1.80990045 0 0 Z " fill="#356892" transform="translate(447,612)"/>
<path d="M0 0 C0.82371094 0.59361328 0.82371094 0.59361328 1.6640625 1.19921875 C16.90370348 10.88154704 35.486742 11.23055482 52.9284668 11.14746094 C55.587311 11.13677602 58.24547351 11.14739822 60.90429688 11.16015625 C75.55302758 11.17322926 89.70867891 9.92283278 104.0390625 6.76171875 C113.88908277 4.6184273 113.88908277 4.6184273 118.2890625 4.88671875 C94.45814547 31.18290306 53.44258471 42.08331478 19.2890625 43.88671875 C14.35877787 44.04539896 9.42860203 44.07256905 4.49609375 44.07202148 C2.29147239 44.07421635 0.08734666 44.09248386 -2.1171875 44.11132812 C-25.38797341 44.20416803 -25.38797341 44.20416803 -33.7109375 38.88671875 C-35.96218969 36.63546656 -34.96047166 31.93015676 -34.96191406 28.89282227 C-34.83143187 20.54888165 -33.04507979 13.44009357 -27.7109375 6.88671875 C-23.43489621 2.8990908 -19.69215218 0.72298503 -14.1484375 -1.05078125 C-13.50197266 -1.28345703 -12.85550781 -1.51613281 -12.18945312 -1.75585938 C-7.03149512 -3.46118629 -4.43212602 -2.88391761 0 0 Z " fill="#356892" transform="translate(777.7109375,610.11328125)"/>
<path d="M0 0 C0.89976562 -0.01611328 1.79953125 -0.03222656 2.7265625 -0.04882812 C13.32078011 -0.05643891 23.13201776 2.74898596 30.875 10.25 C32.3037635 13.19682472 32.32916199 15.06848578 31.875 18.3125 C27.75393983 26.07911341 21.15595212 30.75817646 12.875 33.3125 C6.62350601 34.28423482 0.46118133 33.27373659 -5.125 30.3125 C-12.1867936 25.09427199 -18.29631511 19.65291373 -19.6875 10.6875 C-18.96684019 6.36354112 -17.51380351 5.00813916 -14.125 2.3125 C-9.55108081 -0.403969 -5.18810756 -0.0181149 0 0 Z " fill="#FCFDFD" transform="translate(398.125,304.6875)"/>
<path d="M0 0 C0.89928223 -0.01853027 1.79856445 -0.03706055 2.72509766 -0.05615234 C8.71302193 0.00045269 12.39655662 0.92276085 17.25 4.5 C18.5625 7.6875 18.5625 7.6875 18.25 11.5 C14.77760085 19.1659889 8.9065153 24.17174235 1.5 27.875 C-5.99479707 29.31630713 -12.46760483 29.71538716 -19.25 25.8125 C-24.10697563 22.47576554 -26.98401264 19.71733184 -28.9375 14.0625 C-28.73576968 10.229624 -28.61865261 9.79927802 -26 7.3125 C-17.83022179 1.38384772 -9.90026253 0.12844139 0 0 Z " fill="#FBFCFD" transform="translate(721.75,297.5)"/>
</svg>
