<?xml version="1.0" encoding="UTF-8"?>
<svg version="1.1" xmlns="http://www.w3.org/2000/svg" width="192" height="192">
<path d="M0 0 C2.82246264 0.8872264 5.64660691 1.76879632 8.47265625 2.64453125 C9.17485794 2.8625087 9.87705963 3.08048615 10.60054016 3.30506897 C15.39180116 4.77100227 20.20676124 6.03406583 25.078125 7.203125 C32.75914006 9.05767404 40.18141993 11.46745064 47.625 14.125 C48.84638672 14.54201172 50.06777344 14.95902344 51.32617188 15.38867188 C53.08864258 16.01418945 53.08864258 16.01418945 54.88671875 16.65234375 C55.93174561 17.019646 56.97677246 17.38694824 58.0534668 17.76538086 C63.18038733 20.29346959 66.24483669 23.87222772 68.2890625 29.19238281 C69.5584406 33.09801451 70.51754722 37.06221052 71.4375 41.0625 C71.76548584 42.46157593 71.76548584 42.46157593 72.10009766 43.88891602 C73.49068379 49.92975847 74.6448407 55.96109212 75.6262207 62.08154297 C76.44977052 66.96835477 77.51963042 71.77985404 78.67578125 76.59765625 C78.83397339 77.25918198 78.99216553 77.9207077 79.15515137 78.60227966 C79.95536238 81.93661783 80.76933035 85.2668979 81.60107422 88.59350586 C85.555891 104.88035318 85.555891 104.88035318 82.5 111.125 C81.654375 112.135625 80.80875 113.14625 79.9375 114.1875 C79.31617188 114.93773438 78.69484375 115.68796875 78.0546875 116.4609375 C73.35028168 121.94098012 68.29234098 126.54459835 62.64453125 131.03125 C56.71032288 135.75806532 51.27344041 140.62531753 46.44921875 146.48046875 C44.21726265 149.00079127 41.7008704 151.12554733 39.140625 153.3046875 C36.69996851 155.39049677 34.31801176 157.53335592 31.9375 159.6875 C31.091875 160.4403125 30.24625 161.193125 29.375 161.96875 C27.83859487 163.36727262 26.33299547 164.80116369 24.875 166.28125 C20.80200265 170.28855385 17.82730586 171.97974189 12.12646484 172.39208984 C4.91949117 171.92972237 -1.93368157 169.24596047 -8.75 167 C-11.08581988 166.24825583 -13.42331637 165.50194503 -15.76124573 164.75679016 C-17.30175428 164.26575389 -18.841584 163.77258279 -20.38072205 163.27726746 C-26.41037029 161.3504514 -32.48168895 159.71330518 -38.6081543 158.11938477 C-43.85463503 156.70403266 -48.9891707 155.02037119 -54.125 153.25 C-55.10404297 152.92837891 -56.08308594 152.60675781 -57.09179688 152.27539062 C-62.71051526 150.34407522 -67.00651057 148.60118299 -71.0625 144.1875 C-72.20870509 141.66235781 -72.99393314 139.57221219 -73.6875 136.9375 C-73.88714355 136.24003662 -74.08678711 135.54257324 -74.29248047 134.82397461 C-74.91137671 132.61844899 -75.49258873 130.40615286 -76.0625 128.1875 C-76.24554688 127.48447754 -76.42859375 126.78145508 -76.6171875 126.05712891 C-78.70451371 117.92525388 -80.35537265 109.78120998 -81.70092773 101.4921875 C-82.54563858 96.54339905 -83.6327865 91.67877109 -84.8046875 86.796875 C-84.9626329 86.13870285 -85.12057831 85.4805307 -85.28330994 84.80241394 C-86.08136673 81.48748412 -86.89374413 78.17690903 -87.72583008 74.87036133 C-91.87964572 57.80865544 -91.87964572 57.80865544 -88.44140625 50.95703125 C-85.73229152 47.8030701 -82.96374187 44.78999033 -80 41.875 C-79.42926758 41.30740967 -78.85853516 40.73981934 -78.27050781 40.1550293 C-73.94598872 35.9127505 -69.36166597 32.11978871 -64.609375 28.36328125 C-61.99902173 26.13327086 -59.80900158 23.7805364 -57.5625 21.1875 C-53.66677795 16.69350635 -49.43170321 13.04370591 -44.77734375 9.35546875 C-39.98155074 5.52573476 -35.22864041 1.53098524 -31.05859375 -2.98046875 C-23.34029602 -10.06438584 -8.64717605 -2.73536107 0 0 Z M-39.52636719 28.64501953 C-41.04077631 30.1777043 -42.55227807 31.71318966 -44.0625 33.25 C-47.60974633 36.85937962 -51.18028898 40.20345696 -55.1875 43.3125 C-58.8693888 46.1801825 -62.35568074 49.1695163 -65.75 52.375 C-66.59949219 53.17292969 -67.44898438 53.97085938 -68.32421875 54.79296875 C-70.27516768 57.01978904 -70.27516768 57.01978904 -70.17578125 59.59375 C-68.63483859 63.18387605 -66.24187443 65.72952929 -63.5625 68.5 C-62.75534546 69.35440674 -62.75534546 69.35440674 -61.93188477 70.22607422 C-58.10482536 74.23072734 -54.11850236 78.00565814 -49.90234375 81.6015625 C-48.20621021 83.06362241 -46.62319823 84.58304387 -45.0625 86.1875 C-43.3071735 84.79837093 -41.55846093 83.40088227 -39.8125 82 C-38.83796875 81.22269531 -37.8634375 80.44539063 -36.859375 79.64453125 C-34.21632759 77.32263625 -32.21384273 74.95544095 -30.0625 72.1875 C-28.88708008 71.0685413 -27.67857125 69.98316854 -26.4375 68.9375 C-20.67964146 64.0083426 -14.92395824 59.04895824 -9.5625 53.6875 C-5.55592608 49.68092608 -1.29151879 45.95666432 2.9375 42.1875 C1.51481655 38.90661777 -0.2142788 36.8745912 -2.8125 34.4375 C-5.50562941 31.82187071 -7.87624304 29.23864982 -10.0625 26.1875 C-13.26386031 21.7426361 -16.98681869 17.8449133 -21.0625 14.1875 C-27.11883608 14.1875 -35.67661299 24.81195873 -39.52636719 28.64501953 Z M-8.0625 16.1875 C-7.68738281 16.61160156 -7.31226562 17.03570313 -6.92578125 17.47265625 C-4.20588759 20.58991473 -1.64879792 23.70772842 0.6875 27.125 C1.43 28.135625 2.1725 29.14625 2.9375 30.1875 C3.5975 30.1875 4.2575 30.1875 4.9375 30.1875 C5.205625 30.80625 5.47375 31.425 5.75 32.0625 C6.89306848 34.4870233 6.89306848 34.4870233 9.9375 36.1875 C16.43022905 35.87333569 22.52210726 34.40401175 28.828125 32.88671875 C32.53313022 32.05355803 36.16129609 31.55771607 39.9375 31.1875 C35.99268245 28.96993307 31.74042009 27.75328913 27.4453125 26.40234375 C26.62175262 26.14119278 25.79819275 25.88004181 24.94967651 25.61097717 C23.21030655 25.0605112 21.47039411 24.51175683 19.72998047 23.96459961 C17.07733236 23.12966854 14.42727227 22.28687647 11.77734375 21.44335938 C10.08348436 20.90837576 8.38947861 20.37385527 6.6953125 19.83984375 C5.90762482 19.58879379 5.11993713 19.33774384 4.30838013 19.0790863 C0.19890175 17.79406105 -3.78099215 16.77095453 -8.0625 16.1875 Z M33.42553711 39.53125 C31.24913844 39.93766088 29.06933193 40.32033782 26.88867188 40.703125 C25.50493419 40.96208107 24.12145984 41.22244908 22.73828125 41.484375 C21.48184814 41.71479492 20.22541504 41.94521484 18.9309082 42.18261719 C15.95798981 42.92871754 15.95798981 42.92871754 14.39453125 44.76000977 C13.66921695 48.6124671 14.80879054 52.02759286 15.82421875 55.73046875 C16.04189407 56.57233231 16.2595694 57.41419586 16.48384094 58.28157043 C17.18426715 60.98306306 17.9033466 63.67910737 18.625 66.375 C19.55435282 69.88707041 20.47449059 73.40141221 21.38671875 76.91796875 C21.61124725 77.77977753 21.83577576 78.6415863 22.06710815 79.5295105 C23.69177391 85.89411629 24.96693922 92.27054721 25.96549988 98.76249695 C26.55150646 102.48155616 27.3829572 105.75346747 28.9375 109.1875 C35.27383202 108.5279286 41.31629673 107.26392593 47.5 105.75 C48.40685547 105.53279297 49.31371094 105.31558594 50.24804688 105.09179688 C55.18085148 103.90062651 60.07019246 102.62298851 64.9375 101.1875 C64.78353996 87.89364293 61.48136563 75.30293082 58.4375 62.4375 C57.91965653 60.20594162 57.40272221 57.97417206 56.88671875 55.7421875 C56.39404855 53.62480918 55.9005884 51.50761447 55.40625 49.390625 C55.05778015 47.89707489 55.05778015 47.89707489 54.70227051 46.37335205 C54.37688293 44.99986603 54.37688293 44.99986603 54.04492188 43.59863281 C53.75965637 42.38956268 53.75965637 42.38956268 53.46862793 41.15606689 C52.99239619 39.13163813 52.99239619 39.13163813 51.9375 37.1875 C45.65163062 36.96292446 39.57122921 38.37034278 33.42553711 39.53125 Z M5.9375 49.1875 C5.46441406 49.75597656 4.99132812 50.32445312 4.50390625 50.91015625 C0.44959012 55.64414331 -3.63869421 59.58581198 -8.62890625 63.3046875 C-14.37034007 67.74669569 -20.22253827 72.61673901 -24.6875 78.375 C-27.47858058 81.680227 -30.5939232 84.02980099 -34.07421875 86.57421875 C-36.29242444 88.21105683 -36.29242444 88.21105683 -38.0625 91.1875 C-17.60321122 98.00216274 -17.60321122 98.00216274 3.2734375 103.34765625 C8.92906555 104.64398891 14.4231598 106.38455051 19.9375 108.1875 C19.74414062 107.25550781 19.55078125 106.32351562 19.3515625 105.36328125 C19.09117188 104.08839844 18.83078125 102.81351563 18.5625 101.5 C18.30726562 100.25863281 18.05203125 99.01726562 17.7890625 97.73828125 C17.09864496 94.22262364 16.56723048 90.69807017 16.0546875 87.15234375 C14.99827561 80.17042151 13.51597177 73.31434021 11.90576172 66.44433594 C11.42872776 64.39990467 10.96614536 62.3525086 10.50390625 60.3046875 C10.20138047 58.9998004 9.89802769 57.69510469 9.59375 56.390625 C9.32369141 55.22176758 9.05363281 54.05291016 8.77539062 52.84863281 C8.36063477 51.53137207 8.36063477 51.53137207 7.9375 50.1875 C7.2775 49.8575 6.6175 49.5275 5.9375 49.1875 Z M-70.0625 72.1875 C-69.42175893 78.03504387 -68.39031351 83.66579668 -67.06640625 89.39453125 C-66.77599709 90.66534798 -66.77599709 90.66534798 -66.47972107 91.96183777 C-66.07242646 93.73796764 -65.66306022 95.51362362 -65.25170898 97.28881836 C-64.62316557 100.00793587 -64.00561924 102.72940289 -63.38867188 105.45117188 C-62.99024639 107.18244439 -62.59118046 108.91356967 -62.19140625 110.64453125 C-62.00800186 111.45702835 -61.82459747 112.26952545 -61.63563538 113.10664368 C-60.81402126 116.61396467 -60.08032388 119.16076418 -58.0625 122.1875 C-57.26879903 119.04217644 -56.47792272 115.89614885 -55.6875 112.75 C-55.46578125 111.87150391 -55.2440625 110.99300781 -55.015625 110.08789062 C-54.57261163 108.32235206 -54.13714873 106.55490188 -53.70922852 104.78564453 C-53.28467796 103.08006996 -52.82768732 101.38218006 -52.33569336 99.69482422 C-50.99480436 95.0051551 -50.99480436 95.0051551 -52.30078125 90.4375 C-52.98527344 89.695 -53.66976562 88.9525 -54.375 88.1875 C-55.11621094 87.3625 -55.85742188 86.5375 -56.62109375 85.6875 C-57.42675781 84.8625 -58.23242188 84.0375 -59.0625 83.1875 C-60.28646484 81.9190625 -60.28646484 81.9190625 -61.53515625 80.625 C-63.68204565 78.44669271 -65.85922571 76.30849434 -68.0625 74.1875 C-68.7225 73.5275 -69.3825 72.8675 -70.0625 72.1875 Z M-43.0625 98.1875 C-45.49638752 102.63468824 -46.9006629 106.95934195 -48 111.875 C-49.37943952 117.80563295 -51.10276026 123.34551299 -53.5234375 128.953125 C-54.24847244 131.15431809 -54.24847244 131.15431809 -53.49487305 133.17700195 C-51.38564855 136.13753778 -49.12449708 136.52212301 -45.68359375 137.58984375 C-45.04405762 137.79279053 -44.40452148 137.9957373 -43.74560547 138.20483398 C-41.66809613 138.85991129 -39.58458407 139.49283529 -37.5 140.125 C-36.07199453 140.56926249 -34.64434127 141.01465865 -33.21704102 141.46118164 C-29.17109851 142.72192863 -25.11727062 143.95545732 -21.0625 145.1875 C-19.28105583 145.73895647 -17.49976894 146.29092172 -15.71875 146.84375 C-7.25068174 149.43704903 1.24979171 151.49401645 9.9375 153.1875 C13.94847781 144.50415974 15.90594542 135.4772877 17.9375 126.1875 C18.16695313 125.1665625 18.39640625 124.145625 18.6328125 123.09375 C19.07480308 121.12658064 19.50770998 119.15737093 19.9375 117.1875 C15.29595919 114.61455139 10.76270768 113.31751786 5.625 112.1875 C-5.8342026 109.52399163 -16.88338306 105.68525989 -27.98950195 101.84570312 C-29.04201897 101.48524651 -29.04201897 101.48524651 -30.11579895 101.11750793 C-32.04451785 100.4562745 -33.97058883 99.78733205 -35.89648438 99.11791992 C-39.15213538 97.99953065 -39.15213538 97.99953065 -43.0625 98.1875 Z M40.3125 114.375 C39.35859375 114.57158203 38.4046875 114.76816406 37.421875 114.97070312 C32.16164146 116.10243483 32.16164146 116.10243483 27.9609375 119.2265625 C26.4627947 123.56088405 25.26276557 127.91805604 24.1875 132.375 C23.95417969 133.28958984 23.72085938 134.20417969 23.48046875 135.14648438 C22.01600019 139.75267207 22.01600019 139.75267207 22.9375 144.1875 C23.35 143.76339844 23.7625 143.33929688 24.1875 142.90234375 C28.06913729 138.96005588 32.07025467 135.29016603 36.3359375 131.765625 C38.19441163 130.17308859 38.19441163 130.17308859 38.9375 127.1875 C40.24657662 126.47437965 41.58376359 125.81169544 42.9375 125.1875 C44.6097654 123.88871053 44.6097654 123.88871053 46.171875 122.40234375 C46.74550781 121.87189453 47.31914062 121.34144531 47.91015625 120.79492188 C48.49667969 120.24384766 49.08320313 119.69277344 49.6875 119.125 C50.28949219 118.57005859 50.89148438 118.01511719 51.51171875 117.44335938 C53.00981333 116.04887451 54.47662574 114.62093009 55.9375 113.1875 C55.9375 112.8575 55.9375 112.5275 55.9375 112.1875 C50.49562777 112.04486784 45.59305163 113.16996948 40.3125 114.375 Z " fill="#20AAF2" transform="translate(99.0625,12.8125)"/>
</svg>
